<?xml version="1.0" encoding="UTF-8" standalone="no"?>
<!-- Created with Inkscape (http://www.inkscape.org/) -->

<svg
   width="220mm"
   height="220mm"
   viewBox="0 0 220 220"
   version="1.1"
   id="svg8594"
   inkscape:version="1.1.1 (3bf5ae0d25, 2021-09-20)"
   sodipodi:docname="zgeometry-conic-through-5-points.svg"
   xmlns:inkscape="http://www.inkscape.org/namespaces/inkscape"
   xmlns:sodipodi="http://sodipodi.sourceforge.net/DTD/sodipodi-0.dtd"
   xmlns="http://www.w3.org/2000/svg"
   xmlns:svg="http://www.w3.org/2000/svg">
  <sodipodi:namedview
     id="namedview8596"
     pagecolor="#ffffff"
     bordercolor="#666666"
     borderopacity="1.0"
     inkscape:pageshadow="2"
     inkscape:pageopacity="0.0"
     inkscape:pagecheckerboard="0"
     inkscape:document-units="mm"
     showgrid="false"
     width="220mm"
     inkscape:zoom="0.76095916"
     inkscape:cx="561.79099"
     inkscape:cy="416.57952"
     inkscape:window-width="1440"
     inkscape:window-height="872"
     inkscape:window-x="0"
     inkscape:window-y="28"
     inkscape:window-maximized="0"
     inkscape:current-layer="layer1" />
  <defs
     id="defs8591">
    <inkscape:path-effect
       effect="bspline"
       id="path-effect9344"
       is_visible="true"
       lpeversion="1"
       weight="33.333333"
       steps="2"
       helper_size="0"
       apply_no_weight="true"
       apply_with_weight="true"
       only_selected="false" />
    <inkscape:path-effect
       effect="bspline"
       id="path-effect9316"
       is_visible="true"
       lpeversion="1"
       weight="33.333333"
       steps="2"
       helper_size="0"
       apply_no_weight="true"
       apply_with_weight="true"
       only_selected="false" />
    <inkscape:path-effect
       effect="bspline"
       id="path-effect8844"
       is_visible="true"
       lpeversion="1"
       weight="33.333333"
       steps="2"
       helper_size="0"
       apply_no_weight="true"
       apply_with_weight="true"
       only_selected="false" />
    <inkscape:path-effect
       effect="bspline"
       id="path-effect8652"
       is_visible="true"
       lpeversion="1"
       weight="33.333333"
       steps="2"
       helper_size="0"
       apply_no_weight="true"
       apply_with_weight="true"
       only_selected="false" />
  </defs>
  <g
     inkscape:label="Layer 1"
     inkscape:groupmode="layer"
     id="layer1">
    <path
       id="path32"
       style="color:#000000;fill:#9aa7b0;stroke-width:0.998209;stroke-dashoffset:18;-inkscape-stroke:none;fill-opacity:1"
       d="m 161.48263,14.058684 c -4.93852,0.02934 -10.03762,0.529063 -15.21664,1.466578 -18.72819,3.390216 -39.05085,12.418484 -58.626915,26.517762 A 25.034195,25.034195 0 0 1 98.118021,53.161207 C 115.36249,41.259966 132.93458,33.744762 148.38679,30.947576 c 20.54404,-3.718922 36.46985,0.752843 44.94661,12.204422 8.47675,11.451582 9.12508,29.370819 1.45882,50.486842 -7.66627,21.11604 -23.59541,44.46814 -45.88195,64.0881 -22.28655,19.61996 -46.57641,31.67478 -67.120449,35.39371 -20.544049,3.71892 -36.47037,-0.75026 -44.947128,-12.20184 -8.476758,-11.45158 -9.124571,-29.3734 -1.458309,-50.48943 5.306991,-14.61762 14.575536,-30.30565 27.1694,-45.086159 A 25.034195,25.034195 0 0 1 52.665498,74.102565 C 38.665939,90.335308 28.211053,107.8274 22.006389,124.91758 c -8.834813,24.3347 -9.114856,48.8121 3.556889,65.93086 12.671745,17.11875 34.670259,21.98135 58.345792,17.69556 23.67554,-4.28579 49.89998,-17.57357 73.94174,-38.73872 24.04176,-21.16516 41.48304,-46.31835 50.31786,-70.653082 8.83481,-24.334687 9.11589,-48.811071 -3.55586,-65.929824 -9.8998,-13.374027 -25.49261,-19.268485 -43.13018,-19.16369 z" />
    <circle
       style="fill:#40b6e0;fill-opacity:1;stroke:none;stroke-width:20.7692;stroke-miterlimit:4;stroke-dasharray:none;stroke-dashoffset:68.0315"
       id="path951-5-5-9"
       cx="27.034544"
       cy="139.14452"
       r="25.034195" />
    <circle
       style="fill:#40b6e0;fill-opacity:1;stroke:none;stroke-width:20.7692;stroke-miterlimit:4;stroke-dasharray:none;stroke-dashoffset:68.0315"
       id="path951-5-5-9-9"
       cx="113.94363"
       cy="188.45792"
       r="25.034195" />
    <circle
       style="fill:#40b6e0;fill-opacity:1;stroke:none;stroke-width:20.7692;stroke-miterlimit:4;stroke-dasharray:none;stroke-dashoffset:68.0315"
       id="path951-5-5-9-9-5"
       cx="177.32555"
       cy="27.196589"
       r="25.034195" />
    <ellipse
       style="fill:#40b6e0;fill-opacity:1;stroke:none;stroke-width:20.7692;stroke-miterlimit:4;stroke-dasharray:none;stroke-dashoffset:68.0315"
       id="path951-5-5-9-9-4"
       cx="176.63016"
       cy="136.37343"
       rx="25.034"
       ry="25.034195" />
    <path
       style="color:#000000;fill:#f26522;stroke-dashoffset:68.0315;-inkscape-stroke:none;fill-opacity:1"
       d="m 74.473162,37.5244 c -14.038734,0 -25.580078,11.543297 -25.580078,25.582031 0,14.038734 11.541344,25.580078 25.580078,25.580078 14.038734,0 25.580078,-11.541344 25.580078,-25.580078 0,-14.038734 -11.541344,-25.582031 -25.580078,-25.582031 z m 0,15 c 5.932141,0 10.580078,4.64989 10.580078,10.582031 0,5.93214 -4.647937,10.580078 -10.580078,10.580078 -5.93214,0 -10.580078,-4.647938 -10.580078,-10.580078 0,-5.932141 4.647938,-10.582031 10.580078,-10.582031 z"
       id="path951-4" />
  </g>
</svg>
