<?xml version="1.0" encoding="UTF-8" standalone="no"?>
<!-- Created with Inkscape (http://www.inkscape.org/) -->

<svg
   width="220mm"
   height="220mm"
   viewBox="0 0 220 220"
   version="1.1"
   id="svg8594"
   inkscape:version="1.1.1 (3bf5ae0d25, 2021-09-20)"
   sodipodi:docname="zgeometry-common-tangents-to-2-conics.svg"
   xmlns:inkscape="http://www.inkscape.org/namespaces/inkscape"
   xmlns:sodipodi="http://sodipodi.sourceforge.net/DTD/sodipodi-0.dtd"
   xmlns="http://www.w3.org/2000/svg"
   xmlns:svg="http://www.w3.org/2000/svg">
  <sodipodi:namedview
     id="namedview8596"
     pagecolor="#ffffff"
     bordercolor="#666666"
     borderopacity="1.0"
     inkscape:pageshadow="2"
     inkscape:pageopacity="0.0"
     inkscape:pagecheckerboard="0"
     inkscape:document-units="mm"
     showgrid="false"
     width="220mm"
     inkscape:zoom="0.76095916"
     inkscape:cx="341.01699"
     inkscape:cy="444.17627"
     inkscape:window-width="1440"
     inkscape:window-height="872"
     inkscape:window-x="0"
     inkscape:window-y="28"
     inkscape:window-maximized="0"
     inkscape:current-layer="layer1" />
  <defs
     id="defs8591">
    <inkscape:path-effect
       effect="bspline"
       id="path-effect9344"
       is_visible="true"
       lpeversion="1"
       weight="33.333333"
       steps="2"
       helper_size="0"
       apply_no_weight="true"
       apply_with_weight="true"
       only_selected="false" />
    <inkscape:path-effect
       effect="bspline"
       id="path-effect9316"
       is_visible="true"
       lpeversion="1"
       weight="33.333333"
       steps="2"
       helper_size="0"
       apply_no_weight="true"
       apply_with_weight="true"
       only_selected="false" />
    <inkscape:path-effect
       effect="bspline"
       id="path-effect8844"
       is_visible="true"
       lpeversion="1"
       weight="33.333333"
       steps="2"
       helper_size="0"
       apply_no_weight="true"
       apply_with_weight="true"
       only_selected="false" />
    <inkscape:path-effect
       effect="bspline"
       id="path-effect8652"
       is_visible="true"
       lpeversion="1"
       weight="33.333333"
       steps="2"
       helper_size="0"
       apply_no_weight="true"
       apply_with_weight="true"
       only_selected="false" />
  </defs>
  <g
     inkscape:label="Layer 1"
     inkscape:groupmode="layer"
     id="layer1">
    <path
       id="path8783"
       style="color:#000000;fill:#9aa7b0;stroke-width:3.77953;stroke-linecap:round;stroke-dashoffset:94.4882;-inkscape-stroke:none;fill-opacity:1"
       d="M 579.62695 162.71289 C 570.71722 162.84466 561.75526 163.81866 552.79102 165.70117 C 495.41988 177.74924 453.15313 223.86466 430.36328 282.40039 C 407.57342 340.93611 402.37688 413.56098 418.16797 488.75586 C 428.02128 535.67588 444.95432 578.38893 467.08398 614.66992 A 99.873948 99.873948 0 0 1 520.66406 593.11914 C 499.82298 561.23917 482.98658 521.56303 473.65039 477.10547 C 459.91429 411.69618 465.19013 349.20886 483.19141 302.97266 C 501.19264 256.73646 530.0422 228.40791 564.44336 221.18359 C 598.84452 213.95927 636.64485 228.28984 671.72461 263.37891 C 706.80433 298.46798 736.77172 353.55556 750.50781 418.96484 C 764.24391 484.37413 758.96608 546.85365 740.96484 593.08984 C 722.96357 639.32605 694.12186 667.65263 659.7207 674.87695 C 649.40174 677.04396 638.77421 677.2567 628.00781 675.56641 A 99.873948 99.873948 0 0 1 629.46875 692.54688 A 99.873948 99.873948 0 0 1 621.36133 731.79492 C 637.80945 734.19873 654.58334 733.88484 671.37109 730.35938 C 728.74227 718.3113 771.00895 672.19588 793.79883 613.66016 C 816.58867 555.12444 821.78134 482.50742 805.99023 407.3125 C 790.19914 332.11762 756.23373 267.71626 711.82227 223.29297 C 674.35006 185.81082 627.7395 162.00132 579.62695 162.71289 z "
       transform="scale(0.26458333)" />
    <path
       id="path8780"
       style="color:#000000;fill:#9aa7b0;stroke-width:3.77953;stroke-linecap:round;stroke-dashoffset:94.4882;-inkscape-stroke:none;fill-opacity:1"
       d="M 395.55078 0.90039062 C 317.19913 0.90039062 245.77342 23.064144 192.42383 60.753906 C 139.07424 98.443665 103.06641 153.48122 103.06641 215.85352 C 103.06641 231.77549 105.42426 247.21602 109.80664 262.01562 A 99.873948 99.873948 0 0 1 163.7832 244.90234 C 161.12716 235.41793 159.75977 225.7079 159.75977 215.85352 C 159.75977 175.16593 182.8825 136.90121 225.13281 107.05273 C 267.38312 77.204256 328.0219 57.59375 395.55078 57.59375 C 463.07968 57.59375 523.71847 77.204256 565.96875 107.05273 C 608.21907 136.90121 631.35156 175.16593 631.35156 215.85352 C 631.35156 256.5411 608.21907 294.79996 565.96875 324.64844 C 523.71847 354.49692 463.07968 374.11328 395.55078 374.11328 C 347.31037 374.11328 302.59061 364.09857 265.57422 347.49805 A 99.873948 99.873948 0 0 1 247.78125 401.69922 C 291.38997 420.38994 341.84182 430.80664 395.55078 430.80664 C 473.90243 430.80664 545.33597 408.64484 598.68555 370.95508 C 652.03517 333.26532 688.04297 278.22581 688.04297 215.85352 C 688.04297 153.48122 652.03517 98.443665 598.68555 60.753906 C 545.33597 23.064144 473.90243 0.90039062 395.55078 0.90039062 z "
       transform="scale(0.26458333)" />
    <path
       id="path8777"
       style="color:#000000;fill:#f26522;stroke-width:3.77953;stroke-dasharray:113.386, 56.6929;stroke-dashoffset:113.386;-inkscape-stroke:none;fill-opacity:1"
       d="M 64.267578 228.41797 L 24.558594 268.88477 L 70.814453 314.26367 A 99.873948 99.873948 0 0 1 103.78125 267.18359 L 64.267578 228.41797 z M 245.14844 405.87695 A 99.873948 99.873948 0 0 1 198.72852 439.75391 L 226.9043 467.39844 L 266.61133 426.93164 L 245.14844 405.87695 z M 307.08008 466.63086 L 267.37891 507.09961 L 348.31445 586.50586 L 388.02148 546.03906 L 307.08008 466.63086 z M 428.48828 585.73828 L 388.78906 626.20508 L 433.50977 670.08203 A 99.873947 99.873947 0 0 1 463.63867 620.22461 L 428.48828 585.73828 z M 605.84961 759.74023 A 99.873947 99.873947 0 0 1 556.58008 790.82422 L 591.13477 824.71875 L 630.83398 784.25195 L 605.84961 759.74023 z "
       transform="scale(0.26458333)" />
    <path
       style="color:#000000;fill:#40b6e0;stroke-linecap:round;-inkscape-stroke:none;fill-opacity:1"
       d="m 44.013672,63.859375 c -14.958124,0 -27.244141,12.286017 -27.244141,27.244141 0,14.958124 12.286017,27.246094 27.244141,27.246094 14.958123,0 27.246094,-12.28797 27.246094,-27.246094 0,-14.958124 -12.287971,-27.244141 -27.246094,-27.244141 z m 0,15 c 6.85153,0 12.246094,5.392611 12.246094,12.244141 0,6.851529 -5.394564,12.246094 -12.246094,12.246094 -6.85153,0 -12.244141,-5.394565 -12.244141,-12.246094 0,-6.85153 5.392611,-12.244141 12.244141,-12.244141 z"
       id="path8774" />
    <path
       style="color:#000000;fill:#40b6e0;stroke-linecap:round;-inkscape-stroke:none;fill-opacity:1"
       d="m 140.12109,156.33984 c -14.95812,0 -27.24414,12.28602 -27.24414,27.24414 0,14.95813 12.28602,27.24415 27.24414,27.24414 14.95813,0 27.2461,-12.28601 27.2461,-27.24414 0,-14.95812 -12.28797,-27.24414 -27.2461,-27.24414 z m 0,15 c 6.85153,0 12.2461,5.39261 12.2461,12.24414 0,6.85153 -5.39457,12.24414 -12.2461,12.24414 -6.85153,0 -12.24414,-5.39261 -12.24414,-12.24414 0,-6.85153 5.39261,-12.24414 12.24414,-12.24414 z"
       id="path8771" />
  </g>
</svg>
