<?xml version="1.0" encoding="UTF-8" standalone="no"?>
<!-- Generator: Adobe Illustrator 19.0.0, SVG Export Plug-In . SVG Version: 6.00 Build 0)  -->

<svg
   version="1.1"
   id="Layer_1"
   x="0px"
   y="0px"
   viewBox="0 0 512 512"
   style="enable-background:new 0 0 512 512;"
   xml:space="preserve"
   sodipodi:docname="zgeometry-protractor-3-points.svg"
   inkscape:version="1.1.1 (c3084ef, 2021-09-22)"
   xmlns:inkscape="http://www.inkscape.org/namespaces/inkscape"
   xmlns:sodipodi="http://sodipodi.sourceforge.net/DTD/sodipodi-0.dtd"
   xmlns="http://www.w3.org/2000/svg"
   xmlns:svg="http://www.w3.org/2000/svg"><defs
   id="defs2871">
	

		
	</defs><sodipodi:namedview
   id="namedview2869"
   pagecolor="#ffffff"
   bordercolor="#666666"
   borderopacity="1.0"
   inkscape:pageshadow="2"
   inkscape:pageopacity="0.0"
   inkscape:pagecheckerboard="0"
   showgrid="false"
   inkscape:zoom="1.0488281"
   inkscape:cx="262.67412"
   inkscape:cy="309.39292"
   inkscape:window-width="1296"
   inkscape:window-height="759"
   inkscape:window-x="201"
   inkscape:window-y="25"
   inkscape:window-maximized="0"
   inkscape:current-layer="Layer_1" />

<path
   id="path2832"
   style="fill:#9aa7b0;fill-opacity:1;stroke-width:0.883302"
   d="m 247.86719,116.86719 c -32.35536,0.36874 -64.64292,7.50767 -94.04522,21.04465 -14.36487,6.50529 -28.33788,14.04743 -40.97793,23.52595 -6.89467,5.12314 -3.36077,2.79693 -9.55302,8.74385 6.76418,5.75755 13.53036,11.51277 20.29687,17.26758 4.50514,-4.19429 -0.77021,-0.16674 4.33476,-3.61625 7.30927,-5.01155 14.64576,-10.01024 22.40055,-14.31713 2.33049,-1.31251 4.5909,-2.51601 6.99064,-3.7532 0.91174,-0.47002 1.73996,-0.87835 2.66663,-1.34076 2.16942,5.16394 14.21247,36.38653 16.51921,41.48916 2.88508,5.28674 9.68982,8.01472 15.42024,6.12021 5.46188,-1.62902 9.49161,-7.12226 9.30791,-12.83514 -0.0226,-3.5786 -11.89591,-32.7397 -13.13966,-35.99185 -1.23187,-2.97564 -2.46373,-5.95128 -3.69559,-8.92692 4.69743,-1.59907 9.33671,-3.00481 14.13997,-4.26489 7.74447,-2.03611 15.75356,-3.63254 23.7438,-4.74595 1.19837,-0.16173 2.66783,-0.35368 3.87083,-0.49888 3.77884,-0.44732 7.56907,-0.79884 11.36649,-1.04301 0.0264,5.60018 -0.081,11.20554 0.0906,16.80227 0.63153,6.00328 5.89413,11.14359 11.92695,11.57468 5.73109,0.59369 11.60355,-3.04384 13.56836,-8.47265 1.29126,-3.43405 0.73449,-7.15826 0.84671,-10.73672 0.003,-3.05521 -0.0114,-6.11047 0.009,-9.16563 2.99481,0.18535 6.10833,0.46453 9.01367,0.77149 2.26046,0.25306 4.3815,0.5055 6.65349,0.83069 4.42976,0.61544 8.86944,1.40311 13.18635,2.29821 8.21183,1.72314 16.32272,3.93308 24.26172,6.65039 -2.11603,5.19206 -18.37354,40.33132 -20.35019,45.57698 -1.72324,5.81419 1.21399,12.60595 6.66269,15.29021 4.98203,2.64434 11.61883,1.61025 15.51621,-2.48423 2.64364,-2.67699 17.56884,-36.43829 19.07368,-39.77427 1.1686,-2.82204 2.33721,-5.64407 3.50582,-8.46611 3.36317,1.66343 6.69914,3.4259 9.90879,5.24223 8.10108,4.55143 15.87874,9.67511 23.28847,15.28121 3.17162,2.41045 6.40837,4.99605 9.47758,7.63056 0.76934,0.65802 1.53119,1.32485 2.29391,1.99053 -3.91646,3.95802 -7.93662,7.82088 -11.74738,11.87932 -3.79526,4.69187 -3.70888,12.04278 0.24738,16.61482 3.59769,4.41257 10.20258,6.02339 15.40654,3.67868 3.29413,-1.39793 5.50518,-4.32829 8.03108,-6.72711 2.25191,-2.25144 4.50382,-4.50287 6.75573,-6.7543 9.32149,10.59045 17.55859,22.13422 24.53321,34.39844 0.46288,0.83767 1.01167,1.78542 1.4757,2.64327 1.43737,2.60976 2.81151,5.25437 4.13172,7.92509 -5.16376,2.16898 -40.38538,18.21446 -45.48913,20.51733 -5.29833,2.89324 -8.023,9.72033 -6.11147,15.45875 1.64707,5.43034 7.10445,9.43788 12.79513,9.27657 3.71083,-0.0362 36.98298,-16.00531 40.36113,-17.28327 2.86361,-1.18511 5.72721,-2.37022 8.59082,-3.55532 2.85112,8.337 5.14807,16.86184 6.90235,25.49609 0.79609,3.95613 1.50253,8.08562 2.0776,12.13949 0.54155,3.89458 0.98954,7.95857 1.31287,11.93743 0.10022,1.18158 0.17955,2.36491 0.25797,3.54808 -5.60525,0.0287 -11.21643,-0.0802 -16.81779,0.0936 -5.9821,0.64145 -11.10397,5.87292 -11.55526,11.88493 -0.59356,5.66055 2.9181,11.47738 8.24609,13.51758 3.3583,1.37027 7.04491,0.84362 10.57188,0.9375 h 9.99648 v 21.67773 l -2.22265,26.43163 c 2.58448,-2.10481 5.43978,-3.97567 8.68841,-4.85676 3.10948,-0.95717 6.46911,-1.09817 9.62409,-0.26824 0.35935,0.0818 1.13685,0.29969 1.647,0.46771 2.59027,0.88259 5.00777,2.19104 7.52628,3.25209 0.50634,0.15261 1.43039,0.95067 1.17633,-0.0718 -0.0137,-21.41564 0.0402,-42.83179 -0.0493,-64.24709 C 482.2041,309.19755 473.4284,273.95503 457.13658,242.52988 436.07789,201.80874 402.71921,167.56932 362.56114,145.45755 337.56598,131.6372 309.95297,122.61431 281.641,118.88635 270.45152,117.40074 259.15448,116.732 247.86736,116.86714 Z M 72.871094,199.7832 c -6.992061,8.40789 -13.486576,17.23501 -19.27235,26.51759 -14.977278,23.87757 -25.434856,50.5623 -30.756669,78.23811 -3.012007,15.54125 -4.384392,31.38632 -4.229318,47.21305 -0.0017,25.00583 -0.01591,50.01248 0.02026,75.01779 0.26766,6.2979 5.692249,11.95666 12.016741,12.32229 2.81567,0.19302 5.640923,0.007 8.460791,0.0779 65.517841,-6.3e-4 117.035671,-0.001 182.553511,-0.002 -0.12752,-8.81119 -0.25195,-17.62243 -0.38086,-26.43359 -63.41406,0 -112.82812,-10e-6 -176.242182,0 v -2.43165 -26.43165 -21.67968 c 5.746591,-0.0286 11.498889,0.0799 17.241694,-0.0929 5.979139,-0.62933 11.105683,-5.85024 11.568852,-11.85636 0.611915,-5.6847 -2.925178,-11.54228 -8.291755,-13.56178 -3.344242,-1.36019 -7.015708,-0.82384 -10.526604,-0.9226 h -9.552734 c 0.249125,-3.92869 0.623792,-7.84868 1.085937,-11.75781 0.119843,-0.90527 0.291542,-2.23518 0.404297,-3.13281 1.791616,-12.99486 4.823221,-25.81941 9.066406,-38.23242 5.171849,2.11279 36.297831,16.35136 41.520209,18.33305 5.83537,1.75554 12.67873,-1.19347 15.35886,-6.68058 2.65948,-5.0335 1.5645,-11.75195 -2.64123,-15.61523 -2.45086,-2.37798 -5.82288,-3.28731 -8.86873,-4.62613 -3.07551,-1.27376 -32.15102,-14.54752 -35.22653,-15.82127 6.588476,-13.37122 14.73631,-26.10841 24.027343,-37.66211 1.395966,-1.71734 2.792712,-3.43405 4.1875,-5.15234 -6.742797,-5.73986 -13.488624,-11.47616 -20.232422,-17.21485 -0.430338,0.5293 -0.860677,1.0586 -1.291015,1.58789 z M 277.31641,414.76367 c 0,8.13561 0.23239,16.26956 0.35156,24.4043 63.22917,-6e-4 110.45833,-0.001 173.6875,-0.002 -1.24359,-3.27026 -2.83655,-6.43215 -3.64844,-9.84961 -0.78207,-3.5194 -0.40386,-7.21798 0.80065,-10.59816 0.71875,-1.98554 1.38602,-3.98954 2.08021,-5.98387 -63.10026,0 -110.20052,-10e-6 -173.30078,0 0.01,0.67643 0.0293,1.35279 0.0293,2.02929 z"
   sodipodi:nodetypes="sccccccscccccccccccccccccccccccccccccccccccccccccccccccccccccccccccccsscccccccccccccccccccccccccccccccsccccccss" />
<g
   id="g2838">
</g>
<g
   id="g2840">
</g>
<g
   id="g2842">
</g>
<g
   id="g2844">
</g>
<g
   id="g2846">
</g>
<g
   id="g2848">
</g>
<g
   id="g2850">
</g>
<g
   id="g2852">
</g>
<g
   id="g2854">
</g>
<g
   id="g2856">
</g>
<g
   id="g2858">
</g>
<g
   id="g2860">
</g>
<g
   id="g2862">
</g>
<g
   id="g2864">
</g>
<g
   id="g2866">
</g>
<path
   style="color:#000000;fill:#40b6e0;fill-opacity:1;stroke-width:1.93923;stroke-dashoffset:147.402;-inkscape-stroke:none"
   d="m 256.03042,383.33832 c -26.37964,0 -48.07741,21.5558 -48.07741,47.7628 0,26.20705 21.69777,47.76285 48.07741,47.76285 26.37965,0 48.07744,-21.5558 48.07744,-47.76285 0,-26.207 -21.69779,-47.7628 -48.07744,-47.7628 z m 0,28.99295 c 10.60752,0 18.89354,8.23178 18.89354,18.76985 0,10.53811 -8.28602,18.76993 -18.89354,18.76993 -10.6075,0 -18.8935,-8.23182 -18.8935,-18.76993 0,-10.53807 8.286,-18.76985 18.8935,-18.76985 z"
   id="path3794" /><path
   style="color:#000000;fill:#40b6e0;fill-opacity:1;stroke-width:1.91206;stroke-dashoffset:147.402;-inkscape-stroke:none"
   d="m 466.83649,381.13938 c -26.01006,0 -47.40387,21.25402 -47.40387,47.09416 0,25.84017 21.39381,47.09421 47.40387,47.09421 26.01007,0 47.40388,-21.25404 47.40388,-47.09421 0,-25.84014 -21.39381,-47.09416 -47.40388,-47.09416 z m 0,28.58707 c 10.45891,0 18.62883,8.11654 18.62883,18.50709 0,10.39059 -8.16992,18.50717 -18.62883,18.50717 -10.45889,0 -18.62882,-8.11658 -18.62882,-18.50717 0,-10.39055 8.16993,-18.50709 18.62882,-18.50709 z"
   id="path3794-8" /><path
   style="color:#000000;fill:#40b6e0;fill-opacity:1;stroke-width:1.80289;stroke-dashoffset:147.402;-inkscape-stroke:none"
   d="m 99.29102,145.52861 c -24.802487,0 -45.20302,19.8161 -45.20302,43.90805 0,24.09198 20.400533,43.9081 45.20302,43.9081 24.8025,0 45.20305,-19.81612 45.20305,-43.9081 0,-24.09195 -20.40055,-43.90805 -45.20305,-43.90805 z m 0,26.65303 c 9.97333,0 17.76396,7.56743 17.76396,17.25502 0,9.68762 -7.79063,17.25507 -17.76396,17.25507 -9.97332,0 -17.763934,-7.56745 -17.763934,-17.25507 0,-9.68759 7.790614,-17.25502 17.763934,-17.25502 z"
   id="path3794-6" /><path
   style="color:#000000;fill:#f26522;fill-opacity:0.8;stroke-dasharray:18, 18;-inkscape-stroke:none"
   d="m 126.39901,221.03403 -15.16558,9.69374 9.6957,15.16567 15.16558,-9.69375 z m 19.3914,30.33132 -15.16558,9.69375 9.69571,15.16566 15.16558,-9.69375 z m 19.39141,30.33132 -15.16558,9.69375 9.69569,15.16565 15.16559,-9.69375 z m 19.39139,30.33131 -15.16558,9.69375 9.69571,15.16566 15.16558,-9.69375 z m 19.38946,30.33125 -15.16558,9.69374 9.6957,15.16567 15.16558,-9.69375 z m 19.3914,30.33132 -15.16558,9.69375 9.6957,15.16566 15.16558,-9.69375 z"
   id="path5446" /></svg>
