<?xml version="1.0" encoding="UTF-8" standalone="no"?>
<!-- Generator: Adobe Illustrator 19.0.0, SVG Export Plug-In . SVG Version: 6.00 Build 0)  -->

<svg
   version="1.1"
   id="Layer_1"
   x="0px"
   y="0px"
   viewBox="0 0 502 502"
   style="enable-background:new 0 0 502 502;"
   xml:space="preserve"
   sodipodi:docname="zgeometry-ruler-2-points.svg"
   inkscape:version="1.1.1 (c3084ef, 2021-09-22)"
   xmlns:inkscape="http://www.inkscape.org/namespaces/inkscape"
   xmlns:sodipodi="http://sodipodi.sourceforge.net/DTD/sodipodi-0.dtd"
   xmlns="http://www.w3.org/2000/svg"
   xmlns:svg="http://www.w3.org/2000/svg"><defs
   id="defs867">
	

		
	
			
			
		</defs><sodipodi:namedview
   id="namedview865"
   pagecolor="#ffffff"
   bordercolor="#666666"
   borderopacity="1.0"
   inkscape:pageshadow="2"
   inkscape:pageopacity="0.0"
   inkscape:pagecheckerboard="0"
   showgrid="false"
   inkscape:zoom="1.0697211"
   inkscape:cx="265.95717"
   inkscape:cy="249.13035"
   inkscape:window-width="1312"
   inkscape:window-height="759"
   inkscape:window-x="0"
   inkscape:window-y="25"
   inkscape:window-maximized="0"
   inkscape:current-layer="Layer_1" />
<path
   id="path824"
   style="fill:#9aa7b0;fill-opacity:1;stroke-width:0.918063"
   d="m 139.63086,13.773438 c -3.75966,0.102766 -7.31103,2.013966 -9.76136,4.817998 -17.72212,17.722126 -21.44425,21.444251 -39.166375,39.166376 6.048042,6.377664 12.097095,12.754378 18.148435,19.128907 15.10157,-15.101563 16.20313,-16.203125 31.30469,-31.304688 6.63281,6.633464 27.26562,27.266927 33.89844,33.900391 -8.82853,8.848758 -17.71078,17.64633 -26.49119,26.541588 -3.74977,4.26555 -4.19084,11.03002 -1.02053,15.74552 2.85764,4.48731 8.60787,6.88206 13.80469,5.70508 3.0728,-0.62357 5.75008,-2.48825 7.80123,-4.80901 8.18214,-8.1815 16.36428,-16.36301 24.54642,-24.544506 6.10808,6.108076 8.21615,8.216146 14.32422,14.324216 l 8.63867,8.64258 c 6.10873,6.10807 22.21745,22.21615 28.32618,28.32422 -8.80672,8.82745 -31.66111,31.60819 -40.42707,40.47434 -3.77886,4.228 -4.26849,10.97985 -1.14711,15.71412 2.82732,4.54372 8.60991,6.98772 13.83784,5.81097 3.0982,-0.61454 5.79106,-2.50223 7.85398,-4.83969 8.17367,-8.17304 30.34735,-30.34608 38.52103,-38.51912 6.10937,6.10873 12.21875,12.21745 18.32812,18.32618 l 18.63867,18.64062 c 6.10808,6.10807 12.21615,12.21615 18.32422,18.32422 -8.82764,8.85029 -17.708,17.6504 -26.48923,26.5455 -3.74978,4.26555 -4.19084,11.03002 -1.02053,15.74552 2.85658,4.48733 8.60668,6.88191 13.80273,5.70507 3.0487,-0.62161 5.72014,-2.4565 7.75591,-4.76369 8.19725,-8.19661 16.3945,-16.39322 24.59175,-24.58982 l 18.32422,18.32422 18.63867,18.64062 c 6.10937,6.10873 12.21875,12.21745 18.32812,18.32617 -8.80671,8.82745 -29.6611,29.6082 -38.42706,38.47435 -3.77935,4.22779 -4.26824,10.97991 -1.14712,15.71412 2.82744,4.54259 8.60818,6.98758 13.83595,5.81124 3.09856,-0.61504 5.79281,-2.50174 7.85587,-4.83997 8.17368,-8.17304 28.34736,-28.34607 36.52104,-36.51911 6.10807,6.10872 12.21614,12.21745 18.32421,18.32617 l 18.64063,18.63867 c 6.63281,6.63281 3.26562,3.26563 9.89844,9.89844 -13.31511,13.3151 -12.63021,14.63021 -25.94532,27.94531 6.07723,7.01762 12.15783,14.03232 18.23633,21.04883 17.38311,-17.40131 20.80577,-22.7649 38.15711,-40.19682 2.80588,-3.088 3.19644,-7.77304 1.73742,-11.5688 -1.14889,-3.3019 -3.49191,-5.99878 -6.0149,-8.34303 C 372.09014,240.24396 260.67127,128.81156 149.23732,17.394793 c -2.53599,-2.444068 -6.09094,-3.770192 -9.60646,-3.621355 z M 54.96875,93.490234 C 41.824585,106.65189 36.637039,111.77078 23.533661,124.97025 c -3.765768,4.20513 -4.293913,10.9153 -1.209442,15.64889 1.601839,2.46246 3.964905,4.27495 5.942278,6.41298 110.700613,110.69705 221.393133,221.40249 332.105493,332.0876 4.15964,3.98654 11.04249,4.65693 15.88973,1.53653 2.49739,-1.60164 4.32539,-3.99251 6.48329,-5.98915 l 32.82726,-32.82726 c -6.21355,-6.21354 -12.42709,-12.42708 -18.64063,-18.64062 -11.20256,11.20304 -16.40493,16.40626 -27.60742,27.60937 C 263.5918,345.07617 157.85937,239.34375 52.126953,133.61133 62.274103,123.46356 64.421132,121.31566 74.568359,111.16797 68.520317,104.79031 62.471268,98.413592 56.419922,92.039062 Z"
   sodipodi:nodetypes="ccccccccccccccccccccccccccccccccccccccccccccccccccccccccccc" />
<g
   id="g834"
   transform="matrix(1.0144033,0,0,1.0144033,-1.298367,0.69244175)">
</g>
<g
   id="g836"
   transform="matrix(1.0144033,0,0,1.0144033,-1.298367,0.69244175)">
</g>
<g
   id="g838"
   transform="matrix(1.0144033,0,0,1.0144033,-1.298367,0.69244175)">
</g>
<g
   id="g840"
   transform="matrix(1.0144033,0,0,1.0144033,-1.298367,0.69244175)">
</g>
<g
   id="g842"
   transform="matrix(1.0144033,0,0,1.0144033,-1.298367,0.69244175)">
</g>
<g
   id="g844"
   transform="matrix(1.0144033,0,0,1.0144033,-1.298367,0.69244175)">
</g>
<g
   id="g846"
   transform="matrix(1.0144033,0,0,1.0144033,-1.298367,0.69244175)">
</g>
<g
   id="g848"
   transform="matrix(1.0144033,0,0,1.0144033,-1.298367,0.69244175)">
</g>
<g
   id="g850"
   transform="matrix(1.0144033,0,0,1.0144033,-1.298367,0.69244175)">
</g>
<g
   id="g852"
   transform="matrix(1.0144033,0,0,1.0144033,-1.298367,0.69244175)">
</g>
<g
   id="g854"
   transform="matrix(1.0144033,0,0,1.0144033,-1.298367,0.69244175)">
</g>
<g
   id="g856"
   transform="matrix(1.0144033,0,0,1.0144033,-1.298367,0.69244175)">
</g>
<g
   id="g858"
   transform="matrix(1.0144033,0,0,1.0144033,-1.298367,0.69244175)">
</g>
<g
   id="g860"
   transform="matrix(1.0144033,0,0,1.0144033,-1.298367,0.69244175)">
</g>
<g
   id="g862"
   transform="matrix(1.0144033,0,0,1.0144033,-1.298367,0.69244175)">
</g>
<path
   style="color:#000000;fill:#40b6e0;fill-opacity:1;stroke-width:2.04731;stroke-dashoffset:147.402;-inkscape-stroke:none"
   d="m 86.703125,33.491415 c -28.164982,0 -51.331238,22.502598 -51.331238,49.860698 0,27.358137 23.166256,49.860757 51.331238,49.860757 28.164985,0 51.331255,-22.50262 51.331255,-49.860757 0,-27.3581 -23.16627,-49.860698 -51.331255,-49.860698 z m 0,30.266397 c 11.325415,0 20.172215,8.593358 20.172215,19.594301 0,11.000968 -8.8468,19.594357 -20.172215,19.594357 -11.325412,0 -20.172213,-8.593389 -20.172213,-19.594357 0,-11.000943 8.846801,-19.594301 20.172213,-19.594301 z"
   id="path3794" /><path
   style="color:#000000;fill:#40b6e0;fill-opacity:1;stroke-width:2.15349;stroke-dashoffset:147.402;-inkscape-stroke:none"
   d="m 425.40234,368.42445 c -29.1982,0 -53.21433,24.01613 -53.21433,53.21432 0,29.19823 24.01613,53.21437 53.21433,53.21437 29.19823,0 53.21436,-24.01614 53.21436,-53.21437 0,-29.19819 -24.01613,-53.21432 -53.21436,-53.21432 z m 0,32.30211 c 11.74092,0 20.91226,9.17134 20.91226,20.91221 0,11.74088 -9.17134,20.91227 -20.91226,20.91227 -11.74088,0 -20.91222,-9.17139 -20.91222,-20.91227 0,-11.74087 9.17134,-20.91221 20.91222,-20.91221 z"
   id="path3794-5" /></svg>
