<?xml version="1.0" encoding="UTF-8" standalone="no"?>
<!-- Created with Inkscape (http://www.inkscape.org/) -->

<svg
   width="220mm"
   height="220mm"
   viewBox="0 0 220 220"
   version="1.1"
   id="svg5"
   sodipodi:docname="zgeometry-ray-2-points.svg"
   inkscape:version="1.1.1 (c3084ef, 2021-09-22)"
   xmlns:inkscape="http://www.inkscape.org/namespaces/inkscape"
   xmlns:sodipodi="http://sodipodi.sourceforge.net/DTD/sodipodi-0.dtd"
   xmlns="http://www.w3.org/2000/svg"
   xmlns:svg="http://www.w3.org/2000/svg">
  <sodipodi:namedview
     id="namedview7"
     pagecolor="#ffffff"
     bordercolor="#666666"
     borderopacity="1.0"
     inkscape:pageshadow="2"
     inkscape:pageopacity="0.0"
     inkscape:pagecheckerboard="0"
     inkscape:document-units="mm"
     showgrid="false"
     width="220mm"
     inkscape:zoom="0.67354558"
     inkscape:cx="437.23841"
     inkscape:cy="455.05458"
     inkscape:window-width="1440"
     inkscape:window-height="759"
     inkscape:window-x="0"
     inkscape:window-y="25"
     inkscape:window-maximized="0"
     inkscape:current-layer="layer1" />
  <defs
     id="defs2">
    <marker
       style="overflow:visible"
       id="Arrow1Mstart"
       refX="0.0"
       refY="0.0"
       orient="auto"
       inkscape:stockid="Arrow1Mstart"
       inkscape:isstock="true">
      <path
         transform="scale(0.4) translate(10,0)"
         style="fill-rule:evenodd;fill:context-stroke;stroke:context-stroke;stroke-width:1.0pt"
         d="M 0.0,0.0 L 5.0,-5.0 L -12.5,0.0 L 5.0,5.0 L 0.0,0.0 z "
         id="path1638" />
    </marker>
    <marker
       style="overflow:visible"
       id="Arrow1Lstart"
       refX="0.0"
       refY="0.0"
       orient="auto"
       inkscape:stockid="Arrow1Lstart"
       inkscape:isstock="true">
      <path
         transform="scale(0.8) translate(12.5,0)"
         style="fill-rule:evenodd;fill:context-stroke;stroke:context-stroke;stroke-width:1.0pt"
         d="M 0.0,0.0 L 5.0,-5.0 L -12.5,0.0 L 5.0,5.0 L 0.0,0.0 z "
         id="path1632" />
    </marker>
  </defs>
  <g
     inkscape:label="Layer 1"
     inkscape:groupmode="layer"
     id="layer1">
    <path
       id="path4909"
       style="color:#000000;fill:#9aa7b0;fill-opacity:1;stroke-width:0.957498;stroke-linecap:round;-inkscape-stroke:none"
       d="m 202.76222,6.6414377 a 7.7438784,7.8435375 0 0 0 -5.47055,2.3110968 L 168.16896,38.587471 a 31.393205,31.797217 0 0 1 11.07779,10.963399 l 29.02143,-29.531857 a 7.7438784,7.8435375 0 0 0 -0.024,-11.0928714 7.7438784,7.8435375 0 0 0 -5.48187,-2.2847039 z M 125.3534,82.156227 37.058062,172.00516 a 7.7438784,7.8435375 0 0 0 0.02605,11.09287 7.7438784,7.8435375 0 0 0 10.949961,-0.0264 L 136.23699,93.317321 A 31.393205,31.797217 0 0 1 125.3534,82.156227 Z" />
    <ellipse
       style="fill:#40b6e0;fill-opacity:1;stroke-width:14.4737;stroke-linecap:round;stroke-miterlimit:4;stroke-dasharray:none"
       id="circle4906"
       cx="39.155056"
       cy="179.94304"
       rx="31.603741"
       ry="32.076744" />
    <path
       id="path4903"
       style="fill:#f26522;fill-opacity:0.80000001;stroke-width:14.4737;stroke-linecap:round;stroke-miterlimit:4;stroke-dasharray:none"
       d="M 151.6646,33.428531 A 31.60374,32.076743 0 0 0 120.06093,65.5052 31.60374,32.076743 0 0 0 151.6646,97.581839 31.60374,32.076743 0 0 0 183.26876,65.5052 31.60374,32.076743 0 0 0 151.6646,33.428531 Z m 0.0733,15.407129 A 15.989986,16.229302 0 0 1 167.72803,65.065139 15.989986,16.229302 0 0 1 151.73787,81.294117 15.989986,16.229302 0 0 1 135.74771,65.065139 15.989986,16.229302 0 0 1 151.73787,48.83566 Z" />
    <g
       id="path1941"
       transform="matrix(1.0537405,-0.04176495,0.04037563,1.0899998,-6.6012242,-15.784501)"
       style="fill:#9aa7b0;fill-opacity:1">
      <path
         style="color:#000000;fill:#9aa7b0;fill-opacity:1;stroke-width:0.447524px;-inkscape-stroke:none"
         d="m 64.446064,117.91089 c 0,0 21.152984,5.69913 28.113554,13.19061 6.960589,7.49148 10.709942,28.35978 10.709942,28.35978 l 14.05678,-52.10288 z"
         id="path4900" />
      <path
         style="color:#000000;fill:#9aa7b0;fill-opacity:1;-inkscape-stroke:none"
         d="m 117.63672,107.06836 -53.234376,10.62305 -0.01367,0.43554 c 0,0 5.277404,1.42264 11.423828,3.7793 6.146424,2.35666 13.161379,5.664 16.583984,9.34766 3.423407,3.68451 6.110395,10.75962 7.914064,16.90039 1.80366,6.14076 2.73828,11.3457 2.73828,11.3457 l 0.4375,0.0195 z m -0.62109,0.58008 -13.73438,50.90625 c -0.1317,-0.71217 -0.86769,-4.83035 -2.54102,-10.52735 -1.811148,-6.16624 -4.480398,-13.27116 -8.017574,-17.07812 -3.537957,-3.80781 -10.579801,-7.09517 -16.75,-9.46094 -5.731046,-2.19739 -9.972662,-3.33702 -10.652344,-3.52344 z"
         id="path4897" />
    </g>
  </g>
</svg>
