<?xml version="1.0" encoding="UTF-8" standalone="no"?>
<!-- Created with Inkscape (http://www.inkscape.org/) -->

<svg
   width="220mm"
   height="220mm"
   viewBox="0 0 220 220"
   version="1.1"
   id="svg8594"
   inkscape:version="1.1.1 (c3084ef, 2021-09-22)"
   sodipodi:docname="zgeometry-reflection-of-a-shape.svg"
   xmlns:inkscape="http://www.inkscape.org/namespaces/inkscape"
   xmlns:sodipodi="http://sodipodi.sourceforge.net/DTD/sodipodi-0.dtd"
   xmlns="http://www.w3.org/2000/svg"
   xmlns:svg="http://www.w3.org/2000/svg">
  <sodipodi:namedview
     id="namedview8596"
     pagecolor="#ffffff"
     bordercolor="#666666"
     borderopacity="1.0"
     inkscape:pageshadow="2"
     inkscape:pageopacity="0.0"
     inkscape:pagecheckerboard="0"
     inkscape:document-units="mm"
     showgrid="false"
     width="220mm"
     inkscape:zoom="0.76095916"
     inkscape:cx="417.23658"
     inkscape:cy="415.92245"
     inkscape:window-width="1440"
     inkscape:window-height="759"
     inkscape:window-x="0"
     inkscape:window-y="25"
     inkscape:window-maximized="0"
     inkscape:current-layer="layer1" />
  <defs
     id="defs8591">
    <inkscape:path-effect
       effect="bspline"
       id="path-effect9344"
       is_visible="true"
       lpeversion="1"
       weight="33.333333"
       steps="2"
       helper_size="0"
       apply_no_weight="true"
       apply_with_weight="true"
       only_selected="false" />
    <inkscape:path-effect
       effect="bspline"
       id="path-effect9316"
       is_visible="true"
       lpeversion="1"
       weight="33.333333"
       steps="2"
       helper_size="0"
       apply_no_weight="true"
       apply_with_weight="true"
       only_selected="false" />
    <inkscape:path-effect
       effect="bspline"
       id="path-effect8844"
       is_visible="true"
       lpeversion="1"
       weight="33.333333"
       steps="2"
       helper_size="0"
       apply_no_weight="true"
       apply_with_weight="true"
       only_selected="false" />
    <inkscape:path-effect
       effect="bspline"
       id="path-effect8652"
       is_visible="true"
       lpeversion="1"
       weight="33.333333"
       steps="2"
       helper_size="0"
       apply_no_weight="true"
       apply_with_weight="true"
       only_selected="false" />
  </defs>
  <g
     inkscape:label="Layer 1"
     inkscape:groupmode="layer"
     id="layer1">
    <path
       style="color:#000000;fill:#f26522;stroke-dasharray:22.7616, 11.3808;stroke-dashoffset:15.9331;-inkscape-stroke:none;fill-opacity:0.80000001"
       d="m 210.28202,27.972568 -4.5909,3.534351 6.93997,9.018921 4.59287,-3.534253 z m -13.61178,10.47423 -18.03794,13.881904 6.94193,9.01902 18.03794,-13.881904 z m -27.05696,20.823832 -18.03794,13.881905 6.94193,9.019018 18.03794,-13.881904 z m -27.05696,20.823832 -18.03794,13.881905 6.94192,9.019023 18.03795,-13.881908 z m -27.05686,20.821878 -18.038028,13.88386 6.939968,9.01892 18.03999,-13.88376 z m -27.05695,20.82384 -18.03794,13.8819 6.939976,9.01892 18.037941,-13.88191 z m -27.05696,20.82383 -18.037941,13.8819 6.939977,9.01892 18.03794,-13.8819 z m -27.05696,20.82383 -18.039892,13.8818 6.941927,9.01903 18.037941,-13.88191 z m -27.0588124,20.82178 -5.4106703,4.16597 6.9419266,9.01903 5.4106701,-4.16598 z"
       id="path4275" />
    <path
       id="path4931"
       style="color:#000000;fill:#9aa7b0;stroke-width:3.77953;-inkscape-stroke:none;fill-opacity:1"
       d="M 205.47852 98.525391 A 75.562528 75.562528 0 0 1 206.31836 109.73047 A 75.562528 75.562528 0 0 1 198.39844 143.3457 L 437.53906 188.52344 A 75.562529 75.562529 0 0 1 452.07031 145.11133 L 205.47852 98.525391 z M 96.078125 176.80859 L 97.662109 411.25977 A 75.56253 75.56253 0 0 1 118.27148 408.03711 A 75.56253 75.56253 0 0 1 143.02734 412.25391 L 141.48633 184.50977 A 75.562528 75.562528 0 0 1 130.75586 185.29297 A 75.562528 75.562528 0 0 1 96.078125 176.80859 z M 442.61523 214.30664 L 169.08594 427.75 A 75.56253 75.56253 0 0 1 192.02734 467.375 L 470.27539 250.24805 A 75.562529 75.562529 0 0 1 442.61523 214.30664 z "
       transform="scale(0.26458333)" />
    <path
       style="color:#000000;fill:#40b6e0;stroke-dashoffset:63.4959;-inkscape-stroke:none;fill-opacity:1"
       d="m 132.78906,30.433594 c -11.45777,0 -20.875,9.41723 -20.875,20.875 0,11.45777 9.41723,20.875 20.875,20.875 11.45777,0 20.875,-9.41723 20.875,-20.875 0,-11.45777 -9.41723,-20.875 -20.875,-20.875 z m 0,12 c 4.9725,0 8.875,3.902505 8.875,8.875 0,4.972495 -3.9025,8.875 -8.875,8.875 -4.97249,0 -8.875,-3.902505 -8.875,-8.875 0,-4.972495 3.90251,-8.875 8.875,-8.875 z"
       id="path5184" />
    <path
       style="color:#000000;fill:#40b6e0;stroke-dashoffset:63.4959;-inkscape-stroke:none;fill-opacity:1"
       d="m 35.238281,10.539063 c -11.45777,0 -20.875,9.417229 -20.875,20.874999 0,11.457771 9.41723,20.873047 20.875,20.873047 11.45777,0 20.875,-9.415276 20.875,-20.873047 0,-11.45777 -9.41723,-20.874999 -20.875,-20.874999 z m 0,11.999999 c 4.972495,0 8.875,3.902505 8.875,8.875 0,4.972496 -3.902505,8.873047 -8.875,8.873047 -4.972495,0 -8.875,-3.900551 -8.875,-8.873047 0,-4.972495 3.902505,-8.875 8.875,-8.875 z"
       id="path5184-9" />
    <path
       style="color:#000000;fill:#40b6e0;stroke-dashoffset:63.4959;-inkscape-stroke:none;fill-opacity:1"
       d="m 37.542969,97.855469 c -11.45777,0 -20.875,9.417231 -20.875,20.875001 0,11.45777 9.41723,20.875 20.875,20.875 11.45777,0 20.875,-9.41723 20.875,-20.875 0,-11.45777 -9.41723,-20.875001 -20.875,-20.875001 z m 0,12.000001 c 4.972495,0 8.875,3.9025 8.875,8.875 0,4.97249 -3.902505,8.875 -8.875,8.875 -4.972495,0 -8.875,-3.90251 -8.875,-8.875 0,-4.9725 3.902505,-8.875 8.875,-8.875 z"
       id="path5184-1" />
    <path
       id="path4931-3"
       style="color:#000000;fill:#9aa7b0;stroke-width:1;-inkscape-stroke:none;fill-opacity:1"
       d="m 159.2022,203.76812 a 19.992585,19.992585 0 0 1 -0.2322,-2.96391 19.992585,19.992585 0 0 1 2.06552,-8.90103 L 97.723025,180.16302 a 19.992586,19.992586 0 0 1 -3.806018,11.49901 z m 28.87561,-20.80977 -0.62799,-62.03011 a 19.992586,19.992586 0 0 1 -5.44999,0.87101 19.992586,19.992586 0 0 1 -6.5537,-1.09363 l 0.61063,60.25559 a 19.992585,19.992585 0 0 1 2.83839,-0.21678 19.992585,19.992585 0 0 1 9.18266,2.21392 z m -91.720809,-9.61256 72.180689,-56.71694 a 19.992586,19.992586 0 0 1 -6.10518,-10.46364 l -73.425881,57.69578 a 19.992586,19.992586 0 0 1 7.350372,9.4848 z" />
    <path
       style="color:#000000;fill:#40b6e0;stroke-dashoffset:63.4959;-inkscape-stroke:none;fill-opacity:1"
       d="m -80.091797,-199.9375 c -11.45777,0 -20.875003,9.41723 -20.875003,20.875 0,11.45777 9.417233,20.875 20.875003,20.875 11.45777,0 20.875,-9.41723 20.875,-20.875 0,-11.45777 -9.41723,-20.875 -20.875,-20.875 z m 0,12 c 4.972495,0 8.875,3.9025 8.875,8.875 0,4.9725 -3.902505,8.875 -8.875,8.875 -4.972495,0 -8.875,-3.9025 -8.875,-8.875 0,-4.9725 3.902505,-8.875 8.875,-8.875 z"
       id="path5184-91"
       transform="rotate(179.80707)" />
    <path
       style="color:#000000;fill:#40b6e0;stroke-dashoffset:63.4959;-inkscape-stroke:none;fill-opacity:1"
       d="m -177.64453,-219.83203 c -11.45777,0 -20.87305,9.41528 -20.87305,20.87305 0,11.45777 9.41528,20.875 20.87305,20.875 11.45777,0 20.875,-9.41723 20.875,-20.875 0,-11.45777 -9.41723,-20.87305 -20.875,-20.87305 z m 0,12 c 4.97249,0 8.875,3.90055 8.875,8.87305 0,4.97249 -3.90251,8.875 -8.875,8.875 -4.9725,0 -8.87305,-3.90251 -8.87305,-8.875 0,-4.9725 3.90055,-8.87305 8.87305,-8.87305 z"
       id="path5184-9-0"
       transform="rotate(179.80707)" />
    <path
       style="color:#000000;fill:#40b6e0;stroke-dashoffset:63.4959;-inkscape-stroke:none;fill-opacity:1"
       d="m -175.33789,-132.51562 c -11.45777,0 -20.875,9.41722 -20.875,20.87499 0,11.45778 9.41723,20.875005 20.875,20.875005 11.45777,0 20.875,-9.417225 20.875,-20.875005 0,-11.45777 -9.41723,-20.875 -20.875,-20.87499 z m 0,11.99999 c 4.97249,0 8.875,3.90251 8.875,8.875 0,4.9725 -3.90251,8.875 -8.875,8.875 -4.9725,0 -8.875,-3.9025 -8.875,-8.875 0,-4.97249 3.9025,-8.875 8.875,-8.875 z"
       id="path5184-1-4"
       transform="rotate(179.80707)" />
  </g>
</svg>
