<?xml version="1.0" encoding="UTF-8" standalone="no"?>
<!-- Created with Inkscape (http://www.inkscape.org/) -->

<svg
   width="220mm"
   height="220mm"
   viewBox="0 0 220 220"
   version="1.1"
   id="svg8594"
   inkscape:version="1.1.1 (3bf5ae0d25, 2021-09-20)"
   sodipodi:docname="zgeometry-evaluate-expression.svg"
   xmlns:inkscape="http://www.inkscape.org/namespaces/inkscape"
   xmlns:sodipodi="http://sodipodi.sourceforge.net/DTD/sodipodi-0.dtd"
   xmlns="http://www.w3.org/2000/svg"
   xmlns:svg="http://www.w3.org/2000/svg">
  <sodipodi:namedview
     id="namedview8596"
     pagecolor="#ffffff"
     bordercolor="#666666"
     borderopacity="1.0"
     inkscape:pageshadow="2"
     inkscape:pageopacity="0.0"
     inkscape:pagecheckerboard="0"
     inkscape:document-units="mm"
     showgrid="false"
     width="220mm"
     inkscape:zoom="0.76095916"
     inkscape:cx="348.90177"
     inkscape:cy="416.57952"
     inkscape:window-width="1440"
     inkscape:window-height="872"
     inkscape:window-x="0"
     inkscape:window-y="28"
     inkscape:window-maximized="0"
     inkscape:current-layer="text9654" />
  <defs
     id="defs8591">
    <inkscape:path-effect
       effect="bspline"
       id="path-effect9344"
       is_visible="true"
       lpeversion="1"
       weight="33.333333"
       steps="2"
       helper_size="0"
       apply_no_weight="true"
       apply_with_weight="true"
       only_selected="false" />
    <inkscape:path-effect
       effect="bspline"
       id="path-effect9316"
       is_visible="true"
       lpeversion="1"
       weight="33.333333"
       steps="2"
       helper_size="0"
       apply_no_weight="true"
       apply_with_weight="true"
       only_selected="false" />
    <inkscape:path-effect
       effect="bspline"
       id="path-effect8844"
       is_visible="true"
       lpeversion="1"
       weight="33.333333"
       steps="2"
       helper_size="0"
       apply_no_weight="true"
       apply_with_weight="true"
       only_selected="false" />
    <inkscape:path-effect
       effect="bspline"
       id="path-effect8652"
       is_visible="true"
       lpeversion="1"
       weight="33.333333"
       steps="2"
       helper_size="0"
       apply_no_weight="true"
       apply_with_weight="true"
       only_selected="false" />
  </defs>
  <g
     inkscape:label="Layer 1"
     inkscape:groupmode="layer"
     id="layer1">
    <g
       aria-label="a+b"
       transform="scale(0.90389467,1.1063236)"
       id="text9654"
       style="font-size:109.289px;stroke-width:2.73223">
      <path
         d="m 44.455387,133.98615 v -12.48712 q -3.895555,0.32018 -8.431476,0.90718 -4.53592,0.53364 -6.883926,1.28073 -2.881644,0.90719 -4.429193,2.66819 -1.494186,1.70764 -1.494186,4.53592 0,1.86773 0.320183,3.04174 0.320183,1.174 1.600913,2.24127 1.227367,1.06728 2.935007,1.60092 1.707641,0.48027 5.336377,0.48027 2.881644,0 5.816651,-1.174 2.988372,-1.174 5.22965,-3.0951 z m 0,9.2853 q -1.547549,1.174 -3.842192,2.82828 -2.294642,1.65427 -4.322465,2.61482 -2.82828,1.28073 -5.870015,1.86773 -3.041735,0.64037 -6.670471,0.64037 -8.538203,0 -14.3014904,-5.28302 -5.7632872,-5.28301 -5.7632872,-13.50103 0,-6.56374 2.9350074,-10.72612 2.9350073,-4.16237 8.3247482,-6.56374 5.336377,-2.40137 13.234215,-3.41528 7.897838,-1.01391 16.382677,-1.49419 v -0.32018 q 0,-4.96283 -4.055646,-6.83056 -4.055647,-1.9211 -11.953485,-1.9211 -4.749375,0 -10.139116,1.70764 -5.389741,1.65428 -7.737747,2.56146 H 8.9151159 V 90.974951 q 3.0417351,-0.800456 9.8722971,-1.867732 6.883927,-1.120639 13.767853,-1.120639 16.382678,0 23.64015,5.069558 7.310837,5.016195 7.310837,15.795672 v 40.76992 H 44.455387 Z"
         style="-inkscape-font-specification:'sans-serif, Bold';fill:#40b6e0;fill-opacity:1"
         id="path14554" />
      <path
         d="m 155.23858,121.44566 h -28.44289 v 28.17607 H 112.17401 V 121.44566 H 83.731124 V 107.14417 H 112.17401 V 78.968103 h 14.62168 v 28.176067 h 28.44289 z"
         style="-inkscape-font-specification:'sans-serif, Bold';fill:#9aa7b0;fill-opacity:1"
         id="path14551" />
      <path
         d="m 238.48606,118.83084 q 0,14.1414 -7.84448,23.05315 -7.79111,8.91175 -19.47777,8.91175 -5.0162,0 -8.80502,-1.06728 -3.78883,-1.06727 -7.20411,-3.0951 l -0.80046,2.98837 h -18.4105 V 66.587708 h 19.21096 v 29.350074 q 4.42919,-3.522009 9.01847,-5.709924 4.64265,-2.187914 10.67276,-2.187914 11.36648,0 17.50331,8.21802 6.13684,8.164656 6.13684,22.572876 z m -19.79796,0.37355 q 0,-8.00457 -2.72155,-12.32704 -2.72156,-4.32246 -9.71221,-4.32246 -2.72155,0 -5.6032,0.85382 -2.88164,0.80046 -5.49646,2.34801 v 30.09716 q 2.08118,0.74709 3.94892,1.01391 1.86773,0.26682 4.48255,0.26682 7.63102,0 11.36648,-4.48255 3.73547,-4.48256 3.73547,-13.44767 z"
         style="-inkscape-font-specification:'sans-serif, Bold';fill:#40b6e0;fill-opacity:1"
         id="path14548" />
    </g>
  </g>
</svg>
