<?xml version="1.0" encoding="UTF-8" standalone="no"?>
<!-- Created with Inkscape (http://www.inkscape.org/) -->

<svg
   width="220mm"
   height="220mm"
   viewBox="0 0 220 220"
   version="1.1"
   id="svg8594"
   inkscape:version="1.1.1 (3bf5ae0d25, 2021-09-20)"
   sodipodi:docname="zgeometry-circle-3-points.svg"
   xmlns:inkscape="http://www.inkscape.org/namespaces/inkscape"
   xmlns:sodipodi="http://sodipodi.sourceforge.net/DTD/sodipodi-0.dtd"
   xmlns="http://www.w3.org/2000/svg"
   xmlns:svg="http://www.w3.org/2000/svg">
  <sodipodi:namedview
     id="namedview8596"
     pagecolor="#ffffff"
     bordercolor="#666666"
     borderopacity="1.0"
     inkscape:pageshadow="2"
     inkscape:pageopacity="0.0"
     inkscape:pagecheckerboard="0"
     inkscape:document-units="mm"
     showgrid="false"
     width="220mm"
     inkscape:zoom="0.76095916"
     inkscape:cx="275.31044"
     inkscape:cy="445.4904"
     inkscape:window-width="1440"
     inkscape:window-height="872"
     inkscape:window-x="0"
     inkscape:window-y="28"
     inkscape:window-maximized="0"
     inkscape:current-layer="layer1" />
  <defs
     id="defs8591">
    <inkscape:path-effect
       effect="bspline"
       id="path-effect9344"
       is_visible="true"
       lpeversion="1"
       weight="33.333333"
       steps="2"
       helper_size="0"
       apply_no_weight="true"
       apply_with_weight="true"
       only_selected="false" />
    <inkscape:path-effect
       effect="bspline"
       id="path-effect9316"
       is_visible="true"
       lpeversion="1"
       weight="33.333333"
       steps="2"
       helper_size="0"
       apply_no_weight="true"
       apply_with_weight="true"
       only_selected="false" />
    <inkscape:path-effect
       effect="bspline"
       id="path-effect8844"
       is_visible="true"
       lpeversion="1"
       weight="33.333333"
       steps="2"
       helper_size="0"
       apply_no_weight="true"
       apply_with_weight="true"
       only_selected="false" />
    <inkscape:path-effect
       effect="bspline"
       id="path-effect8652"
       is_visible="true"
       lpeversion="1"
       weight="33.333333"
       steps="2"
       helper_size="0"
       apply_no_weight="true"
       apply_with_weight="true"
       only_selected="false" />
  </defs>
  <g
     inkscape:label="Layer 1"
     inkscape:groupmode="layer"
     id="layer1">
    <path
       id="path4019"
       style="color:#000000;fill:#9aa7b0;stroke-width:3.77953;stroke-linecap:round;-inkscape-stroke:none;fill-opacity:1"
       inkscape:transform-center-y="1.0374636"
       d="M 348.56836 82.712891 C 172.69034 102.9395 35.621094 252.74748 35.621094 433.94922 C 35.621094 491.0137 49.231893 544.95715 73.349609 592.73242 A 110.44495 110.44495 0 0 1 120.03125 559.58594 C 102.25486 521.45247 92.314453 478.89313 92.314453 433.94922 C 92.314453 287.03452 198.32317 165.49526 338.22266 141.4082 A 112.3582 112.3582 0 0 1 337.67383 130.92969 A 112.3582 112.3582 0 0 1 348.56836 82.712891 z M 562.26367 125.7168 A 112.3582 112.3582 0 0 1 562.39062 130.92969 A 112.3582 112.3582 0 0 1 549.18164 183.62109 C 631.59898 236.30397 686.09961 328.60684 686.09961 433.94922 C 686.09961 435.08449 686.0263 436.20177 686.01367 437.33398 A 112.3582 112.3582 0 0 1 741.90234 457.74805 C 742.42895 449.87324 742.79297 441.95494 742.79297 433.94922 C 742.79297 301.82871 669.91414 186.40387 562.26367 125.7168 z M 606.2207 636.7207 C 552.08427 694.65375 474.9946 730.84766 389.20703 730.84766 C 343.50777 730.84766 300.26983 720.57842 261.64844 702.23438 A 110.44495 110.44495 0 0 1 228.1582 748.67578 C 276.48795 773.51212 331.24165 787.54102 389.20703 787.54102 C 498.04256 787.54102 595.52678 738.0625 660.44336 660.45703 A 112.3582 112.3582 0 0 1 606.2207 636.7207 z "
       transform="scale(0.26458333)" />
    <path
       style="color:#000000;fill:#40b6e0;stroke-linecap:round;-inkscape-stroke:none;fill-opacity:1"
       d="m 118.62695,5.4667969 c -16.23555,0 -29.556638,13.3230741 -29.556638,29.5585941 0,16.23552 13.321088,29.55664 29.556638,29.55664 16.23555,0 29.5586,-13.32112 29.5586,-29.55664 0,-16.23552 -13.32305,-29.5585941 -29.5586,-29.5585941 z m 0,15.0000001 c 8.12902,0 14.5586,6.429729 14.5586,14.558594 0,8.128864 -6.42958,14.55664 -14.5586,14.55664 -8.12902,0 -14.55664,-6.427776 -14.55664,-14.55664 0,-8.128865 6.42762,-14.558594 14.55664,-14.558594 z"
       id="path2789-9" />
    <path
       style="color:#000000;fill:#40b6e0;stroke-linecap:round;-inkscape-stroke:none;fill-opacity:1"
       d="m 179.08008,115.61328 c -16.23555,0 -29.5586,13.32307 -29.5586,29.55859 0,16.23553 13.32305,29.55665 29.5586,29.55665 16.23555,0 29.55664,-13.32112 29.55664,-29.55665 0,-16.23552 -13.32109,-29.55859 -29.55664,-29.55859 z m 0,15 c 8.12902,0 14.55664,6.42973 14.55664,14.55859 0,8.12887 -6.42762,14.55665 -14.55664,14.55665 -8.12902,0 -14.5586,-6.42778 -14.5586,-14.55665 0,-8.12886 6.42958,-14.55859 14.5586,-14.55859 z"
       id="path2789-9-00" />
    <path
       style="color:#000000;fill:#40b6e0;stroke-linecap:round;-inkscape-stroke:none;fill-opacity:1"
       d="m 41.804687,145.77148 c -16.235489,0 -29.558593,13.32311 -29.558593,29.5586 0,16.23549 13.323104,29.55859 29.558593,29.55859 16.23549,0 29.558594,-13.3231 29.558594,-29.55859 0,-16.23549 -13.323104,-29.5586 -29.558594,-29.5586 z m 0,15 c 8.128896,0 14.558594,6.4297 14.558594,14.5586 0,8.12889 -6.429698,14.55859 -14.558594,14.55859 -8.128895,0 -14.558593,-6.4297 -14.558593,-14.55859 0,-8.1289 6.429698,-14.5586 14.558593,-14.5586 z"
       id="path2789-9-0" />
  </g>
</svg>
