<?xml version="1.0" encoding="UTF-8" standalone="no"?>
<!-- Created with Inkscape (http://www.inkscape.org/) -->

<svg
   width="220mm"
   height="220mm"
   viewBox="0 0 220 220"
   version="1.1"
   id="svg8594"
   inkscape:version="1.1.1 (c3084ef, 2021-09-22)"
   sodipodi:docname="zgeometry-list-of-shapes.svg"
   xmlns:inkscape="http://www.inkscape.org/namespaces/inkscape"
   xmlns:sodipodi="http://sodipodi.sourceforge.net/DTD/sodipodi-0.dtd"
   xmlns="http://www.w3.org/2000/svg"
   xmlns:svg="http://www.w3.org/2000/svg">
  <sodipodi:namedview
     id="namedview8596"
     pagecolor="#ffffff"
     bordercolor="#666666"
     borderopacity="1.0"
     inkscape:pageshadow="2"
     inkscape:pageopacity="0.0"
     inkscape:pagecheckerboard="0"
     inkscape:document-units="mm"
     showgrid="false"
     width="220mm"
     inkscape:zoom="0.76095916"
     inkscape:cx="426.4355"
     inkscape:cy="628.81167"
     inkscape:window-width="1440"
     inkscape:window-height="759"
     inkscape:window-x="0"
     inkscape:window-y="25"
     inkscape:window-maximized="0"
     inkscape:current-layer="layer1" />
  <defs
     id="defs8591">
    <inkscape:path-effect
       effect="bspline"
       id="path-effect9344"
       is_visible="true"
       lpeversion="1"
       weight="33.333333"
       steps="2"
       helper_size="0"
       apply_no_weight="true"
       apply_with_weight="true"
       only_selected="false" />
    <inkscape:path-effect
       effect="bspline"
       id="path-effect9316"
       is_visible="true"
       lpeversion="1"
       weight="33.333333"
       steps="2"
       helper_size="0"
       apply_no_weight="true"
       apply_with_weight="true"
       only_selected="false" />
    <inkscape:path-effect
       effect="bspline"
       id="path-effect8844"
       is_visible="true"
       lpeversion="1"
       weight="33.333333"
       steps="2"
       helper_size="0"
       apply_no_weight="true"
       apply_with_weight="true"
       only_selected="false" />
    <inkscape:path-effect
       effect="bspline"
       id="path-effect8652"
       is_visible="true"
       lpeversion="1"
       weight="33.333333"
       steps="2"
       helper_size="0"
       apply_no_weight="true"
       apply_with_weight="true"
       only_selected="false" />
  </defs>
  <g
     inkscape:label="Layer 1"
     inkscape:groupmode="layer"
     id="layer1">
    <path
       id="path6071"
       style="color:#000000;fill:#9aa7b0;stroke-width:1.05407;-inkscape-stroke:none;fill-opacity:1"
       d="M 24.140645,32.659028 V 40.71129 214.5007 H 199.42824 V 32.659028 h -43.5406 v 16.103973 h 28.01754 V 198.39673 H 39.664231 V 48.763001 H 69.168514 V 32.659028 Z" />
    <path
       id="rect5572"
       style="color:#000000;fill:#f26522;stroke-width:1.05407;-inkscape-stroke:none;fill-opacity:0.80000001"
       d="m 51.8464,6.5282831 v 8.9809859 32.134159 h 17.322114 v -17.96364 h -0.0059 V 24.49192 h 0.0059 v -6.337954 h 86.719126 v 29.489462 h 17.27398 V 6.5282831 Z" />
    <path
       style="color:#000000;fill:#f26522;-inkscape-stroke:none;fill-opacity:0.80000001"
       d="M 69.167969,27.388672 V 37.929687 H 155.88672 V 27.388672 Z"
       id="path6117" />
    <ellipse
       style="fill:#9aa7b0;fill-opacity:1;stroke:none;stroke-width:10.5407;stroke-miterlimit:4;stroke-dasharray:none"
       id="path6221"
       cx="64.466866"
       cy="75.98555"
       rx="12.414167"
       ry="12.878302" />
    <rect
       style="fill:#40b6e0;fill-opacity:0.80000001;stroke:none;stroke-width:10.5407;stroke-miterlimit:4;stroke-dasharray:none"
       id="rect6245"
       width="20.510365"
       height="21.277193"
       x="54.163151"
       y="100.28487" />
    <path
       style="color:#000000;fill:#40b6e0;fill-rule:evenodd;-inkscape-stroke:none;fill-opacity:0.80000001"
       d="m 216.23828,590.80469 c -8.26843,0.57625 -16.28954,4.26516 -21.97266,11.10547 -10.19778,12.27425 -9.16593,31.25631 3.46094,41.59765 11.20134,9.17383 28.45201,8.18758 37.76563,-3.39062 8.14764,-10.12873 7.20087,-25.6518 -3.33594,-33.9336 -9.05663,-7.11839 -22.85789,-6.20946 -30.10156,3.29688 -6.08478,7.98545 -5.21018,20.07439 3.2832,26.26953 6.91616,5.04471 17.31387,4.19651 22.44141,-3.31445 3.99469,-5.85154 3.15699,-14.59822 -3.43164,-18.61719 -2.40131,-1.46476 -5.20431,-1.95317 -7.92579,-1.42969 -2.72147,0.52349 -5.47713,2.27405 -6.875,5.17774 -0.92708,1.92577 -1.09396,3.96842 -0.49218,6.04882 0.60177,2.08041 2.50441,4.37544 5.21484,4.89649 2.26438,0.4353 3.24939,-0.11241 4.66406,-1.18164 0.70734,-0.53462 1.6036,-1.39622 1.88868,-2.96289 0.28507,-1.56668 -0.54099,-3.31378 -1.44336,-4.16602 l -5.09375,5.39453 c -0.30938,-0.29218 -0.95532,-1.49271 -0.76172,-2.55664 0.19359,-1.06392 0.72671,-1.46764 0.9375,-1.62695 0.42156,-0.31863 -0.11846,-0.44073 1.20898,-0.18555 0.1714,0.033 0.55461,0.47443 0.51172,0.32617 -0.0429,-0.14825 0.0216,-0.70894 0.0508,-0.76953 0.31265,-0.64944 0.75699,-0.94917 1.58985,-1.10937 0.83285,-0.1602 1.93639,0.0339 2.6621,0.47656 2.58943,1.57951 2.95091,5.49183 1.16797,8.10352 -2.57313,3.76919 -8.2126,4.22515 -11.94336,1.5039 -4.90468,-3.57751 -5.43659,-10.94821 -1.7539,-15.78125 4.58604,-6.01857 13.68862,-6.61917 19.61523,-1.96094 7.12043,5.59657 7.78357,16.43617 2.14063,23.45118 -6.60816,8.21492 -19.18314,8.93664 -27.28321,2.30273 -9.3046,-7.62042 -10.08441,-21.93437 -2.45507,-31.11719 8.6331,-10.39096 24.68726,-11.22571 34.95117,-2.59765 11.47494,9.64608 12.36365,27.43943 2.73437,38.7832 l 5.65625,4.80078 c 12.24109,-14.42062 11.12086,-36.87455 -3.61718,-49.26367 -6.67369,-5.61004 -15.19056,-8.14657 -23.45899,-7.57031 z"
       id="path6558"
       transform="matrix(0.42798845,0,0,0.42449591,-28.93009,-86.520399)" />
    <path
       sodipodi:type="star"
       style="fill:#9aa7b0;fill-opacity:1;stroke:none;stroke-width:11.3386;stroke-miterlimit:4;stroke-dasharray:none"
       id="path6822"
       inkscape:flatsided="false"
       sodipodi:sides="5"
       sodipodi:cx="205.00443"
       sodipodi:cy="487.5426"
       sodipodi:r1="48.888496"
       sodipodi:r2="24.444248"
       sodipodi:arg1="0.63274884"
       sodipodi:arg2="1.2610674"
       inkscape:rounded="0"
       inkscape:randomized="0"
       d="m 244.42835,516.45348 -31.97331,-5.62978 -22.76383,23.14724 -4.52606,-32.14812 -29.04874,-14.49681 29.17605,-14.23885 4.81073,-32.10675 22.55784,23.34802 32.02194,-5.34626 -15.23454,28.66873 z"
       transform="matrix(0.27381667,0,0,0.28405396,7.4336603,6.3680681)"
       inkscape:transform-center-x="1.2608539"
       inkscape:transform-center-y="-0.01901466" />
    <path
       style="color:#000000;fill:#9aa7b0;-inkscape-stroke:none;fill-opacity:1"
       d="m 100.86523,71.931641 c -0.71911,-0.05952 -1.473112,0.01483 -2.175777,0.257812 -1.703993,0.589232 -2.683218,1.806176 -3.439453,2.896484 -0.756235,1.090309 -1.328757,2.194059 -1.863281,3.06836 -0.534525,0.874301 -1.054742,1.465819 -1.236328,1.591797 -0.181587,0.125978 0.204074,0.143539 -0.226563,-0.03516 0.104212,0.04324 -0.904213,-0.800477 -1.632812,-1.898437 -0.728599,-1.09796 -1.287669,-2.208262 -1.837891,-3.064453 l -4.433594,2.849609 c 0.174502,0.271539 0.952868,1.730473 1.88086,3.128906 0.927991,1.398434 1.895186,2.976539 4.003906,3.851563 1.769936,0.734444 3.919963,0.420779 5.25,-0.501953 1.330037,-0.922732 2.070377,-2.097338 2.728515,-3.173828 0.658139,-1.076491 1.209809,-2.109705 1.697266,-2.8125 0.487462,-0.702796 0.871312,-0.933506 0.832032,-0.919922 0.16919,-0.05851 -0.0907,-0.05767 -0.0137,-0.01758 0.077,0.04009 0.4055,0.298021 0.79101,0.771484 0.77104,0.946926 1.3822,2.623057 3.49414,3.875 1.32636,0.786252 2.77689,1.406353 4.31055,1.785156 0.87336,0.215719 2.03423,0.371784 3.42188,0.433594 1.38764,0.06181 2.7828,0.177335 4.45117,-0.609375 2.11223,-0.995997 3.10412,-2.566893 4.01953,-3.458984 0.4577,-0.446046 0.84036,-0.720651 1.03906,-0.8125 0.1987,-0.09185 0.15066,-0.09312 0.35156,-0.04102 0.0496,0.01287 0.79651,0.788451 2.4375,1.882813 2.57451,1.716915 6.08124,4.464776 10.62891,4.169921 2.82912,-0.183431 5.00555,-1.768227 7.08789,-3.351562 1.9434,-1.477693 3.63999,-3.032185 4.8457,-4.03125 1.40575,0.02747 2.65821,0.65008 4.32227,1.978516 1.90809,1.523247 4.01776,3.733037 7.13672,4.875 4.2184,1.54451 7.89498,0.190732 10.17578,-1.6875 2.2808,-1.878233 3.80551,-3.853265 5.61719,-4.792969 l -2.42774,-4.679688 c -3.15659,1.637302 -4.97238,4.11414 -6.53906,5.404297 -1.56668,1.290157 -2.24311,1.821045 -5.01367,0.806641 -1.61051,-0.589667 -3.44837,-2.277269 -5.66016,-4.042969 -2.21179,-1.7657 -5.16563,-3.671546 -8.89844,-3.1875 -1.08417,0.140572 -1.59976,0.742603 -1.85156,1.082031 -1.44658,1.181212 -3.15961,2.759419 -4.89648,4.080078 -1.79923,1.368073 -3.68033,2.250934 -4.23828,2.28711 -1.98515,0.128709 -4.69328,-1.514321 -7.36328,-3.294922 -0.54169,-0.361243 -1.5714,-1.95963 -4.03907,-2.599609 -1.37131,-0.355647 -2.81031,-0.138192 -3.88672,0.359375 -1.07641,0.497566 -1.85269,1.183785 -2.50586,1.820312 -1.30632,1.273055 -2.34018,2.349071 -2.58984,2.466797 0.1913,-0.09021 -0.9355,0.159305 -1.96875,0.113281 -1.03325,-0.04602 -2.19238,-0.23766 -2.39258,-0.287109 -0.97976,-0.241994 -1.96982,-0.657643 -2.88672,-1.201172 0.14874,0.08817 -0.90437,-1.207262 -2.09375,-2.667969 -0.59469,-0.730353 -1.31945,-1.535232 -2.44531,-2.121094 -0.56293,-0.29293 -1.24768,-0.485398 -1.9668,-0.544921 z"
       id="path7005" />
    <path
       style="color:#000000;fill:#40b6e0;-inkscape-stroke:none;fill-opacity:0.80000001"
       d="m 124.50586,104.8457 c -0.29109,0.0686 -0.43804,0.21394 -0.58594,0.27344 -0.2958,0.119 -0.48736,0.22896 -0.6875,0.3457 -0.40028,0.23349 -0.79478,0.50209 -1.24414,0.82032 -0.89873,0.63645 -1.97581,1.45906 -3.05859,2.29492 -1.08279,0.83586 -2.16782,1.68356 -3.01758,2.33008 -0.42488,0.32326 -0.79167,0.59556 -1.05078,0.77929 -0.25912,0.18374 -0.63236,0.33196 -0.12891,0.12305 -0.44561,0.18492 -1.17403,0.26872 -1.95703,0.1875 -1.19059,-0.12351 -1.41615,-0.21692 -1.79492,-0.30859 0.0399,-1.11647 -0.0738,-2.7827 -1.37891,-4.58789 -0.59969,-0.82944 -1.43814,-1.69015 -2.82617,-2.10157 -0.98605,-0.29224 -1.55414,-0.0744 -1.97461,0.0645 -0.42046,0.13888 -0.72911,0.30073 -1.02539,0.46875 -0.59255,0.33602 -1.11709,0.71801 -1.61133,1.09765 -0.98847,0.75928 -1.94519,1.6278 -1.85742,1.54883 -2.298772,2.06676 -5.483107,5.95532 -6.863281,7.89844 -0.399306,0.56217 -0.55372,0.92028 -0.716797,1.27344 -0.420403,-0.1672 -0.896198,-0.37044 -1.226562,-0.64063 0.07646,-0.0367 0.03144,-0.0151 0.140625,-0.0645 L 89.46875,111.8457 c -1.950541,0.88176 -3.565369,2.54855 -3.617188,4.58203 -0.05182,2.03349 1.118342,3.37487 2.228516,4.30665 1.110174,0.93177 2.363013,1.57088 3.701172,1.91796 0.66908,0.17355 1.36191,0.28169 2.164062,0.19922 0.802153,-0.0825 1.845601,-0.4136 2.59961,-1.32617 1.250965,-1.51402 1.306513,-2.54913 1.195312,-2.39258 0.985409,-1.38733 4.580796,-5.67451 6.089846,-7.03125 l 0.002,-0.002 c 0.15357,-0.13817 0.7716,-0.69459 1.54297,-1.28711 0.0783,-0.0601 0.12526,-0.0833 0.20313,-0.14062 0.26573,0.47456 0.12408,0.5901 0.0879,2.10546 -0.0118,0.49406 0.0638,1.27006 0.49218,2 0.42834,0.72995 1.10476,1.23134 1.71289,1.52344 1.21627,0.5842 2.41532,0.73953 4.36133,0.94141 1.37848,0.14299 2.94827,0.0915 4.51953,-0.56055 0.73401,-0.30457 0.80839,-0.44474 1.15625,-0.69141 0.34786,-0.24666 0.74718,-0.54576 1.19532,-0.88671 0.89627,-0.68191 1.98171,-1.52931 3.04687,-2.35157 0.9762,-0.75358 1.89705,-1.44828 2.64258,-1.98437 0.26714,0.43714 0.53918,0.97366 1.0625,1.68359 1.42328,1.93079 2.89858,4.00586 5.00586,5.625 2.10728,1.61915 5.01301,2.62338 8.29687,2.13672 1.92687,-0.28555 3.1646,-1.28802 4.50782,-2.34961 1.34321,-1.06159 2.67571,-2.30199 3.93945,-3.42187 1.26373,-1.11988 2.47764,-2.117 3.31055,-2.61719 0.30877,-0.18543 0.45049,-0.2273 0.58203,-0.27539 2.375,1.40694 4.09375,2.83029 6.15234,4.09765 2.17867,1.3413 4.87565,2.35547 8.46875,2.35547 0.91926,0 2.53222,0.26101 4.38672,-0.63672 2.54692,-1.23299 3.43959,-3.16118 4.06836,-3.65039 l -3.23633,-4.16015 c -1.95311,1.51961 -2.75125,2.88358 -3.12891,3.0664 -0.11398,0.0552 -0.83684,0.11133 -2.08984,0.11133 -2.72515,0 -4.03927,-0.54671 -5.70508,-1.57226 -1.66581,-1.02556 -3.61772,-2.69073 -6.66211,-4.42774 -1.03534,-0.59073 -2.23677,-0.62889 -3.15625,-0.43164 -0.91948,0.19725 -1.67267,0.57353 -2.39258,1.00586 -1.43981,0.86467 -2.76892,2.01912 -4.09179,3.19141 -1.32288,1.17229 -2.61909,2.36445 -3.71485,3.23047 -1.09575,0.86601 -2.10879,1.28587 -2.01171,1.27148 -1.97998,0.29343 -3.04784,-0.13135 -4.31055,-1.10156 -1.26271,-0.97022 -2.55382,-2.64416 -3.97656,-4.57422 -0.19167,-0.26002 -0.56129,-0.97778 -1.13672,-1.82227 -0.57544,-0.84448 -1.4858,-1.94055 -3.00196,-2.46484 -0.72718,-0.25146 -1.16203,-0.26002 -1.45312,-0.19141 z"
       id="path7042" />
    <path
       style="color:#000000;fill:#9aa7b0;-inkscape-stroke:none;fill-opacity:1"
       d="m 124.01953,136.99609 c -2.74871,0 -4.90699,1.46371 -6.54101,2.97657 -1.63403,1.51286 -2.8903,3.22078 -3.79883,4.36523 -0.57441,0.7236 -0.79813,1.32473 -0.95703,1.64258 -0.1589,0.31784 -0.21572,0.29114 -0.006,0.13281 -0.77105,0.58173 -1.65654,0.58214 -2.97266,0.0254 -1.31612,-0.55675 -2.71048,-1.79152 -3.29883,-2.70703 -0.50431,-0.78474 -0.92735,-1.62889 -1.32812,-2.48047 0.002,-0.0669 0.0178,-0.05 0.0156,-0.1289 -0.0157,-0.57806 -0.43453,-1.70532 -1.20508,-2.23829 v -0.002 c -0.8505,-0.58819 -1.74614,-0.60743 -2.25195,-0.5625 -0.50581,0.0449 -0.79059,0.13572 -0.86133,0.15039 -0.57845,0.12002 -1.523794,0.1769 -2.652341,0.39063 -1.128547,0.21373 -2.580958,0.6428 -3.748047,1.85351 -0.7358,0.76332 -1.782723,2.00819 -2.55664,3.64844 -0.297459,-0.77996 -0.511587,-1.29687 -1.054688,-2.51758 l -4.814453,2.14258 c 0.525902,1.18205 0.797679,3.37928 2.544922,5.4707 0.948574,1.13543 2.248032,1.77064 3.681641,1.8125 1.433608,0.0419 3.198683,-0.79618 3.951172,-2.35742 0.470314,-0.97579 0.353846,-1.69686 0.28125,-2.0957 0.167583,-0.32816 1.167823,-1.82921 1.761718,-2.44531 0.06781,-0.0703 0.280173,-0.21024 0.933594,-0.33399 0.332731,-0.063 0.923422,-0.14824 1.396482,-0.20703 0.45684,0.93593 0.91072,1.87558 1.47266,2.75 1.27713,1.98733 3.25656,3.68785 5.67969,4.71289 2.42313,1.02504 5.64222,1.25533 8.19922,-0.67383 0.90935,-0.68607 1.2965,-1.48746 1.54492,-1.98437 0.24842,-0.49691 0.39567,-0.75167 0.37109,-0.72071 0.98983,-1.24686 2.10661,-2.71316 3.25391,-3.77539 0.87672,-0.81171 1.64517,-1.20433 2.32617,-1.39062 0.4761,0.39895 1.0883,0.92878 1.72266,1.48437 0.66679,0.58401 1.34172,1.18104 1.88867,1.65821 0.27347,0.23858 0.51322,0.44516 0.71484,0.61523 0.20163,0.17008 0.18224,0.20459 0.65625,0.50391 0.90162,0.56933 2.28062,1.27993 3.86133,1.95703 1.58071,0.6771 3.15825,1.32282 4.9414,1.43164 3.66911,0.2239 6.5292,-1.51932 8.80274,-3.07227 2.27354,-1.55294 4.14955,-2.92893 5.96289,-3.33203 0.90054,-0.20018 1.79206,0.0736 3.21094,0.77344 1.41888,0.69983 3.13736,1.83248 5.48437,2.23828 2.46761,0.42664 4.4466,-0.15491 5.63086,-0.66211 1.18426,-0.50719 1.58975,-0.79297 3.09375,-0.79297 v -5.26953 c -2.46945,0 -4.20597,0.8048 -5.16797,1.2168 -0.96199,0.412 -1.1321,0.57831 -2.6582,0.31445 -0.9733,-0.16828 -2.33218,-0.92382 -4.05078,-1.77148 -1.71861,-0.84767 -4.02547,-1.78273 -6.68555,-1.19141 -3.33411,0.74117 -5.71681,2.70688 -7.79297,4.125 -2.07615,1.41812 -3.65832,2.27704 -5.50976,2.16406 -0.32205,-0.0197 -1.85133,-0.44522 -3.1875,-1.01757 -1.33618,-0.57236 -2.68255,-1.28949 -3.1211,-1.56641 0.36192,0.22853 0.0866,0.0578 -0.0723,-0.0762 -0.15888,-0.13402 -0.38523,-0.33092 -0.64844,-0.56055 -0.52642,-0.45926 -1.20291,-1.05662 -1.88086,-1.65039 -0.67794,-0.59377 -1.35355,-1.18213 -1.9082,-1.64453 -0.27733,-0.2312 -0.52104,-0.42716 -0.75586,-0.60352 -0.11741,-0.0882 -0.22625,-0.16949 -0.39258,-0.27343 -0.0832,-0.052 -0.17521,-0.1108 -0.34766,-0.19141 -0.17244,-0.0806 -0.33465,-0.25977 -1.1582,-0.25977 z m -18.96289,4.42383 c -0.002,0.34235 -0.0828,0.49591 -0.043,0.3457 0.0121,-0.0456 0.0215,-0.258 0.043,-0.3457 z"
       id="path7044" />
    <path
       style="color:#000000;fill:#40b6e0;-inkscape-stroke:none;fill-opacity:0.80000001"
       d="m 150.94336,167.01367 c -0.92744,0 -2.17748,-0.002 -3.55469,0.58594 -2.98763,1.2762 -6.01156,3.79792 -9.05664,6.05664 -3.04508,2.25872 -6.25215,4.08759 -7.1582,4.20508 -3.03217,0.39319 -7.14701,-0.96429 -10.36328,-2.58594 -0.0111,-0.45726 0.0325,-0.89732 -0.17774,-1.40625 -0.23024,-0.55732 -0.46504,-1.70654 -1.5,-2.93359 -0.79654,-0.94437 -1.96362,-1.47844 -3.01953,-1.64649 -1.05591,-0.16805 -2.04971,-0.063 -3.04687,0.14844 -1.99433,0.42282 -4.05976,1.31656 -6.26563,2.42773 -4.41173,2.22235 -9.318849,5.38479 -13.330077,7.77539 -1.116263,0.66527 -1.87884,1.02826 -2.804687,1.5293 0.857175,-1.51733 1.628375,-2.94483 3.429687,-5.53906 L 89.765625,172.625 c -2.582996,3.72001 -4.236654,6.3972 -5.205078,8.46094 -0.484212,1.03187 -0.820304,1.89299 -0.947266,2.88476 -0.126961,0.99178 0.116469,2.58383 1.328125,3.47852 1.211656,0.89469 2.358764,0.74046 3.201172,0.57812 0.842408,-0.16233 1.603404,-0.45332 2.429688,-0.82031 1.652567,-0.73399 3.52964,-1.80657 5.597656,-3.03906 4.136028,-2.46499 8.993668,-5.57659 13.001958,-7.5957 2.00414,-1.00956 3.81317,-1.7298 4.98632,-1.97852 0.52964,-0.11229 0.8529,-0.10454 1.01758,-0.0898 0.0451,0.0915 0.22067,0.50959 0.42774,1.00586 -0.0181,0.0661 -0.021,-0.0193 -0.0723,0.35156 -0.0883,0.63881 0.14741,1.86142 0.70313,2.56445 0.55571,0.70303 1.14465,1.04682 1.83007,1.40234 3.7513,1.94578 8.73345,3.9151 13.78711,3.25977 3.55114,-0.46048 6.48248,-2.86917 9.6211,-5.19727 3.13861,-2.32809 6.34184,-4.74285 7.98632,-5.44531 0.19128,-0.0817 0.71556,-0.16015 1.48438,-0.16015 1.08701,0 1.74885,0.0613 2.05859,0.1289 0.30975,0.0676 0.2719,0.0588 0.44922,0.20117 0.35466,0.28484 1.37432,1.62374 3.56445,3.76954 0.0639,0.0626 0.51115,1.50045 2.59766,2.40234 2.04751,0.88504 3.42581,0.2168 3.56445,0.2168 1.80373,0 3.77253,0.12113 5.89063,-0.006 0.0226,-0.004 0.63078,-0.1074 0.63086,-0.10743 8e-5,-2e-5 0.0836,-0.0282 0.10351,-0.0352 0.0399,-0.0139 0.0539,-0.0187 0.0664,-0.0234 0.0251,-0.01 0.0335,-0.0138 0.043,-0.0176 0.0188,-0.007 0.0318,-0.0122 0.0449,-0.0176 0.0261,-0.0107 0.0527,-0.021 0.0859,-0.0352 0.0665,-0.0283 0.15357,-0.0656 0.2539,-0.11133 0.20068,-0.0914 0.44717,-0.20634 0.75,-0.38477 0.15142,-0.0892 0.31511,-0.18678 0.54883,-0.38085 0.23373,-0.19408 0.71075,-0.33808 0.98438,-1.58008 0.13681,-0.62101 -0.0359,-1.6201 -0.48828,-2.21289 -0.45237,-0.5928 -0.93037,-0.79644 -1.2461,-0.91211 -0.63145,-0.23134 -0.90492,-0.19336 -1.1914,-0.19336 v 5.26953 c -0.0114,0 -0.10105,0.0636 -0.6211,-0.12695 -0.26002,-0.0953 -0.70018,-0.27548 -1.13086,-0.83985 -0.43067,-0.56437 -0.59785,-1.53117 -0.46875,-2.11719 0.23508,-1.06703 0.57302,-1.19471 0.73243,-1.29296 l 0.62695,-0.14258 -0.0195,0.002 c -0.12774,0.008 -0.29032,-0.006 -0.41992,0 1.9e-4,9e-5 0.0185,-0.0142 0.0176,-0.0137 -0.001,8.6e-4 -0.0233,0.0115 -0.0273,0.0137 -1.59502,0.0675 -3.29548,-0.006 -5.16602,-0.006 -1.54055,0 -1.9721,0.002 -1.47461,0.2168 0.52074,0.22508 0.16935,-0.1844 -1,-1.33008 -1.93274,-1.89361 -2.5441,-2.98162 -3.95312,-4.11328 -0.70451,-0.56583 -1.65823,-1.02914 -2.625,-1.24024 -0.96677,-0.21109 -1.94116,-0.25195 -3.18164,-0.25195 z"
       id="path7046" />
  </g>
</svg>
