<?xml version="1.0" encoding="UTF-8" standalone="no"?>
<svg
   width="700pt"
   height="700pt"
   version="1.1"
   viewBox="0 0 700 700"
   id="svg7929"
   sodipodi:docname="xoptics-lens.svg"
   inkscape:version="1.1.1 (c3084ef, 2021-09-22)"
   xmlns:inkscape="http://www.inkscape.org/namespaces/inkscape"
   xmlns:sodipodi="http://sodipodi.sourceforge.net/DTD/sodipodi-0.dtd"
   xmlns="http://www.w3.org/2000/svg"
   xmlns:svg="http://www.w3.org/2000/svg">
  <defs
     id="defs7933" />
  <sodipodi:namedview
     id="namedview7931"
     pagecolor="#ffffff"
     bordercolor="#666666"
     borderopacity="1.0"
     inkscape:pageshadow="2"
     inkscape:pageopacity="0.0"
     inkscape:pagecheckerboard="0"
     inkscape:document-units="pt"
     showgrid="false"
     inkscape:zoom="0.57428571"
     inkscape:cx="488.43284"
     inkscape:cy="468.40796"
     inkscape:window-width="1440"
     inkscape:window-height="872"
     inkscape:window-x="0"
     inkscape:window-y="28"
     inkscape:window-maximized="0"
     inkscape:current-layer="svg7929" />
  <path
     d="m 320.17022,669.01125 c -9.51897,0 -18.3122,-5.04058 -23.0748,-13.2368 -110.78501,-190.62496 -110.78501,-418.26758 0,-608.892546 9.51896,-16.392447 36.62441,-16.392447 46.14354,0 110.785,190.624966 110.785,418.267586 0,608.892546 -4.75652,8.19622 -13.55006,13.2368 -23.06874,13.2368 z m 0,-551.72471 c -70.39036,149.48046 -70.39036,318.59073 0,468.06816 70.39037,-149.48652 70.39037,-318.59072 0,-468.06816 z"
     id="path7913"
     style="fill:#9aa7b0;fill-opacity:1;stroke-width:1.51742" />
  <path
     d="m 94.615292,262.65451 c -6.210628,0 -12.421132,-2.35911 -17.162973,-7.07209 -9.483839,-9.42583 -9.483839,-24.69559 0,-34.12156 L 108.84125,190.2639 77.452319,159.06142 c -9.483839,-9.42583 -9.483839,-24.69559 0,-34.12155 9.483816,-9.42582 24.847541,-9.42582 34.331521,0 l 48.55747,48.2605 c 9.48384,9.42583 9.48384,24.69559 0,34.12155 l -48.55747,48.2605 c -4.74739,4.71298 -10.9579,7.07209 -17.168548,7.07209 z"
     id="path7915"
     style="fill:#40b6e0;fill-opacity:0.8;stroke-width:1.3831" />
  <path
     d="m 94.615292,552.2175 c -6.210628,0 -12.421132,-2.3591 -17.162973,-7.07208 -9.483839,-9.42583 -9.483839,-24.6956 0,-34.12156 L 108.84125,479.8269 77.446759,448.62441 c -9.483828,-9.42583 -9.483828,-24.69558 0,-34.12154 9.483828,-9.42597 24.847561,-9.42584 34.331531,0 l 48.55747,48.26049 c 9.48384,9.42583 9.48384,24.69558 0,34.12154 l -48.55747,48.26052 c -4.74198,4.71298 -10.95249,7.07208 -17.162998,7.07208 z"
     id="path7917"
     style="fill:#40b6e0;fill-opacity:0.8;stroke-width:1.3831" />
  <path
     d="m 669.39575,359.17551 c -3.69141,0 -7.46554,-0.70559 -11.06246,-2.21378 L 319.62777,214.40022 H 34.371849 c -14.624019,0 -26.4601845,-10.8047 -26.4601845,-24.13025 0,-13.32555 11.8361655,-24.13025 26.4601845,-24.13025 H 325.43389 c 3.82131,0 7.62508,0.75407 11.08607,2.21377 L 680.50239,313.135 c 13.28331,5.58553 19.07099,19.9233 12.94657,32.02153 -4.471,8.82794 -14.057,14.02587 -24.05607,14.02587 z"
     id="path7919"
     style="fill:#40b6e0;fill-opacity:0.8;stroke-width:1.44391" />
  <path
     d="M 310.05878,503.957 H 33.7758 c -15.269602,0 -27.6283025,-10.80468 -27.6283025,-24.13025 0,-13.32555 12.3587005,-24.13024 27.6283025,-24.13024 H 303.99634 L 657.67013,313.135 c 13.91897,-5.59629 30.27429,-0.26932 36.66352,11.80658 6.39526,12.10277 0.35154,26.44125 -13.51811,32.02153 l -359.16787,144.7815 c -3.61394,1.46504 -7.58547,2.21916 -11.57548,2.21916 z"
     id="path7921"
     style="fill:#40b6e0;fill-opacity:0.8;stroke-width:1.47543" />
</svg>
