<?xml version="1.0" encoding="UTF-8" standalone="no"?>
<svg
   width="700pt"
   height="700pt"
   version="1.1"
   viewBox="0 0 700 700"
   id="svg5162"
   sodipodi:docname="xoptics-mirror.svg"
   inkscape:version="1.1.1 (c3084ef, 2021-09-22)"
   xmlns:inkscape="http://www.inkscape.org/namespaces/inkscape"
   xmlns:sodipodi="http://sodipodi.sourceforge.net/DTD/sodipodi-0.dtd"
   xmlns="http://www.w3.org/2000/svg"
   xmlns:svg="http://www.w3.org/2000/svg">
  <defs
     id="defs5166" />
  <sodipodi:namedview
     id="namedview5164"
     pagecolor="#ffffff"
     bordercolor="#666666"
     borderopacity="1.0"
     inkscape:pageshadow="2"
     inkscape:pageopacity="0.0"
     inkscape:pagecheckerboard="0"
     inkscape:document-units="pt"
     showgrid="false"
     inkscape:zoom="0.57857143"
     inkscape:cx="514.19753"
     inkscape:cy="539.25926"
     inkscape:window-width="1440"
     inkscape:window-height="872"
     inkscape:window-x="0"
     inkscape:window-y="28"
     inkscape:window-maximized="0"
     inkscape:current-layer="g5160" />
  <g
     id="g5160">
    <path
       d="m 121.37977,621.53325 c -6.87007,0 -13.73999,-2.36149 -18.98532,-7.07922 -10.490811,-9.43532 -10.490811,-24.72045 0,-34.1559 l 34.72178,-31.22838 -34.72178,-31.23389 c -10.490811,-9.43532 -10.490811,-24.72045 0,-34.1559 10.49081,-9.43531 27.48584,-9.43531 37.97679,0 l 53.71326,48.30908 c 10.49081,9.43532 10.49081,24.72045 0,34.15591 l -53.71326,48.30908 c -5.25146,4.71773 -12.12138,7.07922 -18.99147,7.07922 z"
       id="path5148"
       style="fill:#40b6e0;fill-opacity:0.8;stroke-width:52.3979;stroke-miterlimit:4;stroke-dasharray:none" />
    <path
       d="m 122.37139,247.33082 c -6.87007,0 -13.73999,-2.36149 -18.98532,-7.07922 -10.490811,-9.43532 -10.490811,-24.72045 0,-34.1559 l 34.72178,-31.22838 -34.72178,-31.23389 c -10.490811,-9.43531 -10.490811,-24.72045 0,-34.1559 10.49081,-9.43531 27.48584,-9.43531 37.97681,0 l 53.71324,48.30908 c 10.49081,9.43532 10.49081,24.72045 0,34.15591 l -53.71324,48.30908 c -5.25147,4.71773 -12.1214,7.07922 -18.99149,7.07922 z"
       id="path5148-8"
       style="fill:#40b6e0;fill-opacity:0.8;stroke-width:52.3979;stroke-miterlimit:4;stroke-dasharray:none" />
    <path
       style="color:#000000;fill:#9aa7b0;fill-opacity:1;stroke-width:1.45542;stroke-linecap:round;-inkscape-stroke:none"
       d="m 618.05013,15.915609 a 34.752471,31.255977 0 0 0 -17.73555,2.695819 34.752471,31.255977 0 0 0 -17.1361,41.429358 c 0,0 45.86317,88.186494 46.7623,273.143124 0.53639,110.33789 -14.2596,187.06532 -28.712,235.58496 -14.45241,48.51965 -26.94056,66.43038 -26.94056,66.43038 a 34.752471,31.255977 0 0 0 11.89965,42.88779 34.752471,31.255977 0 0 0 47.68548,-10.7024 c 0,0 18.36642,-28.29464 34.49399,-82.43816 16.12757,-54.14349 31.6384,-136.53891 31.07694,-252.03486 C 698.49857,138.3701 646.37847,34.023423 646.37847,34.023423 A 34.752471,31.255977 0 0 0 618.05013,15.915609 Z"
       id="path5561" />
    <path
       style="color:#000000;fill:#40b6e0;fill-opacity:0.8;stroke-width:1.45542;-inkscape-stroke:none"
       d="m -14.989861,151.64203 v 48.29831 H 542.05429 L 278.6016,453.29077 317.81945,486.28219 665.80456,151.64203 Z"
       id="path5984" />
    <path
       style="color:#000000;fill:#40b6e0;fill-opacity:0.8;stroke-width:1.45542;-inkscape-stroke:none"
       d="m 313.89287,250.56513 -37.65623,33.07502 262.56847,241.81499 H -18.655671 v 47.34129 H 663.78433 Z"
       id="path5984-8" />
    <path
       style="color:#000000;fill:#40b6e0;fill-opacity:0.8;stroke-width:1.45542;stroke-linecap:round;stroke-linejoin:round;-inkscape-stroke:none"
       d="m 296.9576,382.87055 a 22.605066,20.33074 0 0 0 -22.65727,20.28066 l -0.18284,67.92386 a 22.607328,20.332774 0 0 0 23.05295,20.375 l 75.91192,-1.35599 a 22.605066,20.33074 0 0 0 22.15372,-20.73085 22.605066,20.33074 0 0 0 -23.04994,-19.92211 l -52.80204,0.94354 0.12584,-47.1364 a 22.605066,20.33074 0 0 0 -22.55238,-20.37771 z"
       id="path7188" />
    <path
       style="color:#000000;fill:#40b6e0;fill-opacity:0.8;stroke-width:1.45542;stroke-linecap:round;stroke-linejoin:round;-inkscape-stroke:none"
       d="m 295.60279,239.30739 a 24.007388,21.591974 0 0 0 -24.54264,21.63126 l 0.18286,76.59631 a 24.004988,21.589812 0 0 0 24.05405,21.545 24.004988,21.589812 0 0 0 23.95516,-21.63665 l -0.12892,-54.47173 51.31533,1.03519 a 24.004988,21.589812 0 0 0 24.53666,-21.10018 24.004988,21.589812 0 0 0 -23.46058,-22.06798 z"
       id="path7188-5" />
  </g>
</svg>
