<?xml version="1.0" encoding="UTF-8" standalone="no"?>
<svg
   width="700pt"
   height="700pt"
   version="1.1"
   viewBox="0 0 700 700"
   id="svg7929"
   sodipodi:docname="xoptics-beam.svg"
   inkscape:version="1.1.1 (c3084ef, 2021-09-22)"
   xmlns:inkscape="http://www.inkscape.org/namespaces/inkscape"
   xmlns:sodipodi="http://sodipodi.sourceforge.net/DTD/sodipodi-0.dtd"
   xmlns="http://www.w3.org/2000/svg"
   xmlns:svg="http://www.w3.org/2000/svg">
  <defs
     id="defs7933" />
  <sodipodi:namedview
     id="namedview7931"
     pagecolor="#ffffff"
     bordercolor="#666666"
     borderopacity="1.0"
     inkscape:pageshadow="2"
     inkscape:pageopacity="0.0"
     inkscape:pagecheckerboard="0"
     inkscape:document-units="pt"
     showgrid="false"
     inkscape:zoom="0.57428571"
     inkscape:cx="505.84577"
     inkscape:cy="435.32339"
     inkscape:window-width="1440"
     inkscape:window-height="872"
     inkscape:window-x="0"
     inkscape:window-y="28"
     inkscape:window-maximized="0"
     inkscape:current-layer="svg7929" />
  <path
     id="path1982"
     style="color:#000000;fill:#9aa7b0;fill-opacity:1;stroke-width:1.40217;stroke-linecap:round;-inkscape-stroke:none"
     d="m 86.701234,318.74311 a 25.435883,27.00423 0 0 0 -1.078357,0.18191 v 53.64364 a 25.435883,27.00423 0 0 0 1.078357,0.18192 H 659.6889 a 25.435883,27.00423 0 0 0 25.4359,-27.00373 25.435883,27.00423 0 0 0 -25.4359,-27.00374 z" />
  <path
     style="color:#000000;fill:#9aa7b0;fill-opacity:1;stroke-width:1.40217;stroke-linecap:round;stroke-linejoin:round;-inkscape-stroke:none"
     d="m 306.49328,265.7069 a 19.346581,20.53947 0 0 0 -17.03712,9.7323 19.346581,20.53947 0 0 0 6.28861,28.27145 l 60.49378,39.68273 -62.54038,49.1244 a 19.346581,20.53947 0 0 0 -4.04532,28.72857 19.346581,20.53947 0 0 0 27.05742,4.29476 l 85.50992,-67.16408 a 19.348516,20.541523 0 0 0 -1.33692,-33.98553 l -84.79762,-55.62862 a 19.346581,20.53947 0 0 0 -9.59237,-3.05598 z"
     id="path2181-9" />
  <path
     id="path1982-1"
     style="color:#000000;fill:#9aa7b0;fill-opacity:1;stroke-width:1.40217;stroke-linecap:round;-inkscape-stroke:none"
     d="m 90.695813,111.72265 a 25.435883,27.00423 0 0 0 -5.072936,0.8533 v 52.30461 a 25.435883,27.00423 0 0 0 5.072936,0.85143 H 663.68348 a 25.435883,27.00423 0 0 0 25.4359,-27.00373 25.435883,27.00423 0 0 0 -25.4359,-27.00561 z" />
  <path
     style="color:#000000;fill:#9aa7b0;fill-opacity:1;stroke-width:1.40217;stroke-linecap:round;stroke-linejoin:round;-inkscape-stroke:none"
     d="m 308.61704,60.974891 a 19.346581,20.53947 0 0 0 -17.03713,9.732299 19.346581,20.53947 0 0 0 6.2886,28.271448 l 60.49379,39.682712 -62.54038,49.12441 a 19.346581,20.53947 0 0 0 -4.04532,28.72858 19.346581,20.53947 0 0 0 27.05741,4.29475 l 85.50993,-67.16407 a 19.348516,20.541523 0 0 0 -1.33692,-33.98553 L 318.20939,64.03087 a 19.346581,20.53947 0 0 0 -9.59235,-3.055979 z"
     id="path2181-9-4" />
  <path
     id="path1982-7"
     style="color:#000000;fill:#9aa7b0;fill-opacity:1;stroke-width:1.40217;stroke-linecap:round;-inkscape-stroke:none"
     d="m 96.312599,532.1099 a 25.435883,27.00423 0 0 0 -10.689722,2.85246 v 48.30439 a 25.435883,27.00423 0 0 0 10.689722,2.85248 H 669.29838 A 25.435883,27.00423 0 0 0 694.7343,559.1155 25.435883,27.00423 0 0 0 669.29838,532.1099 Z" />
  <path
     style="color:#000000;fill:#9aa7b0;fill-opacity:1;stroke-width:1.40217;stroke-linecap:round;stroke-linejoin:round;-inkscape-stroke:none"
     d="m 316.1041,480.17837 a 19.346581,20.53947 0 0 0 -17.03713,9.73229 19.346581,20.53947 0 0 0 6.28861,28.27146 l 60.49377,39.68272 -62.54037,49.1244 a 19.346581,20.53947 0 0 0 -4.04532,28.72858 19.346581,20.53947 0 0 0 27.05743,4.29475 L 411.831,572.8485 a 19.348516,20.541523 0 0 0 -1.33693,-33.98554 l -84.7976,-55.62862 a 19.346581,20.53947 0 0 0 -9.59237,-3.05597 z"
     id="path2181-9-7" />
  <path
     style="color:#000000;fill:#40b6e0;fill-opacity:0.8;stroke-width:1.47817;-inkscape-stroke:none"
     d="M 21.127187,27.424728 V 674.48579 H 85.622899 V 27.424728 Z"
     id="path6611" />
</svg>
