<?xml version="1.0" encoding="UTF-8" standalone="no"?>
<svg
   width="700pt"
   height="700pt"
   version="1.1"
   viewBox="0 0 700 700"
   id="svg7929"
   sodipodi:docname="xoptics-prism.svg"
   inkscape:version="1.1.1 (c3084ef, 2021-09-22)"
   xmlns:inkscape="http://www.inkscape.org/namespaces/inkscape"
   xmlns:sodipodi="http://sodipodi.sourceforge.net/DTD/sodipodi-0.dtd"
   xmlns="http://www.w3.org/2000/svg"
   xmlns:svg="http://www.w3.org/2000/svg">
  <defs
     id="defs7933" />
  <sodipodi:namedview
     id="namedview7931"
     pagecolor="#ffffff"
     bordercolor="#666666"
     borderopacity="1.0"
     inkscape:pageshadow="2"
     inkscape:pageopacity="0.0"
     inkscape:pagecheckerboard="0"
     inkscape:document-units="pt"
     showgrid="false"
     inkscape:zoom="0.57428571"
     inkscape:cx="401.36816"
     inkscape:cy="468.40796"
     inkscape:window-width="1440"
     inkscape:window-height="872"
     inkscape:window-x="0"
     inkscape:window-y="28"
     inkscape:window-maximized="0"
     inkscape:current-layer="svg7929" />
  <path
     d="m 76.077017,377.6387 c -6.601189,0 -13.202241,-2.5865 -18.242278,-7.75372 -10.080227,-10.33433 -10.080227,-27.07583 0,-37.41032 L 91.197577,298.27084 57.834739,264.06095 c -10.080227,-10.33434 -10.080227,-27.07583 0,-37.4103 10.080215,-10.33432 26.410088,-10.33432 36.490468,0 l 51.611013,52.91201 c 10.08023,10.33433 10.08023,27.07584 0,37.4103 l -51.611013,52.91202 c -5.04593,5.16722 -11.647,7.75372 -18.24819,7.75372 z"
     id="path7915"
     style="fill:#40b6e0;fill-opacity:0.8;stroke-width:1.49306" />
  <path
     d="m 740.0154,483.35388 c -4.25117,0 -8.59758,-0.77573 -12.73993,-2.43382 L 337.20985,324.18795 H 8.6987643 c -16.84155,0 -30.4725113,-11.87869 -30.4725113,-26.5288 0,-14.65012 13.6309613,-26.5288 30.4725113,-26.5288 H 343.8964 c 4.40077,0 8.7813,0.82904 12.76713,2.43383 L 752.8062,432.73695 c 15.29754,6.14072 21.96285,21.90367 14.90975,35.20446 -5.14897,9.70544 -16.18856,15.42005 -27.70385,15.42005 z"
     id="path7919"
     style="fill:#40b6e0;fill-opacity:0.8;stroke-width:1.62471" />
  <path
     style="color:#000000;fill:#9aa7b0;fill-opacity:1;stroke-width:1.31433;stroke-linecap:round;stroke-linejoin:round;-inkscape-stroke:none"
     d="M 342.03957,45.741598 A 25.493002,27.110242 0 0 0 320.27311,59.904233 L 41.043106,606.81455 A 25.493002,27.110242 0 0 0 63.444333,646.8564 H 655.9555 a 25.493002,27.110242 0 0 0 21.76896,-41.20929 L 364.44328,58.734157 A 25.493002,27.110242 0 0 0 342.03957,45.741598 Z m 1.9043,81.420532 266.63414,465.47921 h -504.2878 z"
     id="path177" />
</svg>
