<?xml version="1.0" encoding="UTF-8" standalone="no"?>
<svg
   width="700pt"
   height="700pt"
   version="1.1"
   viewBox="0 0 700 700"
   id="svg7929"
   sodipodi:docname="xoptics-white-ray.svg"
   inkscape:version="1.1.1 (c3084ef, 2021-09-22)"
   xmlns:inkscape="http://www.inkscape.org/namespaces/inkscape"
   xmlns:sodipodi="http://sodipodi.sourceforge.net/DTD/sodipodi-0.dtd"
   xmlns="http://www.w3.org/2000/svg"
   xmlns:svg="http://www.w3.org/2000/svg">
  <defs
     id="defs7933" />
  <sodipodi:namedview
     id="namedview7931"
     pagecolor="#ffffff"
     bordercolor="#666666"
     borderopacity="1.0"
     inkscape:pageshadow="2"
     inkscape:pageopacity="0.0"
     inkscape:pagecheckerboard="0"
     inkscape:document-units="pt"
     showgrid="false"
     inkscape:zoom="0.57428571"
     inkscape:cx="437.93533"
     inkscape:cy="479.72637"
     inkscape:window-width="1440"
     inkscape:window-height="775"
     inkscape:window-x="0"
     inkscape:window-y="25"
     inkscape:window-maximized="0"
     inkscape:current-layer="svg7929" />
  <path
     style="color:#000000;fill:#9aa7b0;fill-opacity:1;stroke-width:1.30259;stroke-linecap:round;stroke-linejoin:round;-inkscape-stroke:none"
     d="m 220.18881,358.44298 a 18.619661,18.417904 0 0 0 -6.31304,17.32722 18.619661,18.417904 0 0 0 21.62012,14.87181 l 67.35921,-11.97268 -15.06259,72.54819 a 18.619661,18.417904 0 0 0 14.49395,21.74674 18.619661,18.417904 0 0 0 21.98306,-14.33523 l 20.59626,-99.1917 a 18.621524,18.419747 0 0 0 -21.53215,-21.83374 l -94.42311,16.78076 a 18.619661,18.417904 0 0 0 -8.72171,4.05863 z"
     id="path2181-9" />
  <path
     id="path3029"
     style="color:#000000;fill:#40b6e0;fill-opacity:0.8;stroke-width:0.669819;stroke-linecap:round;stroke-linejoin:round;-inkscape-stroke:none"
     d="M 27.551144,512.61107 C 10.748288,528.1656 1.091772,550.82513 1.152455,573.55203 c -0.08419,22.1106 8.711763,44.15058 24.203055,60.11565 14.637016,15.29961 35.031911,25.13993 56.285745,26.82264 20.127575,1.70675 40.920525,-3.69574 57.235865,-15.57569 16.33259,-11.73875 28.15688,-29.48774 32.44906,-49.01677 5.04262,-22.10136 0.89285,-46.129 -11.45738,-65.23247 -11.72452,-18.37447 -30.5553,-32.26727 -51.85121,-37.74251 -21.002818,-5.52232 -44.18281,-3.11136 -63.254782,7.3341 -6.237413,3.37219 -12.026746,7.54591 -17.211664,12.35409 z m 35.238142,35.64522 c 9.107648,-8.21586 22.712887,-11.09529 34.432654,-7.34112 13.45492,4.07038 24.06586,16.15535 26.07896,29.9552 1.50257,9.50537 -1.0632,19.60516 -7.15423,27.1389 -0.91532,1.16198 -1.91293,2.25863 -2.96723,3.29857 -0.41304,0.38553 -1.16286,1.10694 -1.74286,1.58847 -7.04501,6.05873 -16.54021,9.30222 -25.871518,8.54528 -5.307629,-0.36347 -10.505195,-1.95175 -15.159108,-4.48889 -0.515374,-0.29595 -1.425155,-0.80126 -2.075136,-1.22856 -1.904686,-1.19766 -3.759495,-2.62993 -5.314013,-4.05745 -7.905539,-7.23068 -12.618718,-17.88503 -12.104599,-28.57344 0.345521,-9.43321 4.718355,-18.59073 11.877027,-24.83703 z" />
  <path
     style="color:#000000;fill:#f26522;fill-opacity:1;stroke-width:1.30259;-inkscape-stroke:none"
     d="m 406.59808,20.791663 -5.24582,255.812237 39.28359,0.78704 5.24393,-255.810539 z"
     id="path4346" />
  <path
     style="color:#000000;fill:#40b6e0;fill-opacity:0.80000001;stroke-width:1.30259;-inkscape-stroke:none"
     d="m 420.77433,257.56579 0.43946,38.86324 259.36396,-2.8699 -0.43947,-38.86323 z"
     id="path4348" />
  <path
     style="color:#000000;fill:#f26522;fill-opacity:1;stroke-width:1.30259;stroke-linejoin:round;-inkscape-stroke:none"
     d="M 356.09448,61.199353 377.84992,85.40487 424.93738,44.000599 467.159,90.55074 491.53061,68.921799 438.4256,10.372516 A 16.373045,16.195632 0 0 0 415.36206,9.084212 Z"
     id="path4350" />
  <path
     style="color:#000000;fill:#fbfbfb;fill-opacity:1;stroke-width:1.30259;-inkscape-stroke:none"
     d="M 611.24385,54.68777 429.77433,235.06579 457.4868,262.91968 638.95378,82.54156 Z"
     id="path4346-8" />
  <path
     style="color:#000000;fill:#fbfbfb;fill-opacity:1;stroke-width:1.30259;stroke-linejoin:round;-inkscape-stroke:none"
     d="m 546.84486,48.674062 -1.16391,32.524628 62.6338,2.92384 -1.96262,62.81504 32.55624,1.37028 2.46852,-79.006756 A 16.373045,16.195632 43.998057 0 0 625.68073,52.353617 Z"
     id="path4350-6" />
  <path
     style="color:#000000;fill:#40b6e0;fill-opacity:0.80000001;stroke-width:1.30259;stroke-linecap:square;stroke-linejoin:round;-inkscape-stroke:none"
     d="m 625.2552,237.62709 10.93295,12.05375 21.40805,23.60279 -25.62542,24.31219 -11.81263,11.21076 22.66333,23.37262 11.81624,-11.21057 37.05185,-35.15303 a 16.373045,16.195632 0 0 0 0.85245,-22.50265 l -31.98226,-35.26103 -10.93293,-12.05378 z"
     id="path4352" />
  <path
     style="color:#000000;fill:#9aa7b0;-inkscape-stroke:none"
     d="M 425.57812,230.6875 131.4375,501.89844 166.02539,539.41016 460.16602,268.19922 Z"
     id="path1047" />
</svg>
