<?xml version="1.0" encoding="UTF-8" standalone="no"?>
<svg
   width="700pt"
   height="700pt"
   version="1.1"
   viewBox="0 0 700 700"
   id="svg7929"
   sodipodi:docname="xoptics-point-source.svg"
   inkscape:version="1.1.1 (c3084ef, 2021-09-22)"
   xmlns:inkscape="http://www.inkscape.org/namespaces/inkscape"
   xmlns:sodipodi="http://sodipodi.sourceforge.net/DTD/sodipodi-0.dtd"
   xmlns="http://www.w3.org/2000/svg"
   xmlns:svg="http://www.w3.org/2000/svg">
  <defs
     id="defs7933" />
  <sodipodi:namedview
     id="namedview7931"
     pagecolor="#ffffff"
     bordercolor="#666666"
     borderopacity="1.0"
     inkscape:pageshadow="2"
     inkscape:pageopacity="0.0"
     inkscape:pagecheckerboard="0"
     inkscape:document-units="pt"
     showgrid="false"
     inkscape:zoom="0.57428571"
     inkscape:cx="538.93035"
     inkscape:cy="438.80597"
     inkscape:window-width="1440"
     inkscape:window-height="872"
     inkscape:window-x="0"
     inkscape:window-y="28"
     inkscape:window-maximized="0"
     inkscape:current-layer="svg7929" />
  <path
     id="path2652"
     style="color:#000000;fill:#9aa7b0;fill-opacity:1;stroke-width:1.24707;stroke-linecap:round;-inkscape-stroke:none"
     d="m 219.18215,323.15314 a 107.66325,126.42822 0 0 1 2.16046,25.08066 107.66325,126.42822 0 0 1 -2.73117,27.71287 h 462.17094 a 20.583131,26.396451 0 0 0 20.5839,-26.39581 20.583131,26.396451 0 0 0 -20.5839,-26.39772 z" />
  <path
     id="path2649"
     style="color:#000000;fill:#9aa7b0;fill-opacity:1;stroke-width:1.27295;stroke-linecap:round;-inkscape-stroke:none"
     d="m 209.32899,392.48753 a 112.14237,112.14237 0 0 1 -32.58511,38.31953 22.389676,25.508559 0 0 0 4.12676,3.06708 l 487.49665,248.42303 a 22.389676,25.508559 0 0 0 29.58009,-12.86966 22.389676,25.508559 0 0 0 -11.29651,-33.69996 z" />
  <path
     style="color:#000000;fill:#9aa7b0;fill-opacity:1;stroke-width:1.48615;stroke-linecap:round;stroke-linejoin:round;-inkscape-stroke:none"
     d="m 487.53646,266.30618 a 21.147968,21.107873 0 0 0 -18.62347,10.00163 21.147968,21.107873 0 0 0 6.87414,29.05382 l 66.12644,40.78089 -68.36359,50.48386 a 21.147968,21.107873 0 0 0 -4.422,29.52359 21.147968,21.107873 0 0 0 29.57679,4.41361 l 93.47187,-69.02275 a 21.150084,21.109982 0 0 0 -1.46141,-34.92604 L 498.022,269.44672 a 21.147968,21.107873 0 0 0 -10.48554,-3.14054 z"
     id="path2640" />
  <path
     style="color:#000000;fill:#9aa7b0;fill-opacity:1;stroke-width:1.55138;stroke-linecap:round;stroke-linejoin:round;-inkscape-stroke:none"
     d="m 521.06711,470.22548 a 20.663075,23.541444 0 0 0 -10.53181,2.13782 20.663075,23.541444 0 0 0 -9.94418,31.3071 l 32.66848,79.43849 -78.94034,24.25977 a 20.663075,23.541444 0 0 0 -14.56851,28.8588 20.663075,23.541444 0 0 0 25.33026,16.59793 l 102.71784,-31.56585 a 20.665142,23.543797 0 0 0 13.33081,-32.71718 L 538.01453,483.69594 a 20.663075,23.541444 0 0 0 -16.94742,-13.47046 z"
     id="path2637" />
  <path
     id="path2649-9"
     style="color:#000000;fill:#9aa7b0;fill-opacity:1;stroke-width:1.24836;stroke-linecap:round;-inkscape-stroke:none"
     d="M 647.84398,5.4716281 A 25.015674,21.957055 33.846917 0 0 633.62784,8.0603774 L 174.79403,263.96972 a 109.97552,109.97552 0 0 1 4.61986,10.17757 109.97552,109.97552 0 0 1 22.38796,30.67465 L 661.5718,48.388763 A 25.015674,21.957055 33.846917 0 0 667.24609,17.266321 25.015674,21.957055 33.846917 0 0 647.84398,5.4716281 Z" />
  <path
     style="color:#000000;fill:#9aa7b0;fill-opacity:1;stroke-width:1.50698;stroke-linecap:round;stroke-linejoin:round;-inkscape-stroke:none"
     d="m 414.84109,45.422723 a 22.867656,20.07167 33.846917 0 0 -3.97336,9.65326 22.867656,20.07167 33.846917 0 0 19.87708,24.96077 l 81.7624,16.62342 -23.1377,76.811097 a 22.867656,20.07167 33.846917 0 0 15.40001,27.36686 22.867656,20.07167 33.846917 0 0 27.09506,-11.45532 L 561.97247,89.436173 A 22.86994,20.073677 33.846917 0 0 542.79006,60.980313 L 434.87762,39.038268 a 22.867656,20.07167 33.846917 0 0 -20.03653,6.384455 z"
     id="path2637-0" />
  <circle
     style="fill:none;stroke:#40b6e0;stroke-width:65.003;stroke-miterlimit:4;stroke-dasharray:none;stroke-opacity:0.8"
     id="path1899"
     cx="116.03731"
     cy="350.33578"
     r="77.92543" />
</svg>
