<?xml version="1.0" encoding="UTF-8" standalone="no"?>
<svg
   width="700pt"
   height="700pt"
   version="1.1"
   viewBox="0 0 700 700"
   id="svg7929"
   sodipodi:docname="xoptics-ray.svg"
   inkscape:version="1.1.1 (c3084ef, 2021-09-22)"
   xmlns:inkscape="http://www.inkscape.org/namespaces/inkscape"
   xmlns:sodipodi="http://sodipodi.sourceforge.net/DTD/sodipodi-0.dtd"
   xmlns="http://www.w3.org/2000/svg"
   xmlns:svg="http://www.w3.org/2000/svg">
  <defs
     id="defs7933" />
  <sodipodi:namedview
     id="namedview7931"
     pagecolor="#ffffff"
     bordercolor="#666666"
     borderopacity="1.0"
     inkscape:pageshadow="2"
     inkscape:pageopacity="0.0"
     inkscape:pagecheckerboard="0"
     inkscape:document-units="pt"
     showgrid="false"
     inkscape:zoom="0.57428571"
     inkscape:cx="575.49752"
     inkscape:cy="525.87065"
     inkscape:window-width="1440"
     inkscape:window-height="872"
     inkscape:window-x="0"
     inkscape:window-y="28"
     inkscape:window-maximized="0"
     inkscape:current-layer="svg7929" />
  <path
     style="color:#000000;fill:#9aa7b0;fill-opacity:1;stroke-width:1.58823;stroke-linecap:round;-inkscape-stroke:none"
     d="m 150.30709,504.90576 a 29.896582,29.476769 41.110674 0 0 0.33561,41.94376 29.896582,29.476769 41.110674 0 0 42.02352,0.2527 L 662.20835,77.524875 a 29.896582,29.476769 41.110674 0 0 -0.33561,-41.943727 29.896582,29.476769 41.110674 0 0 -42.0235,-0.252708 z"
     id="path1982" />
  <path
     style="color:#000000;fill:#9aa7b0;fill-opacity:1;stroke-width:1.58823;stroke-linecap:round;stroke-linejoin:round;-inkscape-stroke:none"
     d="m 255.10694,316.62461 a 22.739396,22.420086 41.110672 0 0 -6.32828,21.56608 22.739396,22.420086 41.110672 0 0 27.32653,16.93444 l 80.69556,-18.57255 -12.72133,89.63365 a 22.739396,22.420086 41.110672 0 0 19.21679,25.76049 22.739396,22.420086 41.110672 0 0 25.54095,-18.81879 l 17.39555,-122.55194 a 22.741672,22.422329 41.11067 0 0 -27.75036,-25.45681 l -113.11803,26.03186 a 22.739396,22.420086 41.110672 0 0 -10.25738,5.47357 z"
     id="path2181-9" />
  <path
     id="path3029"
     style="color:#000000;fill:#40b6e0;fill-opacity:0.8;stroke-width:0.753069;stroke-linecap:round;stroke-linejoin:round;-inkscape-stroke:none"
     d="m 42.168113,518.91741 c -18.034738,18.81628 -27.172052,45.58473 -24.892803,71.47889 1.967092,24.58203 13.853363,48.22919 32.518541,64.40579 17.593369,15.44564 40.97491,24.23714 64.433459,23.85253 22.30799,-0.22515 44.59327,-8.52611 61.10051,-23.60495 15.81128,-14.24532 26.44486,-34.12165 29.30473,-55.20654 3.78907,-26.24564 -3.93184,-53.96524 -20.96927,-74.34459 -15.14092,-18.42785 -37.33148,-30.98862 -61.02083,-34.18644 -23.356259,-3.27435 -48.016128,2.31958 -67.209055,16.13388 -4.779094,3.38491 -9.207367,7.25377 -13.265282,11.47143 z m 38.466999,34.94809 c 10.679979,-10.85976 27.592878,-15.06425 42.118368,-10.40815 11.57628,3.46488 21.50065,11.88918 26.87978,22.68029 5.04683,9.87025 6.17315,21.75859 2.58924,32.29417 -2.2634,6.85961 -6.2362,13.1899 -11.61961,18.03769 -0.96277,0.86551 -2.27306,1.967 -3.45611,2.8181 -1.66299,1.22431 -3.42949,2.32906 -5.34597,3.33898 -8.89972,4.74983 -19.52972,6.05689 -29.33416,3.70383 -12.818129,-2.97689 -24.00995,-11.98359 -29.760083,-23.78387 -2.12123,-4.26541 -3.495633,-8.89286 -4.104908,-13.61281 -0.137506,-1.043 -0.285753,-2.54241 -0.320983,-3.76912 -0.463411,-11.55318 4.08627,-23.18327 12.354436,-31.29911 z" />
</svg>
