<?xml version="1.0" encoding="UTF-8" standalone="no"?>
<svg
   width="700pt"
   height="700pt"
   version="1.1"
   viewBox="0 0 700 700"
   id="svg7929"
   sodipodi:docname="xoptics-surface.svg"
   inkscape:version="1.1.1 (c3084ef, 2021-09-22)"
   xmlns:inkscape="http://www.inkscape.org/namespaces/inkscape"
   xmlns:sodipodi="http://sodipodi.sourceforge.net/DTD/sodipodi-0.dtd"
   xmlns="http://www.w3.org/2000/svg"
   xmlns:svg="http://www.w3.org/2000/svg">
  <defs
     id="defs7933" />
  <sodipodi:namedview
     id="namedview7931"
     pagecolor="#ffffff"
     bordercolor="#666666"
     borderopacity="1.0"
     inkscape:pageshadow="2"
     inkscape:pageopacity="0.0"
     inkscape:pagecheckerboard="0"
     inkscape:document-units="pt"
     showgrid="false"
     inkscape:zoom="0.57428571"
     inkscape:cx="488.43284"
     inkscape:cy="484.07961"
     inkscape:window-width="1440"
     inkscape:window-height="872"
     inkscape:window-x="0"
     inkscape:window-y="28"
     inkscape:window-maximized="0"
     inkscape:current-layer="svg7929" />
  <path
     id="path1344"
     style="color:#000000;fill:#9aa7b0;fill-opacity:1;stroke-width:1.18675;stroke-linecap:round;-inkscape-stroke:none"
     d="m 720.61874,333.59886 c -103.38507,-0.0207 -206.77046,-0.002 -310.15566,-0.008 -133.72295,0.005 -267.44632,-0.008 -401.1690195,0.008 -7.2775626,0.0839 -14.4816345,3.13697 -19.4994395,8.42034 -5.684173,5.85727 -8.457296,14.37522 -7.258147,22.44939 1.13869,8.4293 6.557534,16.11568 14.092442,20.0687 4.4998259,2.46698 9.693497,3.42246 14.792069,3.25676 238.151355,-0.002 476.302915,10e-4 714.454155,-0.005 7.40338,-0.0557 14.74466,-3.18533 19.79328,-8.6143 5.98007,-6.25944 8.61239,-15.49652 6.79675,-23.95992 -1.5227,-7.60957 -6.5539,-14.38757 -13.34945,-18.13122 -4.18196,-2.38479 -9.00193,-3.53997 -13.80685,-3.49571 -1.56314,-0.0317 -3.12689,0.002 -4.69013,0.0104 z" />
  <path
     id="path1346"
     style="color:#000000;fill:#40b6e0;fill-opacity:0.8;stroke-width:1.2577;stroke-linecap:round;stroke-linejoin:round;-inkscape-stroke:none"
     d="m 39.235669,40.626148 c -4.937261,0.479583 -9.731761,2.42842 -13.532328,5.624085 -3.483378,2.877121 -6.104446,6.758836 -7.533872,11.038707 -1.173658,3.544498 -1.491425,7.348197 -0.992886,11.046086 0.657603,4.305419 2.426303,8.4508 5.20054,11.822177 2.782707,3.543592 6.741219,5.841047 10.269823,8.551988 C 155.55169,178.73905 278.45644,268.76889 401.36119,358.79874 c 49.18367,104.44673 98.3587,208.89771 147.54774,313.3418 1.53483,3.12255 3.67792,5.94445 6.35093,8.18212 3.48102,2.91466 7.7731,4.85209 12.27192,5.50215 3.75762,0.56094 7.62983,0.21257 11.24992,-0.93118 6.63989,-2.11917 12.26136,-7.1951 14.97175,-13.61789 2.88148,-6.57399 2.54065,-14.3878 -0.75997,-20.74586 C 543.0697,544.51407 493.15359,438.49449 443.225,332.48105 c -1.84711,-3.86121 -4.72438,-7.18764 -8.22095,-9.6512 C 308.68105,230.29855 182.36164,137.76223 56.036369,45.234082 52.122851,42.435161 47.405755,40.741891 42.586257,40.568008 c -1.116075,-0.108452 -2.233563,0.03264 -3.350588,0.05815 z" />
  <path
     style="color:#000000;fill:#f97946;fill-opacity:1;stroke-width:1.40503;stroke-dasharray:84.3025, 42.1512;-inkscape-stroke:none"
     d="M 387.1262,10.44814 V 81.334675 H 437.255 V 10.44814 Z m 0,106.3298 v 70.88653 h 50.1288 v -70.88653 z m 0,106.3298 v 70.88652 h 50.1288 v -70.88652 z m 0,106.3298 v 70.88652 h 50.1288 v -70.88652 z m 0,106.32979 v 70.88653 h 50.1288 v -70.88653 z m 0,106.3298 v 70.88653 h 50.1288 v -70.88653 z m 0,106.32978 v 37.8223 h 50.1288 v -37.8223 z"
     id="path1545" />
  <path
     style="color:#000000;fill:#40b6e0;fill-opacity:0.8;stroke-width:1.44631;stroke-linecap:round;stroke-linejoin:round;-inkscape-stroke:none"
     d="M 194.78418,77.128662 A 25.502096,26.576736 0 0 0 176.3826,109.45272 l 14.08205,57.47624 h -72.63504 a 25.502096,26.576736 0 0 0 -25.502102,26.57673 25.502096,26.576736 0 0 0 25.502102,26.57674 h 105.46734 a 25.504647,26.579394 0 0 0 24.70791,-33.15171 L 225.80398,96.302784 a 25.502096,26.576736 0 0 0 -31.0198,-19.174122 z"
     id="path1660" />
  <path
     style="color:#000000;fill:#40b6e0;fill-opacity:0.8;stroke-width:1.44573;stroke-linecap:round;stroke-linejoin:round;-inkscape-stroke:none"
     d="m 590.75628,554.80581 a 26.140633,25.906818 0 0 0 -18.78576,18.01334 l -14.95653,51.87827 -58.77673,-22.00502 a 26.140633,25.906818 0 0 0 -33.69125,15.07857 26.140633,25.906818 0 0 0 15.21468,33.3927 l 85.34848,31.95343 a 26.143248,25.909409 0 0 0 34.37199,-17.11942 l 22.7596,-78.94327 a 26.140633,25.906818 0 0 0 -17.95467,-32.02652 26.140633,25.906818 0 0 0 -13.52981,-0.22208 z"
     id="path1662" />
</svg>
