<?xml version="1.0" encoding="UTF-8" standalone="no"?>
<!-- Generated by IcoMoon.io -->

<svg
   version="1.1"
   width="1024"
   height="1024"
   viewBox="0 0 1024 1024"
   id="svg12685"
   sodipodi:docname="xoptics_geometry.svg"
   inkscape:version="1.1.1 (c3084ef, 2021-09-22)"
   xmlns:inkscape="http://www.inkscape.org/namespaces/inkscape"
   xmlns:sodipodi="http://sodipodi.sourceforge.net/DTD/sodipodi-0.dtd"
   xmlns="http://www.w3.org/2000/svg"
   xmlns:svg="http://www.w3.org/2000/svg">
  <defs
     id="defs12689" />
  <sodipodi:namedview
     id="namedview12687"
     pagecolor="#ffffff"
     bordercolor="#666666"
     borderopacity="1.0"
     inkscape:pageshadow="2"
     inkscape:pageopacity="0.0"
     inkscape:pagecheckerboard="0"
     showgrid="false"
     inkscape:zoom="0.54003906"
     inkscape:cx="541.62749"
     inkscape:cy="525.88788"
     inkscape:window-width="1440"
     inkscape:window-height="872"
     inkscape:window-x="0"
     inkscape:window-y="28"
     inkscape:window-maximized="0"
     inkscape:current-layer="svg12685" />
  <title
     id="title12680" />
  <g
     id="icomoon-ignore" />
  <path
     d="M769.539 127.234l42.414 42.406-44.547 44.547c-58.188-38.492-137.508-32.133-188.711 19.070-13.953 13.953-24.539 30-31.828 47.133l-415.266 183.461-61.398-61.391-42.406 42.406 45.758 45.758c-65.57 38.758-92.359 121.953-59.516 192.391l12.453 26.719 184.125-82.039 71.641 71.633-42.414 42.414 42.414 42.406 42.406-42.406 71.641 71.641-82.039 184.117 26.719 12.461c70.281 32.766 153.523 6.219 192.383-59.523l45.766 45.766 42.406-42.406-61.398-61.398 183.469-415.266c17.133-7.289 33.188-17.875 47.133-31.828 51.203-51.195 57.555-130.523 19.070-188.711l44.547-44.539 42.414 42.406 127.227-127.227-127.227-127.234zM111.656 538.234l423.688-187.18c1.586 20.281 7.242 40.297 17.023 58.695l-491.922 219.195c-3.813-36.984 15.742-74.031 51.211-90.711zM367.078 699.328l42.406-42.406-42.406-42.406-42.414 42.406-55.375-55.375 276.266-123.102-123.102 276.266zM395.055 963.555l219.195-491.922c18.398 9.781 38.414 15.438 58.695 17.023l-187.18 423.688c-16.672 35.477-53.727 55.023-90.711 51.211zM748.336 402.898c-35.078 35.078-92.156 35.078-127.234 0s-35.078-92.156 0-127.234c35.070-35.078 92.148-35.078 127.234 0 35.078 35.078 35.078 92.156 0 127.234zM896.773 169.641l-42.414-42.406 42.414-42.414 42.406 42.414zM684.719 381.695l-42.406-42.406 42.406-42.406 42.414 42.406z"
     id="path19831"
     style="fill:#40b6e0;fill-opacity:0.80000001" />
</svg>
