<?xml version="1.0" encoding="UTF-8" standalone="no"?>
<!-- Generator: Adobe Illustrator 18.0.0, SVG Export Plug-In . SVG Version: 6.00 Build 0)  -->

<svg
   version="1.1"
   id="Capa_1"
   x="0px"
   y="0px"
   viewBox="0 0 462.782 462.782"
   style="enable-background:new 0 0 462.782 462.782;"
   xml:space="preserve"
   sodipodi:docname="ycircuit-potentiometer.svg"
   inkscape:version="1.1.1 (c3084ef, 2021-09-22)"
   xmlns:inkscape="http://www.inkscape.org/namespaces/inkscape"
   xmlns:sodipodi="http://sodipodi.sourceforge.net/DTD/sodipodi-0.dtd"
   xmlns="http://www.w3.org/2000/svg"
   xmlns:svg="http://www.w3.org/2000/svg"><defs
   id="defs10688" /><sodipodi:namedview
   id="namedview10686"
   pagecolor="#ffffff"
   bordercolor="#666666"
   borderopacity="1.0"
   inkscape:pageshadow="2"
   inkscape:pageopacity="0.0"
   inkscape:pagecheckerboard="0"
   showgrid="false"
   inkscape:zoom="1.1668561"
   inkscape:cx="215.53643"
   inkscape:cy="214.25093"
   inkscape:window-width="1440"
   inkscape:window-height="900"
   inkscape:window-x="0"
   inkscape:window-y="0"
   inkscape:window-maximized="0"
   inkscape:current-layer="Capa_1" />
<g
   id="XMLID_21_"
   transform="matrix(1,0,0,0.78206363,0.85700373,194.67495)"
   style="stroke:none;stroke-opacity:0.80000001;fill:#9aa7b0;fill-opacity:1">
	<path
   id="XMLID_904_"
   d="m 284.22461,135.24219 c -7.18128,0.0949 -14.1462,4.48797 -17.18631,11.01905 -1.32752,2.90908 -2.15813,6.00994 -3.27672,9.00045 -10.96024,31.56772 -21.92048,63.13544 -32.88072,94.70315 -12.56966,-34.23424 -25.12555,-68.47399 -37.72068,-102.6986 -2.76893,-6.86407 -9.7626,-11.76684 -17.16604,-12.00062 -7.75185,-0.43973 -15.51864,4.28951 -18.60871,11.42452 -1.17941,2.7056 -1.98,5.46683 -3.01909,8.20124 -11.68461,32.71524 -23.36923,65.43049 -35.05384,98.14573 -5.50374,-13.63386 -10.95236,-27.29063 -16.50677,-40.90316 -3.082754,-6.73303 -10.302875,-11.33745 -17.721269,-11.19692 -13.314431,-0.0358 -26.629809,-0.005 -39.944617,-0.0152 -16.554427,-1e-5 -33.108854,0 -49.6632815,0 0,13.01562 0,26.03125 0,39.04687 25.4934895,0 50.9869795,0 76.4804685,0 10.243392,25.41035 20.44327,50.83855 30.725859,76.23262 2.92566,6.51169 9.69565,11.06553 16.83078,11.32207 7.01535,0.36882 14.07481,-3.38916 17.633,-9.4566 1.79613,-3.08414 2.64656,-6.58714 3.93205,-9.89156 11.43665,-32.02262 22.8733,-64.04524 34.30995,-96.06786 12.66872,34.50084 25.31646,69.01017 38.01657,103.49899 2.75856,6.7361 9.5866,11.55682 16.85891,11.90269 6.86494,0.44609 13.8164,-3.06423 17.51688,-8.86824 2.09473,-3.29273 2.96085,-7.15348 4.32706,-10.7667 11.46787,-33.02837 22.93575,-66.05673 34.40363,-99.0851 15.38586,35.89522 30.75802,71.7969 46.1701,107.68051 3.08018,6.6012 10.14482,11.08139 17.42833,11.07088 7.01512,0.11023 13.91839,-3.89921 17.25764,-10.07752 1.69887,-3.21217 2.43734,-6.80669 3.60265,-10.22421 7.00725,-22.42332 14.0145,-44.84665 21.02175,-67.26997 25.10416,0 50.20833,0 75.3125,0 0,-13.01562 0,-26.03125 0,-39.04687 -30.20204,0.005 -60.40485,-0.0196 -90.60639,0.0259 -7.54218,0.27942 -14.67195,5.39063 -17.26476,12.49574 -1.03852,2.83487 -1.80038,5.76261 -2.75422,8.62682 -3.09168,9.89517 -6.18335,19.79035 -9.27502,29.68552 -15.06635,-35.1472 -30.11727,-70.30161 -45.20724,-105.43831 -3.0805,-6.60698 -10.15111,-11.08975 -17.43964,-11.07732 -0.17756,0.002 -0.35535,-0.003 -0.53281,0.002 z"
   style="stroke:none;stroke-opacity:0.80000001;fill:#9aa7b0;fill-opacity:1" />
</g>
<g
   id="g10655">
</g>
<g
   id="g10657">
</g>
<g
   id="g10659">
</g>
<g
   id="g10661">
</g>
<g
   id="g10663">
</g>
<g
   id="g10665">
</g>
<g
   id="g10667">
</g>
<g
   id="g10669">
</g>
<g
   id="g10671">
</g>
<g
   id="g10673">
</g>
<g
   id="g10675">
</g>
<g
   id="g10677">
</g>
<g
   id="g10679">
</g>
<g
   id="g10681">
</g>
<g
   id="g10683">
</g>
<path
   id="path10782"
   style="color:#000000;fill:#40b6e0;-inkscape-stroke:none;stroke:none;stroke-opacity:0.80000001;fill-opacity:1"
   d="m 218.89062,98.28125 c 10e-6,55.61068 0,111.22135 0,166.83203 12.33334,0 24.66667,0 37,0 10e-6,-56.27734 0,-112.55469 0,-168.83203 -12.33333,0 -24.66666,0 -37,0 10e-6,0.66667 0,1.33333 0,2 z" /><path
   id="path10784"
   style="color:#000000;fill:#f46522;stroke-linecap:round;stroke-linejoin:round;-inkscape-stroke:none;stroke:none;stroke-opacity:0.80000001;fill-opacity:0.80000001"
   d="m 198.38867,216.92969 c -7.00659,0.10539 -13.72401,4.66403 -16.34076,11.17753 -2.67444,6.23161 -1.44504,13.92785 3.09874,18.9764 2.04119,2.26516 4.46088,4.14356 6.65005,6.25901 11.65236,10.62586 23.26945,21.2892 34.96397,31.8675 4.95863,4.09763 12.15545,5.23331 18.128,2.83089 2.91328,-1.09593 5.34156,-3.11407 7.52822,-5.27757 11.82517,-10.96403 23.63624,-21.94556 35.41712,-32.95569 5.28012,-4.9812 6.90041,-13.28471 4.09134,-19.94386 -2.78324,-6.88039 -10.12362,-11.61248 -17.54893,-11.20164 -4.78846,0.15837 -9.38977,2.37448 -12.69062,5.8141 -7.87074,7.27458 -15.70641,14.58458 -23.55494,21.88302 -9.30628,-8.4802 -18.56583,-17.01423 -27.9323,-25.42676 -3.30124,-2.66853 -7.57031,-4.09475 -11.80989,-4.00293 z" /><path
   style="color:#000000;fill:#40b6e0;fill-opacity:1;-inkscape-stroke:none"
   d="m 237.5293,1.5664062 c -31.0285,0 -56.56446,25.5359518 -56.56446,56.5644528 0,31.028502 25.53596,56.564451 56.56446,56.564451 31.0285,0 56.56445,-25.535949 56.56445,-56.564451 0,-31.028501 -25.53595,-56.5644527 -56.56445,-56.5644528 z m 0,35.6757808 c 11.7481,0 20.88867,9.140569 20.88867,20.888672 0,11.748104 -9.14057,20.888672 -20.88867,20.888672 -11.74811,0 -20.88867,-9.140568 -20.88868,-20.888672 0,-11.748103 9.14057,-20.888671 20.88868,-20.888672 z"
   id="path5063" /><rect
   style="fill:none;stroke:none;stroke-width:30;stroke-miterlimit:4;stroke-dasharray:none;stroke-opacity:0.8"
   id="rect5496"
   width="76.480469"
   height="30.537136"
   x="-3.6664338"
   y="351.80859" /><rect
   style="fill:#40b6e0;fill-opacity:1;stroke:none;stroke-width:30;stroke-miterlimit:4;stroke-dasharray:none;stroke-opacity:0.8"
   id="rect6074"
   width="76.480469"
   height="30.537149"
   x="-3.6664338"
   y="351.80859" /><rect
   style="fill:#40b6e0;fill-opacity:1;stroke:none;stroke-width:30;stroke-miterlimit:4;stroke-dasharray:none;stroke-opacity:0.8"
   id="rect6074-9"
   width="76.480469"
   height="30.537149"
   x="391.68121"
   y="351.80859" /></svg>
