<?xml version="1.0" encoding="UTF-8" standalone="no"?>
<svg
   width="36px"
   height="36px"
   viewBox="0 0 36 36"
   version="1.1"
   preserveAspectRatio="xMidYMid meet"
   id="svg4269"
   sodipodi:docname="ycircuit-inductor.svg"
   inkscape:version="1.1.1 (c3084ef, 2021-09-22)"
   xmlns:inkscape="http://www.inkscape.org/namespaces/inkscape"
   xmlns:sodipodi="http://sodipodi.sourceforge.net/DTD/sodipodi-0.dtd"
   xmlns="http://www.w3.org/2000/svg"
   xmlns:svg="http://www.w3.org/2000/svg"
   xmlns:rdf="http://www.w3.org/1999/02/22-rdf-syntax-ns#"
   xmlns:cc="http://creativecommons.org/ns#"
   xmlns:dc="http://purl.org/dc/elements/1.1/">
  <defs
     id="defs4273" />
  <sodipodi:namedview
     id="namedview4271"
     pagecolor="#ffffff"
     bordercolor="#666666"
     borderopacity="1.0"
     inkscape:pageshadow="2"
     inkscape:pageopacity="0.0"
     inkscape:pagecheckerboard="0"
     showgrid="false"
     inkscape:zoom="16.365828"
     inkscape:cx="20.927752"
     inkscape:cy="17.047716"
     inkscape:window-width="1440"
     inkscape:window-height="872"
     inkscape:window-x="0"
     inkscape:window-y="28"
     inkscape:window-maximized="0"
     inkscape:current-layer="svg4269" />
  <title
     id="title4263">inductor-line</title>
  <rect
     x="0"
     y="0"
     width="36"
     height="36"
     fill-opacity="0"
     id="rect4267" />
  <path
     style="color:#000000;fill:#9aa7b0;-inkscape-stroke:none"
     d="m 28.957031,6.5039062 c -1.233692,-0.014821 -2.363034,0.4728993 -3.21289,1.1933594 -0.109009,0.092412 -0.148414,0.2409254 -0.25,0.3398438 C 24.465733,7.2118419 23.310222,6.6095718 21.935547,6.6015625 20.37222,6.592454 19.091793,7.3785822 17.964844,8.390625 16.994662,7.3831815 15.869995,6.5896322 14.376953,6.5761719 c -1.38296,-0.012468 -2.619575,0.5934249 -3.759765,1.4140625 -0.0052,-0.00495 -0.0065,-0.012645 -0.01172,-0.017578 C 9.7747127,7.1945554 8.6225158,6.6426843 7.3417969,6.6445312 5.8887163,6.6466322 4.7181098,7.5296496 3.9882813,8.5117188 3.2584527,9.4937879 2.8083361,10.635675 2.4726563,11.738281 2.0139975,13.244835 1.9933773,13.917996 1.8964844,14.699219 h -2.02734377 v 3 H 4.5019531 l 0.1171875,-1.373047 c 0,0 0.1683049,-1.893969 0.7226563,-3.714844 C 5.6189725,11.700891 6.0035998,10.829453 6.3964844,10.300781 6.789369,9.7721093 7.030593,9.6449868 7.3457031,9.6445313 c 0.43785,-6.315e-4 0.741548,0.1725493 1.0859375,0.4648437 -1.3190664,1.773799 -2.2755968,4.010948 -2.46875,6.529297 -0.1912216,2.493164 -0.1253318,4.462192 0.3574219,6.042969 0.2413769,0.790388 0.598801,1.505009 1.1699219,2.072265 0.5711209,0.567257 1.3757945,0.929885 2.1816406,0.986328 1.048714,0.07345 2.016765,-0.580721 2.513672,-1.285156 0.496907,-0.704435 0.752329,-1.487925 0.949219,-2.328125 0.393778,-1.6804 0.485394,-3.622856 0.482422,-5.253906 -0.0032,-1.759042 -0.318179,-4.059663 -1.179688,-6.117188 -0.043,-0.10269 -0.137693,-0.175828 -0.183594,-0.277343 0.73958,-0.5393778 1.477945,-0.9079135 2.095703,-0.9023441 0.450119,0.00406 1.057881,0.4774391 1.677735,1.1484371 -1.034658,1.767722 -1.741978,3.825394 -1.878906,5.96875 -0.144712,2.265182 -0.05538,4.234686 0.427734,5.841797 0.241558,0.803556 0.583857,1.537355 1.154297,2.138672 0.57044,0.601317 1.429587,1.017239 2.308593,1.037109 1.054025,0.02382 1.979266,-0.637055 2.478516,-1.351562 0.49925,-0.714507 0.763195,-1.517768 0.953125,-2.375 0.379861,-1.714465 0.412315,-3.673828 0.242188,-5.347656 C 21.534289,14.879516 20.84117,12.704396 19.755859,10.75 c 0.711213,-0.684735 1.44753,-1.1526009 2.16211,-1.1484375 0.506058,0.00295 1.151737,0.3657354 1.816406,0.9062505 -0.918913,1.963551 -1.372249,4.218846 -1.498047,6.154296 -0.124443,1.914605 -0.0972,3.870748 0.345703,5.552735 0.221453,0.840993 0.544639,1.637151 1.138672,2.30664 0.594033,0.66949 1.548307,1.148944 2.535156,1.142578 1.010092,-0.0065 1.969354,-0.544814 2.533203,-1.246093 0.56385,-0.701279 0.849068,-1.509932 1.041016,-2.355469 0.383897,-1.691073 0.367978,-3.618341 0.253906,-5.378906 -0.135583,-2.0926 -1.05521,-4.397936 -2.425781,-6.359375 -0.03449,-0.04936 -0.08789,-0.08179 -0.123047,-0.13086 0.05126,-0.05026 0.09747,-0.163826 0.148438,-0.2070309 0.410304,-0.3478331 0.759032,-0.4881794 1.238281,-0.4824218 0.246564,0.00296 0.49013,0.1224348 0.888672,0.6914067 0.398542,0.568971 0.786896,1.494157 1.070312,2.453125 0.566832,1.917934 0.757813,3.902343 0.757813,3.902343 l 0.126953,1.392578 1.398437,-0.0293 c 1.060507,-0.02351 2.966797,-0.02539 2.966797,-0.02539 v -3 c 0,0 -1.007364,0.01074 -1.771484,0.01563 C 34.258367,14.106963 34.224414,13.377623 33.757812,11.798828 33.421365,10.660424 32.976286,9.486383 32.267578,8.4746094 31.55887,7.4628357 30.423409,6.5215226 28.957031,6.5039062 Z M 10.041016,13.242188 c 0.345042,1.274956 0.574325,2.625114 0.576172,3.636718 0.0027,1.496696 -0.110099,3.307043 -0.404297,4.5625 -0.143051,0.610449 -0.3418491,1.06105 -0.4667972,1.248047 -0.037634,-0.01622 -0.088346,-0.01057 -0.140625,-0.0625 -0.1022011,-0.101509 -0.273519,-0.353707 -0.4160157,-0.820312 -0.2849933,-0.933211 -0.4105275,-2.640808 -0.234375,-4.9375 0.1027877,-1.340156 0.539407,-2.538789 1.0859379,-3.626953 z m 15.863281,0.144531 c 0.635946,1.248907 1.124787,2.552466 1.185547,3.490234 0.104513,1.613056 0.07628,3.368148 -0.185547,4.521484 -0.130912,0.576669 -0.32663,0.981345 -0.453125,1.138672 -0.126496,0.157327 -0.06617,0.125994 -0.214844,0.126953 -0.171919,0.0011 -0.1402,0.0132 -0.271484,-0.134765 -0.131285,-0.147961 -0.33591,-0.521725 -0.482422,-1.078125 -0.293025,-1.1128 -0.364401,-2.865646 -0.251953,-4.595703 0.0709,-1.090903 0.332447,-2.307945 0.673828,-3.46875 z m -8.070313,0.419922 c 0.455469,1.162131 0.811915,2.319974 0.894532,3.132812 0.139736,1.374821 0.08873,3.14976 -0.1875,4.396484 -0.138114,0.623363 -0.344771,1.107687 -0.482422,1.304688 -0.137652,0.197001 -0.01452,0.07083 0.04883,0.07227 -0.111666,-0.0025 -0.08744,0.01637 -0.201172,-0.103516 -0.113733,-0.119889 -0.304689,-0.430726 -0.457031,-0.9375 -0.304685,-1.013548 -0.439804,-2.733259 -0.308594,-4.787109 0.06714,-1.050893 0.333052,-2.095318 0.693359,-3.078125 z"
     id="path6585" />
  <rect
     style="fill:#40b6e0;stroke:none;stroke-width:3;stroke-miterlimit:4;stroke-dasharray:none;stroke-opacity:0.8;fill-opacity:1"
     id="rect15297"
     width="4.7049255"
     height="3.0551462"
     x="-0.12220585"
     y="14.664702" />
  <rect
     style="fill:#40b6e0;stroke:none;stroke-width:3;stroke-miterlimit:4;stroke-dasharray:none;stroke-opacity:0.8;fill-opacity:1"
     id="rect15297-4"
     width="4.7049255"
     height="3.0551462"
     x="31.804071"
     y="14.909114" />
  <metadata
     id="metadata15419">
    <rdf:RDF>
      <cc:Work
         rdf:about="">
        <dc:title>inductor-line</dc:title>
      </cc:Work>
    </rdf:RDF>
  </metadata>
</svg>
