<?xml version="1.0" encoding="UTF-8" standalone="no"?>
<svg
   version="1.1"
   viewBox="0 0 232 232"
   enable-background="new 0 0 232 232"
   id="svg1046"
   sodipodi:docname="ycircuit-transformer.svg"
   inkscape:version="1.1.1 (c3084ef, 2021-09-22)"
   xmlns:inkscape="http://www.inkscape.org/namespaces/inkscape"
   xmlns:sodipodi="http://sodipodi.sourceforge.net/DTD/sodipodi-0.dtd"
   xmlns="http://www.w3.org/2000/svg"
   xmlns:svg="http://www.w3.org/2000/svg">
  <defs
     id="defs1050" />
  <sodipodi:namedview
     id="namedview1048"
     pagecolor="#ffffff"
     bordercolor="#666666"
     borderopacity="1.0"
     inkscape:pageshadow="2"
     inkscape:pageopacity="0.0"
     inkscape:pagecheckerboard="0"
     showgrid="false"
     inkscape:zoom="2.3836207"
     inkscape:cx="106.35081"
     inkscape:cy="106.56058"
     inkscape:window-width="1440"
     inkscape:window-height="872"
     inkscape:window-x="0"
     inkscape:window-y="28"
     inkscape:window-maximized="0"
     inkscape:current-layer="svg1046" />
  <path
     style="color:#000000;fill:#9aa7b0;-inkscape-stroke:none"
     d="M 14.798828,31.15625 C 7.1712873,31.177199 2.1074219,31.390625 2.1074219,31.390625 L 2.78125,47.804687 c 0,0 19.619438,-0.786374 38.865234,0.652344 9.622898,0.719359 19.174909,2.064815 25.458985,4.003906 3.142038,0.969546 5.415235,2.150414 6.263672,2.816407 0.121776,0.09559 0.04413,-0.0046 0.107421,0.03711 -0.001,0.333336 -0.141447,0.349347 -1.423828,0.941406 -1.895573,0.875163 -6.099621,1.673056 -10.814453,2.298828 -4.714831,0.625773 -9.90065,1.071926 -15.144531,3.273438 -2.621941,1.100756 -5.399509,2.772083 -7.5625,5.554687 -2.162991,2.782605 -3.336136,6.579416 -3.291016,10.22461 0.04487,3.62464 1.27687,7.347008 3.44336,10.078125 2.166489,2.731117 4.92499,4.385223 7.53125,5.472656 5.212519,2.174866 10.333907,2.593637 14.93164,3.185547 4.597733,0.59191 8.63779,1.373843 10.296875,2.15625 1.659086,0.782407 1.02963,-0.456858 1.015625,1.34375 -0.01466,1.88535 0.412428,0.92515 -1.228515,1.76953 -1.640943,0.84438 -5.514784,1.7331 -9.976563,2.47852 -4.461779,0.74541 -9.482012,1.34993 -14.560547,3.75781 -5.078534,2.40788 -10.330674,8.56868 -10.419922,15.73437 -0.09036,7.25492 4.890006,13.44834 9.865235,16.25391 4.975229,2.80557 10.129424,3.92172 14.773437,5.07031 4.644013,1.1486 8.787861,2.32625 10.761719,3.40625 1.973858,1.08001 1.482138,0.32604 1.474609,1.51172 -0.0072,1.14135 0.772796,0.0153 -1.132812,0.88477 -1.905608,0.86951 -6.114606,1.71879 -10.796875,2.44531 -4.682269,0.72652 -9.825108,1.3272 -14.957031,3.5957 -2.565962,1.13425 -5.254813,2.79815 -7.378907,5.52344 -2.124093,2.72529 -3.335588,6.47307 -3.298828,10.08594 0.03697,3.63289 1.344245,7.35348 3.503907,10.03125 2.159661,2.67777 4.841675,4.31124 7.410156,5.44336 5.136962,2.26424 10.299759,2.92367 14.970703,3.73047 4.670944,0.80679 8.808635,1.77522 10.658203,2.7207 1.261217,0.64472 1.392746,0.65985 1.376953,0.98633 -0.06614,0.0364 0.0083,-0.0625 -0.197265,0.0937 -0.907961,0.68981 -3.215366,1.85104 -6.367188,2.80468 -6.303643,1.9073 -15.796372,3.21762 -25.339844,3.91211 -19.086943,1.38899 -38.4628903,0.58594 -38.4628902,0.58594 l -0.6972657,16.41406 c 0,0 20.0138789,0.86673 40.3515629,-0.61328 10.168841,-0.74 20.399492,-2.00032 28.90625,-4.57422 4.253379,-1.28694 8.121825,-2.84363 11.548828,-5.44726 3.427003,-2.60364 6.635515,-7.08788 6.675781,-12.32813 0.05678,-7.38968 -5.097099,-13.79484 -10.316406,-16.46289 -5.219308,-2.66805 -10.536906,-3.45165 -15.339844,-4.28125 -4.802938,-0.82959 -9.132346,-1.68902 -11.140625,-2.57422 -0.809375,-0.35675 -0.930896,-0.51724 -1.007813,-0.58203 0.07085,-0.0569 0.09202,-0.13415 0.78711,-0.4414 1.879092,-0.83063 6.117852,-1.65495 10.833984,-2.38672 4.716132,-0.73178 9.92406,-1.37372 15.097656,-3.73438 5.173597,-2.36065 10.696009,-8.45511 10.742188,-15.72851 0.0459,-7.22907 -5.055839,-13.31143 -10.019531,-16.02735 -4.963693,-2.71591 -10.086291,-3.80197 -14.701172,-4.94336 -4.614881,-1.14138 -8.713063,-2.34027 -10.648438,-3.43164 -1.935374,-1.09137 -1.524774,-0.37641 -1.507812,-1.73828 0.01807,-1.45109 -0.672905,-0.28576 1.03125,-1.09375 1.704154,-0.80799 5.688513,-1.63995 10.228515,-2.39843 4.540003,-0.75849 9.663455,-1.4397 14.78711,-4.07618 5.123655,-2.63647 10.084149,-8.9886 10.140625,-16.249997 0.05714,-7.346131 -5.164026,-13.843164 -10.4375,-16.330078 -5.273474,-2.486914 -10.508315,-2.986886 -15.207031,-3.591797 -4.698716,-0.60491 -8.895115,-1.298362 -10.703125,-2.052734 -0.807007,-0.336715 -0.908933,-0.501144 -0.88086,-0.464844 0.0016,-0.04983 0.0094,-0.0017 0.0078,-0.126953 -3.14e-4,-0.02537 -0.0035,-1e-5 -0.0039,-0.02148 -0.01301,0.02145 0.02883,-0.08626 0.791016,-0.40625 1.832847,-0.769474 6.131509,-1.495856 10.945313,-2.134765 4.813803,-0.638909 10.183714,-1.197424 15.539062,-3.669922 5.355348,-2.472498 10.783608,-8.742044 10.980469,-16.193359 0.138948,-5.259276 -2.986561,-9.940667 -6.40625,-12.625 C 80.093983,39.669183 76.217266,38.08007 71.951172,36.763672 63.418984,34.130875 53.125006,32.838796 42.871094,32.072266 32.617181,31.305735 22.426369,31.135301 14.798828,31.15625 Z"
     id="path2477" />
  <path
     style="color:#000000;fill:#9aa7b0;-inkscape-stroke:none"
     d="m 218.51758,30.078125 c -7.62754,-0.02095 -17.81835,0.151438 -28.07227,0.917969 -10.25391,0.76653 -20.54789,2.056656 -29.08008,4.689453 -4.26609,1.316398 -8.14281,2.905511 -11.5625,5.589844 -3.41968,2.684332 -6.54519,7.365724 -6.40625,12.625 0.19686,7.451315 5.62513,13.720862 10.98047,16.193359 5.35535,2.472497 10.72526,3.031013 15.53907,3.669922 4.8138,0.638909 9.11246,1.365291 10.94531,2.134765 0.76219,0.319987 0.80402,0.427697 0.79101,0.40625 -4.5e-4,0.02289 -0.004,-0.004 -0.004,0.02344 -0.002,0.126024 0.006,0.07721 0.008,0.126953 0.0281,-0.0363 -0.0738,0.128129 -0.88086,0.464844 -1.80801,0.754372 -6.00636,1.447824 -10.70508,2.052734 -4.69871,0.604911 -9.9316,1.102929 -15.20508,3.589844 -5.27347,2.486915 -10.49463,8.983948 -10.4375,16.330078 0.0565,7.261392 5.01697,13.613522 10.14063,16.250002 5.12366,2.63647 10.24515,3.31769 14.78516,4.07617 4.54,0.75848 8.52631,1.59045 10.23046,2.39844 1.70416,0.80799 1.01123,-0.35735 1.0293,1.09375 0.017,1.36187 0.42951,0.64691 -1.50586,1.73828 -1.93537,1.09137 -6.03356,2.29025 -10.64844,3.43164 -4.61488,1.14139 -9.73943,2.22745 -14.70312,4.94336 -4.96369,2.71591 -10.06348,8.79827 -10.01758,16.02734 0.0462,7.2734 5.56859,13.36786 10.74219,15.72852 5.1736,2.36066 10.38152,3.0026 15.09765,3.73437 4.71614,0.73178 8.9549,1.55609 10.83399,2.38672 0.69509,0.30726 0.71626,0.38448 0.78711,0.44141 -0.0769,0.0648 -0.19844,0.22528 -1.00781,0.58203 -2.00828,0.8852 -6.33769,1.74462 -11.14063,2.57422 -4.80294,0.82959 -10.12054,1.6132 -15.33984,4.28125 -5.21931,2.66804 -10.37319,9.07321 -10.31641,16.46289 0.0403,5.24025 3.24878,9.72449 6.67578,12.32812 3.42701,2.60364 7.29545,4.16227 11.54883,5.44922 8.50676,2.5739 18.73546,3.83226 28.9043,4.57227 20.33768,1.48001 40.35156,0.61328 40.35156,0.61328 l -0.69531,-16.41406 c 0,0 -19.37595,0.80501 -38.46289,-0.58399 -9.54348,-0.69449 -19.0362,-2.00481 -25.33985,-3.91211 -3.15182,-0.95365 -5.45922,-2.11487 -6.36718,-2.80468 -0.20605,-0.15654 -0.13123,-0.0594 -0.19727,-0.0957 -0.0158,-0.32648 0.11378,-0.34161 1.375,-0.98633 1.84957,-0.94547 5.98726,-1.9139 10.6582,-2.7207 4.67095,-0.80679 9.8357,-1.46623 14.97266,-3.73047 2.56848,-1.13212 5.25049,-2.76364 7.41016,-5.4414 2.15966,-2.67777 3.46498,-6.39836 3.50195,-10.03125 0.0368,-3.61287 -1.17278,-7.3626 -3.29688,-10.08789 -2.12409,-2.72529 -4.81294,-4.38724 -7.3789,-5.52149 -5.13193,-2.2685 -10.27476,-2.86918 -14.95703,-3.5957 -4.68227,-0.72652 -8.89127,-1.57581 -10.79688,-2.44531 -1.90561,-0.86951 -1.12556,0.25463 -1.13281,-0.88672 -0.008,-1.18568 -0.49925,-0.42976 1.47461,-1.50977 1.97386,-1.08001 6.11575,-2.25961 10.75976,-3.4082 4.64402,-1.1486 9.79821,-2.26475 14.77344,-5.07031 4.97523,-2.80557 9.9556,-8.999 9.86524,-16.25391 -0.0892,-7.1657 -5.33944,-13.32454 -10.41797,-15.73242 -5.07854,-2.40789 -10.10072,-3.01436 -14.5625,-3.75977 -4.46178,-0.74541 -8.33562,-1.63414 -9.97657,-2.47851 -1.64094,-0.844381 -1.2119,0.11582 -1.22656,-1.769535 -0.014,-1.80061 -0.64346,-0.55939 1.01563,-1.341797 1.65908,-0.782407 5.69719,-1.566293 10.29492,-2.158203 4.59773,-0.59191 9.72107,-1.008728 14.93359,-3.183594 2.60626,-1.087433 5.36476,-2.743493 7.53125,-5.474609 2.16649,-2.731116 3.39849,-6.451532 3.44336,-10.076172 0.0451,-3.645194 -1.12998,-7.443958 -3.29297,-10.226563 -2.16299,-2.782604 -4.94056,-4.453931 -7.5625,-5.554687 -5.24388,-2.201511 -10.4297,-2.645711 -15.14453,-3.271484 -4.71483,-0.625773 -8.91692,-1.425619 -10.8125,-2.300782 -1.28239,-0.592065 -1.42476,-0.608055 -1.42578,-0.941406 0.0635,-0.04162 -0.0144,0.06004 0.10938,-0.03711 0.84843,-0.665993 3.11968,-1.844908 6.26171,-2.814453 6.28408,-1.939092 15.83804,-3.286501 25.46094,-4.00586 19.2458,-1.438718 38.86524,-0.65039 38.86524,-0.65039 L 231.20898,30.3125 c 0,0 -5.06386,-0.213426 -12.6914,-0.234375 z"
     id="path2477-6" />
  <rect
     style="fill:#40b6e0;fill-opacity:1;stroke:none;stroke-width:20.9148;stroke-miterlimit:4;stroke-dasharray:none;stroke-opacity:1"
     id="rect5530"
     width="20.556963"
     height="191.77252"
     x="108.75587"
     y="27.670517" />
</svg>
