<?xml version="1.0" encoding="UTF-8" standalone="no"?>
<svg
   version="1.1"
   viewBox="0 0 232 232"
   enable-background="new 0 0 232 232"
   id="svg11492"
   sodipodi:docname="ycircuit-transformer-tapped.svg"
   inkscape:version="1.1.1 (c3084ef, 2021-09-22)"
   xmlns:inkscape="http://www.inkscape.org/namespaces/inkscape"
   xmlns:sodipodi="http://sodipodi.sourceforge.net/DTD/sodipodi-0.dtd"
   xmlns="http://www.w3.org/2000/svg"
   xmlns:svg="http://www.w3.org/2000/svg">
  <defs
     id="defs11496" />
  <sodipodi:namedview
     id="namedview11494"
     pagecolor="#ffffff"
     bordercolor="#666666"
     borderopacity="1.0"
     inkscape:pageshadow="2"
     inkscape:pageopacity="0.0"
     inkscape:pagecheckerboard="0"
     showgrid="false"
     inkscape:zoom="2.3275862"
     inkscape:cx="115.35556"
     inkscape:cy="115.14074"
     inkscape:window-width="1440"
     inkscape:window-height="872"
     inkscape:window-x="0"
     inkscape:window-y="28"
     inkscape:window-maximized="0"
     inkscape:current-layer="svg11492" />
  <path
     style="color:#000000;fill:#9aa7b0;-inkscape-stroke:none"
     d="M 17.28125,24.458984 C 9.6537091,24.479934 4.5898438,24.693359 4.5898438,24.693359 l 0.6738281,16.414063 c 0,0 19.6194391,-0.788328 38.8652341,0.65039 9.622898,0.71936 19.174909,2.066768 25.458985,4.00586 3.142037,0.969546 5.415235,2.150413 6.263671,2.816406 0.121777,0.09559 0.04413,-0.0046 0.107422,0.03711 -0.0012,0.332707 -0.141996,0.347648 -1.423828,0.939454 -1.895574,0.875162 -6.099621,1.675008 -10.814453,2.300781 -4.714832,0.625772 -9.898697,1.071927 -15.142578,3.273437 -2.621941,1.100756 -5.399509,2.772083 -7.5625,5.554688 -2.162991,2.782604 -3.338089,6.579415 -3.292969,10.224609 0.04487,3.62464 1.27687,7.347008 3.44336,10.078125 2.166489,2.731118 4.92499,4.385223 7.53125,5.472656 5.212519,2.174867 10.333907,2.593638 14.93164,3.185547 4.597733,0.59191 8.63779,1.373844 10.296875,2.15625 1.659085,0.782407 1.02963,-0.456859 1.015625,1.34375 -0.01466,1.885352 0.41438,0.923201 -1.226562,1.767578 -1.640943,0.844378 -5.516737,1.735057 -9.978516,2.480469 -4.461779,0.745412 -9.482012,1.34993 -14.560547,3.757808 -5.078534,2.40789 -10.328721,8.56868 -10.417969,15.73438 -0.09036,7.25491 4.890006,13.44834 9.865235,16.2539 4.975229,2.80557 10.129424,3.92172 14.773437,5.07032 4.644013,1.14859 8.785908,2.32624 10.759766,3.40625 1.973858,1.08 1.482137,0.32604 1.474609,1.51172 -0.0072,1.14135 0.772796,0.0153 -1.132812,0.88476 -1.905608,0.86951 -6.114606,1.7188 -10.796875,2.44531 -4.682269,0.72652 -9.825108,1.3272 -14.957031,3.59571 -2.565962,1.13425 -5.254813,2.79814 -7.378907,5.52343 -2.124093,2.7253 -3.333635,6.47308 -3.296875,10.08594 0.03697,3.6329 1.342292,7.35348 3.501953,10.03125 2.159662,2.67777 4.841676,4.31124 7.410157,5.44336 5.136962,2.26424 10.301712,2.92368 14.972656,3.73047 4.670944,0.8068 8.808635,1.77523 10.658203,2.7207 1.261217,0.64472 1.390793,0.65985 1.375,0.98633 -0.06614,0.0364 0.0083,-0.0625 -0.197266,0.0937 -0.907961,0.68982 -3.215365,1.85104 -6.367187,2.80469 -6.303644,1.9073 -15.796372,3.21761 -25.339844,3.91211 -19.086944,1.38899 -38.4628904,0.58398 -38.4628904,0.58398 l -0.6953125,16.41602 c 0,0 20.0138779,0.86673 40.3515629,-0.61328 10.168842,-0.74001 20.397538,-2.00033 28.904296,-4.57422 4.25338,-1.28695 8.121825,-2.84363 11.548829,-5.44727 3.427003,-2.60363 6.635515,-7.08787 6.675781,-12.32812 0.05678,-7.38968 -5.097099,-13.79484 -10.316406,-16.46289 -5.219308,-2.66805 -10.536906,-3.45166 -15.339844,-4.28125 -4.802938,-0.8296 -9.132346,-1.69098 -11.140625,-2.57617 -0.809244,-0.3567 -0.930819,-0.51523 -1.007813,-0.58008 0.07085,-0.0569 0.09202,-0.13415 0.78711,-0.44141 1.879092,-0.83063 6.117852,-1.65494 10.833984,-2.38672 4.716132,-0.73177 9.92406,-1.37372 15.097656,-3.73437 5.173597,-2.36066 10.696008,-8.45512 10.742188,-15.72852 0.0459,-7.22907 -5.055839,-13.31143 -10.019531,-16.02734 -4.963693,-2.71591 -10.086291,-3.80197 -14.701172,-4.94336 -4.614881,-1.14139 -8.713063,-2.34027 -10.648438,-3.43164 -1.935374,-1.09137 -1.522821,-0.37641 -1.505859,-1.73828 0.01807,-1.4511 -0.674858,-0.28576 1.029297,-1.09375 1.704154,-0.80799 5.690466,-1.63996 10.230468,-2.39844 4.540003,-0.75848 9.661501,-1.4397 14.785157,-4.07617 5.123655,-2.63648 10.084149,-8.98861 10.140625,-16.250002 C 91.428234,85.927257 86.207068,79.430224 80.933594,76.94331 75.660119,74.456445 70.427232,73.956473 65.728516,73.351562 61.0298,72.746652 56.831448,72.0532 55.023437,71.298828 c -0.807006,-0.336715 -0.908932,-0.501143 -0.880859,-0.464844 0.0016,-0.04983 0.0094,-0.0017 0.0078,-0.126953 -3.15e-4,-0.02539 -0.0035,7e-6 -0.0039,-0.02148 -0.01301,0.02145 0.02883,-0.08626 0.791016,-0.40625 1.832847,-0.769474 6.131509,-1.495857 10.945312,-2.134766 4.813804,-0.638908 10.183715,-1.197425 15.539063,-3.669922 5.355348,-2.472497 10.783608,-8.742044 10.980469,-16.193359 0.138947,-5.259275 -2.986561,-9.940666 -6.40625,-12.625 C 82.576399,32.97192 78.699682,31.382809 74.433588,30.06641 65.901406,27.433609 55.607428,26.141531 45.353516,25.375 35.099603,24.608469 24.908791,24.438035 17.28125,24.458984 Z"
     id="path2477" />
  <path
     style="color:#000000;fill:#9aa7b0;-inkscape-stroke:none"
     d="m 209,23.380859 c -7.62754,-0.02095 -17.81835,0.149485 -28.07227,0.916016 -10.25391,0.766531 -20.54789,2.05861 -29.08007,4.691406 -4.2661,1.316399 -8.14281,2.905512 -11.5625,5.589844 -3.41969,2.684332 -6.5452,7.365724 -6.40625,12.625 0.19686,7.451315 5.62512,13.720862 10.98046,16.193359 5.35535,2.472497 10.72526,3.031014 15.53907,3.669922 4.8138,0.638909 9.11246,1.365291 10.94531,2.134766 0.76219,0.319986 0.80402,0.427696 0.79102,0.40625 -4.2e-4,0.02147 -0.004,-0.0039 -0.004,0.02148 -0.002,0.125229 0.006,0.07712 0.008,0.126953 0.0281,-0.0363 -0.0738,0.128129 -0.88086,0.464844 -1.80801,0.754373 -6.00441,1.447824 -10.70312,2.052734 -4.69872,0.604911 -9.93356,1.104883 -15.20703,3.591797 -5.27348,2.486915 -10.49464,8.983948 -10.4375,16.330078 0.0565,7.261397 5.01697,13.613532 10.14062,16.250002 5.12366,2.63648 10.24711,3.31769 14.78711,4.07617 4.54,0.75848 8.52436,1.59045 10.22852,2.39844 1.70415,0.80799 1.01122,-0.35735 1.02929,1.09375 0.017,1.36187 0.42952,0.64691 -1.50586,1.73828 -1.93537,1.09137 -6.03355,2.29026 -10.64843,3.43164 -4.61488,1.14139 -9.73748,2.22745 -14.70118,4.94336 -4.96369,2.71592 -10.06542,8.79828 -10.01953,16.02735 0.0462,7.2734 5.56859,13.36785 10.74219,15.72851 5.1736,2.36066 10.38152,3.0026 15.09766,3.73438 4.71613,0.73177 8.95489,1.55609 10.83398,2.38672 0.69509,0.30725 0.71626,0.38447 0.78711,0.4414 -0.0769,0.0648 -0.19844,0.22528 -1.00781,0.58203 -2.00828,0.8852 -6.33769,1.74463 -11.14063,2.57422 -4.80293,0.8296 -10.12053,1.61321 -15.33984,4.28125 -5.21931,2.66805 -10.37318,9.07321 -10.31641,16.46289 0.0403,5.24025 3.24878,9.72449 6.67578,12.32813 3.42701,2.60363 7.29545,4.16227 11.54883,5.44922 8.50676,2.57389 18.73546,3.83226 28.9043,4.57226 20.33768,1.48001 40.35351,0.61328 40.35351,0.61328 l -0.69726,-16.41406 c 0,0 -19.37595,0.80306 -38.46289,-0.58594 -9.54347,-0.69449 -19.0362,-2.00481 -25.33985,-3.91211 -3.15182,-0.95364 -5.45922,-2.11487 -6.36718,-2.80468 -0.20561,-0.15621 -0.13113,-0.0573 -0.19727,-0.0937 -0.0158,-0.32648 0.11574,-0.34161 1.37695,-0.98633 1.84958,-0.94548 5.98531,-1.91391 10.65625,-2.7207 4.67095,-0.8068 9.8357,-1.46623 14.97266,-3.73047 2.56848,-1.13212 5.2505,-2.76364 7.41016,-5.44141 2.15966,-2.67777 3.46694,-6.40031 3.5039,-10.0332 0.0368,-3.61287 -1.17473,-7.36065 -3.29882,-10.08594 -2.1241,-2.72529 -4.81295,-4.38723 -7.37891,-5.52148 -5.13192,-2.26851 -10.27476,-2.86919 -14.95703,-3.59571 -4.68227,-0.72652 -8.89127,-1.57775 -10.79688,-2.44726 -1.9056,-0.86951 -1.12556,0.25659 -1.13281,-0.88477 -0.008,-1.18568 -0.49925,-0.42976 1.47461,-1.50976 1.97386,-1.08001 6.11771,-2.25961 10.76172,-3.40821 4.64401,-1.14859 9.79821,-2.26474 14.77344,-5.07031 4.97522,-2.80557 9.95559,-8.99899 9.86523,-16.25391 -0.0892,-7.16569 -5.34139,-13.32453 -10.41992,-15.73242 -5.07854,-2.407887 -10.09877,-3.014356 -14.56055,-3.759768 -4.46178,-0.745412 -8.33757,-1.634138 -9.97851,-2.478515 -1.64094,-0.844378 -1.2119,0.115824 -1.22657,-1.769532 -0.014,-1.80061 -0.64345,-0.561343 1.01563,-1.34375 1.65908,-0.782406 5.69914,-1.56434 10.29687,-2.15625 4.59774,-0.591909 9.71913,-1.01068 14.93164,-3.185547 2.60626,-1.087433 5.36477,-2.741539 7.53125,-5.472656 2.16649,-2.731116 3.3985,-6.451532 3.44336,-10.076172 0.0451,-3.645194 -1.12997,-7.443958 -3.29297,-10.226562 -2.16299,-2.782605 -4.9386,-4.453932 -7.56054,-5.554688 -5.24388,-2.20151 -10.4297,-2.645711 -15.14453,-3.271484 -4.71484,-0.625773 -8.91888,-1.425619 -10.81446,-2.300781 -1.28238,-0.592059 -1.4228,-0.608072 -1.42382,-0.941407 0.0633,-0.04175 -0.0144,0.05848 0.10742,-0.03711 0.84843,-0.665993 3.12163,-1.844907 6.26367,-2.814453 6.28408,-1.939092 15.83609,-3.2865 25.45898,-4.005859 19.2458,-1.43872 38.86524,-0.652344 38.86524,-0.652344 l 0.67383,-16.414063 c 0,0 -5.06387,-0.213426 -12.69141,-0.234375 z"
     id="path2477-6" />
  <rect
     style="fill:#40b6e0;fill-opacity:1;stroke:none;stroke-width:20.9148;stroke-miterlimit:4;stroke-dasharray:none;stroke-opacity:1"
     id="rect5530"
     width="20.556963"
     height="191.77252"
     x="103.23863"
     y="20.97299" />
  <rect
     style="fill:#f26522;fill-opacity:1;stroke-width:67.5258"
     id="rect5812"
     width="50.588829"
     height="18.903704"
     x="186.55191"
     y="105.55556" />
</svg>
