<?xml version="1.0" encoding="UTF-8" standalone="no"?>
<svg
   version="1.1"
   viewBox="0 0 298 298"
   enable-background="new 0 0 298 298"
   id="svg12592"
   sodipodi:docname="ycircuit-voltage-out.svg"
   inkscape:version="1.1.1 (c3084ef, 2021-09-22)"
   xmlns:inkscape="http://www.inkscape.org/namespaces/inkscape"
   xmlns:sodipodi="http://sodipodi.sourceforge.net/DTD/sodipodi-0.dtd"
   xmlns="http://www.w3.org/2000/svg"
   xmlns:svg="http://www.w3.org/2000/svg">
  <defs
     id="defs12596" />
  <sodipodi:namedview
     id="namedview12594"
     pagecolor="#ffffff"
     bordercolor="#666666"
     borderopacity="1.0"
     inkscape:pageshadow="2"
     inkscape:pageopacity="0.0"
     inkscape:pagecheckerboard="0"
     showgrid="false"
     inkscape:zoom="2.0147109"
     inkscape:cx="139.22593"
     inkscape:cy="137.98506"
     inkscape:window-width="1440"
     inkscape:window-height="872"
     inkscape:window-x="0"
     inkscape:window-y="28"
     inkscape:window-maximized="0"
     inkscape:current-layer="svg12592" />
  <path
     id="path10782"
     style="color:#000000;fill:#9aa7b0;fill-opacity:1;stroke:none;stroke-width:0.735636;stroke-opacity:0.8;-inkscape-stroke:none"
     d="m 137.46375,74.847487 c 1e-5,46.040023 0,92.080053 0,138.120083 8.06177,0 16.12353,0 24.18529,0 0,-46.59196 0,-93.18392 0,-139.775881 -8.06176,0 -16.12352,0 -24.18529,0 1e-5,0.551935 0,1.103863 0,1.655798 z" />
  <path
     style="color:#000000;fill:#40b6e0;fill-opacity:1;stroke-width:0.653656;-inkscape-stroke:none"
     d="m 149.64705,0.6583869 c -20.28199,0 -36.97372,16.6917361 -36.97372,36.9737111 0,20.281976 16.69173,36.973709 36.97372,36.973709 20.28196,0 36.9737,-16.691733 36.9737,-36.973709 0,-20.281975 -16.69174,-36.973711 -36.9737,-36.9737111 z m 0,23.3196991 c 7.67921,0 13.65401,5.97479 13.65401,13.654012 0,7.679222 -5.9748,13.654012 -13.65401,13.654012 -7.67923,0 -13.65402,-5.97479 -13.65402,-13.654012 0,-7.679222 5.97479,-13.654011 13.65402,-13.654012 z"
     id="path5063" />
  <g
     aria-label="Vout"
     id="text2571"
     style="font-size:138.823px;stroke-width:3.47056;fill:#40b6e0;fill-opacity:1">
    <path
       id="path7461"
       style="-inkscape-font-specification:'.Apple SD Gothic NeoI, Bold';fill:#40b6e0;fill-opacity:1"
       d="m 2.314453,195.56836 c 11.82185,33.52362 23.650003,67.04552 35.474609,100.56836 7.533855,0 15.067709,0 22.601563,0 C 72.528619,261.7259 84.66835,227.3157 96.80469,192.9043 c -8.16211,0 -16.32422,0 -24.486331,0 -7.39882,21.90699 -14.798221,43.81378 -22.197265,65.7207 -7.439443,-21.9069 -14.87897,-43.81378 -22.31836,-65.7207 -8.809244,0 -17.618489,0 -26.427734,0 0.313151,0.88802 0.626302,1.77604 0.939453,2.66406 z" />
    <path
       id="text6188"
       style="font-style:normal;font-weight:normal;font-size:40px;line-height:1.25;font-family:sans-serif;fill:#40b6e0;fill-opacity:1;stroke:none;stroke-width:6.56457"
       d="m 130.10033,229.59051 c -8.4159,0.19955 -16.95772,3.94336 -22.0213,10.81299 -4.41375,5.76616 -6.15337,13.13072 -6.31904,20.28324 -0.16501,6.22084 0.46204,12.59544 3.01272,18.33732 2.38363,5.59129 6.72272,10.35131 12.20189,13.02737 7.33933,3.62353 16.0353,3.93349 23.84333,1.74446 7.91326,-2.32152 14.58807,-8.4789 17.48609,-16.20783 2.91432,-7.39037 2.99147,-15.55715 2.00759,-23.33997 -1.12735,-7.6386 -4.92946,-15.15905 -11.38123,-19.62423 -5.45153,-3.83881 -12.24359,-5.28123 -18.83005,-5.03335 z m 47.89076,3.03746 c 0.0453,13.2786 -0.0949,26.55913 0.0786,39.8364 0.29295,6.67559 3.08828,13.52203 8.53038,17.62136 5.39782,4.05722 12.36192,5.36128 18.98958,5.12437 4.63721,-0.12143 9.37763,-0.88276 13.45625,-3.21083 3.789,-2.02622 6.84187,-5.33783 8.57662,-9.26738 2.59557,-5.64452 2.50773,-12.00157 2.42412,-18.08037 0,-11.4188 0,-22.83761 0,-34.2564 -6.78505,0 -13.5701,0 -20.35515,0 -0.0397,13.65637 0.0854,27.31505 -0.0705,40.96992 -0.17572,1.45697 -0.15191,3.24033 -1.37303,4.2606 -2.04907,0.68409 -4.35047,0.76485 -6.43671,0.16798 -1.58861,-0.27413 -1.99718,-2.09016 -2.15861,-3.44501 -0.20476,-1.91232 -0.17038,-3.76078 -0.17055,-5.73549 -6.2e-4,-12.07267 -0.001,-24.14534 -0.002,-36.218 -7.163,0 -14.32601,0 -21.48901,0 0,0.74429 0,1.48856 0,2.23285 z m 67.89047,0 c 0,5.71369 0,11.42738 0,17.14107 4.96941,0 9.93882,0 14.90822,0 0,14.85442 0,29.70885 0,44.56328 7.11212,0 14.22426,0 21.33638,0 0,-14.85443 0,-29.70886 0,-44.56328 4.91707,0 9.83414,0 14.75122,0 0,-6.45798 0,-12.91594 0,-19.37392 -16.9986,0 -33.99721,0 -50.99582,0 0,0.74429 0,1.48856 0,2.23285 z m -114.6539,16.22743 c 2.41251,-0.0855 5.12954,0.95623 6.10328,3.32311 1.97698,4.55739 1.61342,9.69564 1.4618,14.47863 -0.27302,2.91872 -0.93859,6.17587 -3.33705,8.11374 -1.78989,1.25045 -4.18123,1.40795 -6.26844,0.96555 -1.65286,-0.3092 -3.08746,-1.39292 -3.80668,-2.91648 -1.42822,-2.85442 -1.5695,-6.13929 -1.65584,-9.27117 -0.0358,-4.02215 -0.21256,-8.36652 1.93824,-11.94156 1.06617,-2.00897 3.4034,-2.82256 5.56469,-2.75182 z" />
  </g>
</svg>
