<?xml version="1.0" encoding="UTF-8" standalone="no"?>
<svg
   width="512px"
   height="512px"
   viewBox="0 0 512 512"
   version="1.1"
   id="svg827"
   sodipodi:docname="ycircuit-gate-xor.svg"
   inkscape:version="1.1.1 (c3084ef, 2021-09-22)"
   xmlns:inkscape="http://www.inkscape.org/namespaces/inkscape"
   xmlns:sodipodi="http://sodipodi.sourceforge.net/DTD/sodipodi-0.dtd"
   xmlns="http://www.w3.org/2000/svg"
   xmlns:svg="http://www.w3.org/2000/svg">
  <defs
     id="defs831" />
  <sodipodi:namedview
     id="namedview829"
     pagecolor="#ffffff"
     bordercolor="#666666"
     borderopacity="1.0"
     inkscape:pageshadow="2"
     inkscape:pageopacity="0.0"
     inkscape:pagecheckerboard="0"
     showgrid="false"
     inkscape:zoom="1.0800781"
     inkscape:cx="242.11212"
     inkscape:cy="259.24051"
     inkscape:window-width="1440"
     inkscape:window-height="872"
     inkscape:window-x="0"
     inkscape:window-y="28"
     inkscape:window-maximized="1"
     inkscape:current-layer="svg827" />
  <path
     d="m 0.309853,326.19711 v 41.58049 h 76.529982 c 2.453321,-13.62916 4.702199,-27.48933 6.746633,-41.58049 z"
     id="path1435"
     style="fill:#40b6e0;fill-opacity:1;stroke:none;stroke-width:1.25469;stroke-opacity:1" />
  <path
     d="m 455.92845,245.06202 c 0.84002,6.06803 1.40003,12.34531 1.40003,18.83183 0,6.48653 -0.56001,12.7638 -1.40003,18.83184 h 56.00105 v -37.66367 z"
     id="path1433"
     style="fill:#40b6e0;fill-opacity:1;stroke-width:1.71157" />
  <path
     d="m -0.4864567,157.7776 v 41.58049 H 82.66061 C 80.619356,185.26693 78.37398,171.40676 75.924473,157.7776 Z"
     id="path1429"
     style="fill:#40b6e0;fill-opacity:1;stroke:none;stroke-width:1.25371;stroke-opacity:1" />
  <path
     d="m 141.11048,92.406856 c 49.38663,51.275884 74.57384,109.924774 74.57384,168.685374 0,58.7606 -25.18721,117.40949 -74.57384,168.68537 h 93.0938 c 42.10211,0 101.11915,-37.98214 147.29565,-79.76249 23.08824,-20.77846 43.33676,-42.33891 57.53543,-59.54258 7.16105,-8.49013 12.84051,-16.08655 16.54452,-21.67216 1.72853,-2.79281 3.08666,-5.25047 3.95093,-6.81444 0.12346,-0.44685 0.24693,-0.55856 0.24693,-0.8937 0,-0.33514 -0.12347,-0.55856 -0.24693,-1.00541 -0.74081,-1.56397 -2.09894,-3.90993 -3.95093,-6.70273 -3.70401,-5.69732 -9.26,-13.18204 -16.2976,-21.78387 C 425.33056,214.39654 405.32897,192.94781 382.36419,172.16934 336.43462,130.38899 277.54107,92.406856 234.20428,92.406856 Z"
     id="path913"
     style="fill:#9aa7b0;fill-opacity:1;stroke-width:1.17443" />
  <path
     style="fill:none;stroke:#f36522;stroke-width:45;stroke-linecap:butt;stroke-linejoin:miter;stroke-miterlimit:4;stroke-dasharray:none;stroke-opacity:0.8"
     d="m 81.403255,99.066908 c 0,0 70.786085,99.090762 70.365285,156.470162 -0.4208,57.3794 -73.142862,156.47016 -73.142862,156.47016"
     id="path1211"
     sodipodi:nodetypes="czc" />
</svg>
