<?xml version="1.0" encoding="UTF-8" standalone="no"?>
<svg
   version="1.1"
   viewBox="0 0 298 298"
   enable-background="new 0 0 298 298"
   id="svg12592"
   sodipodi:docname="ycircuit-voltage-in.svg"
   inkscape:version="1.1.1 (c3084ef, 2021-09-22)"
   xmlns:inkscape="http://www.inkscape.org/namespaces/inkscape"
   xmlns:sodipodi="http://sodipodi.sourceforge.net/DTD/sodipodi-0.dtd"
   xmlns="http://www.w3.org/2000/svg"
   xmlns:svg="http://www.w3.org/2000/svg">
  <defs
     id="defs12596" />
  <sodipodi:namedview
     id="namedview12594"
     pagecolor="#ffffff"
     bordercolor="#666666"
     borderopacity="1.0"
     inkscape:pageshadow="2"
     inkscape:pageopacity="0.0"
     inkscape:pagecheckerboard="0"
     showgrid="false"
     inkscape:zoom="1.8120805"
     inkscape:cx="146.51667"
     inkscape:cy="149"
     inkscape:window-width="1440"
     inkscape:window-height="872"
     inkscape:window-x="0"
     inkscape:window-y="28"
     inkscape:window-maximized="0"
     inkscape:current-layer="svg12592" />
  <path
     id="path6096"
     style="color:#000000;fill:#9aa7b0;fill-opacity:1;stroke:none;stroke-width:0.694457;stroke-opacity:0.8;-inkscape-stroke:none"
     d="m 139.02597,78.362303 c 1e-5,41.029827 0,82.059657 0,123.089497 8.06177,0 16.12353,0 24.18529,0 0,-41.5217 0,-83.04341 0,-124.565107 -8.06176,0 -16.12352,0 -24.18529,0 1e-5,0.491872 0,0.983738 0,1.47561 z" />
  <path
     style="color:#000000;fill:#40b6e0;fill-opacity:1;stroke-width:0.653656;-inkscape-stroke:none"
     d="m 151.20927,4.353391 c -20.28199,0 -36.97372,16.691736 -36.97372,36.973711 0,20.281976 16.69173,36.973709 36.97372,36.973709 20.28196,0 36.9737,-16.691733 36.9737,-36.973709 0,-20.281975 -16.69174,-36.973711 -36.9737,-36.973711 z m 0,23.319699 c 7.67921,0 13.65401,5.97479 13.65401,13.654012 0,7.679222 -5.9748,13.654012 -13.65401,13.654012 -7.67923,0 -13.65402,-5.97479 -13.65402,-13.654012 0,-7.679222 5.97479,-13.654011 13.65402,-13.654012 z"
     id="path6093" />
  <g
     aria-label="Vout"
     id="text2571"
     style="font-size:138.823px;fill:#40b6e0;fill-opacity:1;stroke-width:3.47056"
     transform="translate(15.562222,3.695004)">
    <path
       id="path6090"
       style="-inkscape-font-specification:'.Apple SD Gothic NeoI, Bold';fill:#40b6e0;fill-opacity:1"
       d="m 10.314453,181.56836 c 11.82185,33.52362 23.650003,67.04552 35.474609,100.56836 7.533855,0 15.067709,0 22.601563,0 C 80.528619,247.7259 92.66835,213.3157 104.80469,178.9043 c -8.16211,0 -16.32422,0 -24.486331,0 -7.39882,21.90699 -14.798221,43.81378 -22.197265,65.7207 -7.439443,-21.9069 -14.87897,-43.81378 -22.31836,-65.7207 -8.809244,0 -17.618489,0 -26.427734,0 0.313151,0.88802 0.626302,1.77604 0.939453,2.66406 z" />
    <path
       id="text2109"
       style="font-style:normal;font-variant:normal;font-weight:bold;font-stretch:normal;font-size:94.011px;line-height:1.25;font-family:'.Apple SD Gothic NeoI';-inkscape-font-specification:'.Apple SD Gothic NeoI, Bold';font-variant-ligatures:normal;font-variant-caps:normal;font-variant-numeric:normal;font-variant-east-asian:normal;fill:#40b6e0;fill-opacity:1;stroke:none;stroke-width:8.15677"
       d="m 143.46289,210.9668 c 0,24.83073 0,49.66146 0,74.49218 7.88607,0 15.77214,0 23.6582,0 0,-25.49739 0,-50.99479 0,-76.49218 -7.88606,0 -15.77213,0 -23.6582,0 0,0.66666 0,1.33333 0,2 z m 52.04883,0 c 0,24.83073 0,49.66146 0,74.49218 7.41536,0 14.83073,0 22.24609,0 0,-10.95377 0,-21.90755 0,-32.86132 6.37616,10.95386 12.75349,21.90704 19.12891,32.86132 6.97331,0 13.94661,0 20.91992,0 0,-25.49739 0,-50.99479 0,-76.49218 -7.41536,0 -14.83073,0 -22.24609,0 0,9.98958 0,19.97916 0,29.96875 -5.88291,-9.98953 -11.76504,-19.97952 -17.64844,-29.96875 -7.4668,0 -14.93359,0 -22.40039,0 0,0.66666 0,1.33333 0,2 z" />
  </g>
</svg>
