<?xml version="1.0" encoding="UTF-8" standalone="no"?>
<svg
   version="1.1"
   viewBox="0 0 298 298"
   enable-background="new 0 0 298 298"
   id="svg1380"
   sodipodi:docname="ycircuit-voltmeter.svg"
   inkscape:version="1.1.1 (c3084ef, 2021-09-22)"
   xmlns:inkscape="http://www.inkscape.org/namespaces/inkscape"
   xmlns:sodipodi="http://sodipodi.sourceforge.net/DTD/sodipodi-0.dtd"
   xmlns="http://www.w3.org/2000/svg"
   xmlns:svg="http://www.w3.org/2000/svg">
  <defs
     id="defs1384" />
  <sodipodi:namedview
     id="namedview1382"
     pagecolor="#ffffff"
     bordercolor="#666666"
     borderopacity="1.0"
     inkscape:pageshadow="2"
     inkscape:pageopacity="0.0"
     inkscape:pagecheckerboard="0"
     showgrid="false"
     inkscape:zoom="1.8557047"
     inkscape:cx="164.62749"
     inkscape:cy="147.38336"
     inkscape:window-width="1440"
     inkscape:window-height="775"
     inkscape:window-x="0"
     inkscape:window-y="25"
     inkscape:window-maximized="0"
     inkscape:current-layer="g1378" />
  <g
     id="g1378">
    <path
       id="path1891"
       d="M 147.88672,30.173828 C 126.10046,30.394854 104.41778,36.798281 86.020526,48.473987 65.49779,61.419733 49.0622,80.75943 39.707638,103.15744 35.15716,114.00732 32.233645,125.53986 31.087891,137.25 c -11.695964,0 -23.3919275,0 -35.087891,0 0,8 0,16 0,24 11.7102865,0 23.420573,0 35.130859,0 2.258312,22.2803 11.05647,43.8341 24.98308,61.36673 14.473326,18.32608 34.419348,32.29794 56.658151,39.46286 24.22089,7.87057 50.98923,7.6629 75.06782,-0.64969 19.81346,-6.79159 37.73199,-18.95768 51.40793,-34.81605 14.41692,-16.64771 24.10744,-37.36542 27.47668,-59.13939 0.32001,-2.06775 0.594,-4.14293 0.80673,-6.22446 11.48958,0 22.97917,0 34.46875,0 0,-8 0,-16 0,-24 -11.47331,0 -22.94661,0 -34.41992,0 C 265.41343,114.87959 256.64904,93.213414 242.71122,75.587557 228.36649,57.337753 208.60017,43.385313 186.53839,36.131126 174.10334,32.020069 160.98125,30.012627 147.88672,30.173828 Z m 1.4375,23.992188 c 1.55292,0.01119 3.22152,0.04015 4.65387,0.119187 2.51194,0.117777 5.17594,0.354327 7.57269,0.665969 20.86188,2.634543 40.67764,12.578603 55.3693,27.60392 13.59557,13.764084 22.84416,31.776108 25.96499,50.879598 1.81373,10.94 1.69835,22.19884 -0.34601,33.09851 -0.18618,1.00775 -0.40634,2.07352 -0.6529,3.17573 -3.01049,13.56362 -9.11957,26.40838 -17.64593,37.37115 -0.44335,0.56178 -1.07233,1.37097 -1.60981,2.01233 -3.20867,3.92039 -6.73846,7.57613 -10.52886,10.93689 -0.47584,0.41286 -1.19245,1.04425 -1.77463,1.52564 -7.13191,6.01086 -15.14992,10.96589 -23.72341,14.64037 -0.43222,0.1735 -1.24497,0.52332 -1.68384,0.70099 -3.5331,1.43507 -7.15279,2.65504 -10.83179,3.65839 -0.68429,0.18104 -1.66961,0.44612 -2.47614,0.63428 -6.02453,1.47066 -12.19783,2.31207 -18.393,2.56494 -0.67558,0.0217 -1.67148,0.059 -2.47179,0.0646 -4.50578,0.0737 -9.15289,-0.19579 -13.53798,-0.758 -1.42654,-0.18496 -2.76123,-0.38519 -4.22656,-0.63672 -1.56051,-0.27636 -3.07536,-0.57761 -4.67503,-0.93702 -1.76674,-0.40026 -3.59956,-0.87006 -5.23592,-1.3521 -2.8945,-0.82811 -5.89732,-1.86733 -8.59881,-2.9433 -8.69368,-3.45819 -16.871246,-8.206 -24.189457,-14.03516 -0.659145,-0.53552 -1.547437,-1.25212 -2.276393,-1.87749 -11.095985,-9.41257 -19.980203,-21.4059 -25.766576,-34.75532 -0.41386,-0.97972 -0.930929,-2.19524 -1.345274,-3.28424 -6.381835,-16.36262 -8.014731,-34.51873 -4.768007,-51.7724 0.186186,-1.00775 0.406347,-2.07352 0.652907,-3.17573 3.010481,-13.56362 9.119566,-26.40838 17.645921,-37.371148 0.443354,-0.561777 1.07233,-1.370969 1.609814,-2.012335 3.208672,-3.920391 6.738464,-7.576125 10.528858,-10.936884 0.475848,-0.41286 1.192454,-1.044251 1.774629,-1.525643 7.13191,-6.010864 15.149928,-10.96589 23.723418,-14.640372 0.43221,-0.173499 1.24497,-0.523317 1.68384,-0.700988 3.5331,-1.435073 7.15279,-2.65504 10.83178,-3.658388 0.6843,-0.181047 1.66962,-0.446121 2.47614,-0.634287 7.28161,-1.778831 14.77682,-2.633874 22.26996,-2.645009 z"
       style="fill:#9aa7b0;fill-opacity:1" />
    <path
       id="path1888"
       d="M 97.857422,98.980469 C 111.50578,133.73701 125.15513,168.49316 138.80273,203.25 c 7.20834,0 14.41667,0 21.625,0 13.90416,-35.66698 27.81087,-71.33296 41.71485,-107 -9.62826,0 -19.25651,0 -28.88477,0 -7.88766,22.29788 -15.77751,44.59499 -23.66601,66.89258 -7.97279,-22.29748 -15.94455,-44.59533 -23.91797,-66.89258 -9.62956,0 -19.25912,0 -28.888674,0 0.357422,0.910156 0.714844,1.820313 1.072266,2.730469 z"
       style="fill:#40b6e0;fill-opacity:1" />
    <path
       style="color:#000000;fill:#40b6e0;stroke-width:0.579606;-inkscape-stroke:none"
       d="m 268.22489,136.33555 -0.26377,24.84949 48.57711,0.51621 0.2649,-24.84835 z"
       id="path1885" />
    <path
       style="color:#000000;fill:#40b6e0;stroke-width:0.579606;-inkscape-stroke:none"
       d="m -17.490349,136.73265 -0.26377,24.84949 48.57711,0.51621 0.2649,-24.84835 z"
       id="path1882" />
  </g>
</svg>
