<?xml version="1.0" encoding="UTF-8" standalone="no"?>
<!-- Generator: Adobe Illustrator 18.0.0, SVG Export Plug-In . SVG Version: 6.00 Build 0)  -->

<svg
   version="1.1"
   id="Capa_1"
   x="0px"
   y="0px"
   viewBox="0 0 462.782 462.782"
   style="enable-background:new 0 0 462.782 462.782;"
   xml:space="preserve"
   sodipodi:docname="ycircuit-resistor.svg"
   inkscape:version="1.1.1 (c3084ef, 2021-09-22)"
   xmlns:inkscape="http://www.inkscape.org/namespaces/inkscape"
   xmlns:sodipodi="http://sodipodi.sourceforge.net/DTD/sodipodi-0.dtd"
   xmlns="http://www.w3.org/2000/svg"
   xmlns:svg="http://www.w3.org/2000/svg"><defs
   id="defs4449" /><sodipodi:namedview
   id="namedview4447"
   pagecolor="#ffffff"
   bordercolor="#666666"
   borderopacity="1.0"
   inkscape:pageshadow="2"
   inkscape:pageopacity="0.0"
   inkscape:pagecheckerboard="0"
   showgrid="false"
   inkscape:zoom="1.194947"
   inkscape:cx="263.19158"
   inkscape:cy="225.95143"
   inkscape:window-width="1440"
   inkscape:window-height="872"
   inkscape:window-x="0"
   inkscape:window-y="28"
   inkscape:window-maximized="0"
   inkscape:current-layer="Capa_1" />

<g
   id="g4416">
</g>
<g
   id="g4418">
</g>
<g
   id="g4420">
</g>
<g
   id="g4422">
</g>
<g
   id="g4424">
</g>
<g
   id="g4426">
</g>
<g
   id="g4428">
</g>
<g
   id="g4430">
</g>
<g
   id="g4432">
</g>
<g
   id="g4434">
</g>
<g
   id="g4436">
</g>
<g
   id="g4438">
</g>
<g
   id="g4440">
</g>
<g
   id="g4442">
</g>
<g
   id="g4444">
</g>
<g
   id="XMLID_21_"
   transform="matrix(1,0,0,0.78206363,1.3976644,46.661251)"
   style="fill:#9aa7b0;fill-opacity:1;stroke:none;stroke-opacity:0.8"><path
     id="XMLID_904_"
     d="m 284.22461,135.24219 c -7.18128,0.0949 -14.1462,4.48797 -17.18631,11.01905 -1.32752,2.90908 -2.15813,6.00994 -3.27672,9.00045 -10.96024,31.56772 -21.92048,63.13544 -32.88072,94.70315 -12.56966,-34.23424 -25.12555,-68.47399 -37.72068,-102.6986 -2.76893,-6.86407 -9.7626,-11.76684 -17.16604,-12.00062 -7.75185,-0.43973 -15.51864,4.28951 -18.60871,11.42452 -1.17941,2.7056 -1.98,5.46683 -3.01909,8.20124 -11.68461,32.71524 -23.36923,65.43049 -35.05384,98.14573 -5.50374,-13.63386 -10.95236,-27.29063 -16.50677,-40.90316 -3.082754,-6.73303 -10.302875,-11.33745 -17.721269,-11.19692 -13.314431,-0.0358 -26.629809,-0.005 -39.944617,-0.0152 -16.554427,-1e-5 -33.108854,0 -49.6632815,0 0,13.01562 0,26.03125 0,39.04687 25.4934895,0 50.9869795,0 76.4804685,0 10.243392,25.41035 20.44327,50.83855 30.725859,76.23262 2.92566,6.51169 9.69565,11.06553 16.83078,11.32207 7.01535,0.36882 14.07481,-3.38916 17.633,-9.4566 1.79613,-3.08414 2.64656,-6.58714 3.93205,-9.89156 11.43665,-32.02262 22.8733,-64.04524 34.30995,-96.06786 12.66872,34.50084 25.31646,69.01017 38.01657,103.49899 2.75856,6.7361 9.5866,11.55682 16.85891,11.90269 6.86494,0.44609 13.8164,-3.06423 17.51688,-8.86824 2.09473,-3.29273 2.96085,-7.15348 4.32706,-10.7667 11.46787,-33.02837 22.93575,-66.05673 34.40363,-99.0851 15.38586,35.89522 30.75802,71.7969 46.1701,107.68051 3.08018,6.6012 10.14482,11.08139 17.42833,11.07088 7.01512,0.11023 13.91839,-3.89921 17.25764,-10.07752 1.69887,-3.21217 2.43734,-6.80669 3.60265,-10.22421 7.00725,-22.42332 14.0145,-44.84665 21.02175,-67.26997 25.10416,0 50.20833,0 75.3125,0 0,-13.01562 0,-26.03125 0,-39.04687 -30.20204,0.005 -60.40485,-0.0196 -90.60639,0.0259 -7.54218,0.27942 -14.67195,5.39063 -17.26476,12.49574 -1.03852,2.83487 -1.80038,5.76261 -2.75422,8.62682 -3.09168,9.89517 -6.18335,19.79035 -9.27502,29.68552 -15.06635,-35.1472 -30.11727,-70.30161 -45.20724,-105.43831 -3.0805,-6.60698 -10.15111,-11.08975 -17.43964,-11.07732 -0.17756,0.002 -0.35535,-0.003 -0.53281,0.002 z"
     style="fill:#9aa7b0;fill-opacity:1;stroke:none;stroke-opacity:0.8" /></g><rect
   style="fill:none;stroke:none;stroke-width:30;stroke-miterlimit:4;stroke-dasharray:none;stroke-opacity:0.8"
   id="rect5496"
   width="76.480469"
   height="30.537136"
   x="-3.1257677"
   y="203.79491" /><rect
   style="fill:#40b6e0;fill-opacity:1;stroke:none;stroke-width:30;stroke-miterlimit:4;stroke-dasharray:none;stroke-opacity:0.8"
   id="rect6074"
   width="76.480469"
   height="30.537149"
   x="-3.1257677"
   y="203.79491" /><rect
   style="fill:#40b6e0;fill-opacity:1;stroke:none;stroke-width:30;stroke-miterlimit:4;stroke-dasharray:none;stroke-opacity:0.8"
   id="rect6074-9"
   width="76.480469"
   height="30.537149"
   x="392.22186"
   y="203.79491" /></svg>
