<?xml version="1.0" encoding="UTF-8" standalone="no"?>
<svg
   width="24px"
   height="24px"
   viewBox="0 0 24 24"
   version="1.1"
   id="svg826"
   sodipodi:docname="ycircuit-wire.svg"
   inkscape:version="1.1.1 (c3084ef, 2021-09-22)"
   xmlns:inkscape="http://www.inkscape.org/namespaces/inkscape"
   xmlns:sodipodi="http://sodipodi.sourceforge.net/DTD/sodipodi-0.dtd"
   xmlns="http://www.w3.org/2000/svg"
   xmlns:svg="http://www.w3.org/2000/svg">
  <defs
     id="defs830" />
  <sodipodi:namedview
     id="namedview828"
     pagecolor="#ffffff"
     bordercolor="#666666"
     borderopacity="1.0"
     inkscape:pageshadow="2"
     inkscape:pageopacity="0.0"
     inkscape:pagecheckerboard="0"
     showgrid="false"
     inkscape:zoom="20.038514"
     inkscape:cx="11.053714"
     inkscape:cy="9.6813568"
     inkscape:window-width="1440"
     inkscape:window-height="900"
     inkscape:window-x="0"
     inkscape:window-y="0"
     inkscape:window-maximized="0"
     inkscape:current-layer="svg826" />
  <path
     style="color:#000000;fill:#9aa7b0;fill-opacity:1;stroke-width:0.0965716;stroke-linecap:round;-inkscape-stroke:none"
     d="M 17.372022,5.7252834 5.5617531,17.472625 a 0.82088835,0.82088835 0 0 0 -0.0031,1.160735 0.82088835,0.82088835 0 0 0 1.160936,0.0032 L 18.599955,6.819601 A 3.0818518,3.0968851 0 0 1 17.371998,5.7252883 Z"
     id="path1472" />
  <path
     id="path28706-6-7"
     style="fill:#40b6e0;fill-opacity:1;stroke-width:1.89388;stroke-linecap:round;stroke-miterlimit:4;stroke-dasharray:none"
     d="m 19.599666,1.1321142 a 3.1408511,3.1561725 0 0 0 -3.140819,3.1561792 3.1408511,3.1561725 0 0 0 3.140819,3.156129 3.1408511,3.1561725 0 0 0 3.140873,-3.156129 3.1408511,3.1561725 0 0 0 -3.140873,-3.1561792 z m -0.03372,1.664755 A 1.5275177,1.5275177 0 0 1 21.093483,4.3243536 1.5275177,1.5275177 0 0 1 19.565946,5.851888 1.5275177,1.5275177 0 0 1 18.038411,4.3243536 1.5275177,1.5275177 0 0 1 19.565946,2.7968692 Z" />
  <path
     id="path28706-6-7-7"
     style="fill:#40b6e0;fill-opacity:1;stroke-width:1.89388;stroke-linecap:round;stroke-miterlimit:4;stroke-dasharray:none"
     d="m 3.9693381,16.743173 a 3.1408511,3.1561725 0 0 0 -3.14081903,3.156179 3.1408511,3.1561725 0 0 0 3.14081903,3.156129 3.1408511,3.1561725 0 0 0 3.140873,-3.156129 3.1408511,3.1561725 0 0 0 -3.140873,-3.156179 z m -0.03372,1.664755 a 1.5275177,1.5275177 0 0 1 1.527535,1.527484 1.5275177,1.5275177 0 0 1 -1.527535,1.527535 1.5275177,1.5275177 0 0 1 -1.527537,-1.527535 1.5275177,1.5275177 0 0 1 1.527537,-1.527484 z" />
</svg>
