<?xml version="1.0" encoding="UTF-8" standalone="no"?>
<svg
   version="1.1"
   viewBox="0 0 298 298"
   enable-background="new 0 0 298 298"
   id="svg12592"
   sodipodi:docname="ycircuit-transistor-npn.svg"
   inkscape:version="1.1.1 (c3084ef, 2021-09-22)"
   xmlns:inkscape="http://www.inkscape.org/namespaces/inkscape"
   xmlns:sodipodi="http://sodipodi.sourceforge.net/DTD/sodipodi-0.dtd"
   xmlns="http://www.w3.org/2000/svg"
   xmlns:svg="http://www.w3.org/2000/svg">
  <defs
     id="defs12596" />
  <sodipodi:namedview
     id="namedview12594"
     pagecolor="#ffffff"
     bordercolor="#666666"
     borderopacity="1.0"
     inkscape:pageshadow="2"
     inkscape:pageopacity="0.0"
     inkscape:pagecheckerboard="0"
     showgrid="false"
     inkscape:zoom="2.1462849"
     inkscape:cx="172.15795"
     inkscape:cy="151.42445"
     inkscape:window-width="1440"
     inkscape:window-height="872"
     inkscape:window-x="0"
     inkscape:window-y="28"
     inkscape:window-maximized="0"
     inkscape:current-layer="svg12592" />
  <path
     style="color:#000000;fill:#9aa7b0;-inkscape-stroke:none"
     d="m 61.974609,138.69336 -0.138672,17.29687 69.425783,0.5586 0.13867,-17.29883 z"
     id="path1093" />
  <path
     style="color:#000000;fill:#9aa7b0;-inkscape-stroke:none"
     d="M 128.09766,46.242187 V 248.94531 h 20 V 46.242187 Z"
     id="path1095" />
  <path
     style="color:#000000;fill:#9aa7b0;-inkscape-stroke:none"
     d="m 227.14844,54.666016 -96.38477,85.759764 13.29492,14.94141 96.38282,-85.759768 z"
     id="path1097" />
  <path
     style="color:#000000;fill:#9aa7b0;-inkscape-stroke:none"
     d="m 144.30469,140.65234 -13.78711,14.48828 94.51953,89.95313 13.78906,-14.48828 z"
     id="path1097-3" />
  <path
     style="color:#000000;fill:#40b6e0;-inkscape-stroke:none"
     d="m 36.796875,108.1582 c -20.777269,0 -37.8339844,17.05867 -37.8339844,37.83594 0,20.77727 17.0567154,37.83399 37.8339844,37.83398 20.777269,0 37.835937,-17.05671 37.835937,-37.83398 0,-20.77727 -17.058668,-37.83594 -37.835937,-37.83594 z m 0,20 c 9.968478,0 17.835937,7.86746 17.835937,17.83594 0,9.96848 -7.867459,17.83398 -17.835937,17.83398 -9.968478,0 -17.833984,-7.8655 -17.833984,-17.83398 0,-9.96848 7.865506,-17.83594 17.833984,-17.83594 z"
     id="path1223" />
  <path
     style="color:#000000;fill:#40b6e0;-inkscape-stroke:none"
     d="m 258.44922,1.1660156 c -20.77727,0 -37.83399,17.0586684 -37.83399,37.8359374 0,20.777269 17.05672,37.833984 37.83399,37.833984 20.77727,0 37.83594,-17.056715 37.83594,-37.833984 0,-20.777269 -17.05867,-37.8359374 -37.83594,-37.8359374 z m 0,20.0000004 c 9.96848,0 17.83594,7.86746 17.83594,17.835937 0,9.968478 -7.86746,17.833984 -17.83594,17.833984 -9.96848,0 -17.83399,-7.865506 -17.83399,-17.833984 0,-9.968477 7.86551,-17.835937 17.83399,-17.835937 z"
     id="path1223-7" />
  <path
     style="color:#000000;fill:#40b6e0;-inkscape-stroke:none"
     d="m 258.0625,221.82031 c -20.77727,0 -37.83398,17.05672 -37.83398,37.83399 0,20.77727 17.05671,37.83593 37.83398,37.83593 20.77727,0 37.83594,-17.05866 37.83594,-37.83593 0,-20.77727 -17.05867,-37.83399 -37.83594,-37.83399 z m 0,20 c 9.96848,0 17.83594,7.86551 17.83594,17.83399 0,9.96847 -7.86746,17.83593 -17.83594,17.83593 -9.96848,0 -17.83398,-7.86746 -17.83398,-17.83593 0,-9.96848 7.8655,-17.83399 17.83398,-17.83399 z"
     id="path1223-8" />
  <path
     style="fill:#f26522;fill-opacity:1;stroke:none;stroke-width:1.29996px;stroke-linecap:butt;stroke-linejoin:miter;stroke-opacity:1"
     d="m 176.52722,65.76325 63.26779,-9.62674 -19.55977,60.92894 z"
     id="path1851"
     sodipodi:nodetypes="cccc" />
</svg>
