<?xml version="1.0" encoding="UTF-8" standalone="no"?>
<!-- Generator: Adobe Illustrator 18.0.0, SVG Export Plug-In . SVG Version: 6.00 Build 0)  -->

<svg
   version="1.1"
   id="Capa_1"
   x="0px"
   y="0px"
   viewBox="0 0 460 460"
   style="enable-background:new 0 0 460 460;"
   xml:space="preserve"
   sodipodi:docname="ycircuit-diode-zener.svg"
   inkscape:version="1.1.1 (c3084ef, 2021-09-22)"
   xmlns:inkscape="http://www.inkscape.org/namespaces/inkscape"
   xmlns:sodipodi="http://sodipodi.sourceforge.net/DTD/sodipodi-0.dtd"
   xmlns="http://www.w3.org/2000/svg"
   xmlns:svg="http://www.w3.org/2000/svg"><defs
   id="defs13128" /><sodipodi:namedview
   id="namedview13126"
   pagecolor="#ffffff"
   bordercolor="#666666"
   borderopacity="1.0"
   inkscape:pageshadow="2"
   inkscape:pageopacity="0.0"
   inkscape:pagecheckerboard="0"
   showgrid="false"
   showguides="false"
   inkscape:zoom="1.2021739"
   inkscape:cx="259.94575"
   inkscape:cy="212.94756"
   inkscape:window-width="1440"
   inkscape:window-height="872"
   inkscape:window-x="0"
   inkscape:window-y="28"
   inkscape:window-maximized="0"
   inkscape:current-layer="Capa_1" />

<g
   id="g13095">
</g>
<g
   id="g13097">
</g>
<g
   id="g13099">
</g>
<g
   id="g13101">
</g>
<g
   id="g13103">
</g>
<g
   id="g13105">
</g>
<g
   id="g13107">
</g>
<g
   id="g13109">
</g>
<g
   id="g13111">
</g>
<g
   id="g13113">
</g>
<g
   id="g13115">
</g>
<g
   id="g13117">
</g>
<g
   id="g13119">
</g>
<g
   id="g13121">
</g>
<g
   id="g13123">
</g>
<path
   style="color:#000000;fill:#9aa7b0;stroke-linejoin:round;-inkscape-stroke:none"
   d="m 84.710937,52.96875 a 21.439644,21.439644 0 0 0 -21.359375,21.375 l -0.890625,316.52344 a 21.439644,21.439644 0 0 0 32.519532,18.41015 L 365.14062,246.11133 a 21.439644,21.439644 0 0 0 -0.4746,-36.97852 L 95.398437,55.775391 a 21.439644,21.439644 0 0 0 -10.6875,-2.806641 z m 21.412113,58.25586 205.57031,117.08008 -206.25,124.56445 z"
   id="path14292" /><path
   style="color:#000000;fill:#40b6e0;-inkscape-stroke:none"
   d="m 386.38281,205.43359 -0.45508,42.87305 83.81055,0.89063 0.45703,-42.8711 z"
   id="path14294" /><path
   style="color:#000000;fill:#40b6e0;-inkscape-stroke:none"
   d="m -16.253906,205.43359 -0.480469,42.87305 79.353516,0.89063 0.480468,-42.8711 z"
   id="path14296" /><path
   style="color:#000000;fill:#40b6e0;stroke-width:0.961745;stroke-linejoin:round;-inkscape-stroke:none;fill-opacity:1"
   d="m 369.37109,32.240178 a 20.002,18.500907 0 0 0 -20.18164,18.289497 l -4.24804,349.292545 -66.54883,-0.56364 -0.36719,36.9963 86.50586,0.73346 a 20.002,18.500907 0 0 0 20.18164,-18.2913 l 4.25,-349.290739 91.50195,0.775009 0.36719,-36.996307 z"
   id="path16572" /></svg>
