<?xml version="1.0" encoding="UTF-8" standalone="no"?>
<svg
   version="1.1"
   viewBox="0 0 298 298"
   enable-background="new 0 0 298 298"
   id="svg12592"
   sodipodi:docname="ycircuit-galvanometer.svg"
   inkscape:version="1.1.1 (c3084ef, 2021-09-22)"
   xmlns:inkscape="http://www.inkscape.org/namespaces/inkscape"
   xmlns:sodipodi="http://sodipodi.sourceforge.net/DTD/sodipodi-0.dtd"
   xmlns="http://www.w3.org/2000/svg"
   xmlns:svg="http://www.w3.org/2000/svg">
  <defs
     id="defs12596" />
  <sodipodi:namedview
     id="namedview12594"
     pagecolor="#ffffff"
     bordercolor="#666666"
     borderopacity="1.0"
     inkscape:pageshadow="2"
     inkscape:pageopacity="0.0"
     inkscape:pagecheckerboard="0"
     showgrid="false"
     inkscape:zoom="1.9023826"
     inkscape:cx="147.44668"
     inkscape:cy="150.33779"
     inkscape:window-width="1440"
     inkscape:window-height="872"
     inkscape:window-x="0"
     inkscape:window-y="28"
     inkscape:window-maximized="0"
     inkscape:current-layer="svg12592" />
  <path
     id="path12586"
     d="M 147.82247,21.896676 C 124.77893,22.133099 101.84494,28.982588 82.385981,41.471621 60.678878,55.319166 43.29479,76.006063 33.400376,99.964315 28.58729,111.57 25.495059,123.90589 24.283183,136.43176 c -12.370938,0 -24.74187527,0 -37.112813,0 0,8.55728 0,17.11455 0,25.67183 12.38608731,0 24.772174,0 37.158261,0 2.388639,23.83235 11.694539,46.88758 26.424854,65.64153 15.308581,19.60267 36.405688,34.54781 59.927895,42.21184 25.61867,8.41883 53.93182,8.19669 79.39998,-0.69495 20.9569,-7.26469 39.9095,-20.27827 54.37468,-37.24133 15.24892,-17.80739 25.49868,-39.96829 29.06236,-63.25903 0.33848,-2.21179 0.62828,-4.43153 0.85329,-6.65806 12.15264,0 24.3053,0 36.45794,0 0,-8.55728 0,-17.11455 0,-25.67183 -12.13543,0 -24.27086,0 -36.40629,0 C 272.13165,112.50303 262.86147,89.32759 248.11929,70.473918 232.94673,50.952836 212.0397,36.028471 188.70473,28.268959 175.55205,23.871526 161.67269,21.724246 147.82247,21.896676 Z m 1.52046,25.66348 c 1.64254,0.01197 3.40743,0.04295 4.92245,0.12749 2.6569,0.125981 5.47464,0.379009 8.00971,0.71236 22.06581,2.818065 43.02514,13.454827 58.56466,29.526805 14.38017,14.722888 24.16249,33.989629 27.46343,54.423859 1.9184,11.70208 1.79636,23.74521 -0.36598,35.40415 -0.19693,1.07795 -0.42979,2.21796 -0.69058,3.39695 -3.18423,14.50846 -9.64586,28.24798 -18.66428,39.97442 -0.46893,0.60091 -1.13421,1.46647 -1.70271,2.15251 -3.39384,4.19348 -7.12734,8.10388 -11.13648,11.69875 -0.5033,0.44162 -1.26127,1.11699 -1.87704,1.63192 -7.5435,6.42957 -16.02422,11.72977 -25.09249,15.66021 -0.45716,0.18559 -1.31682,0.55978 -1.78102,0.74982 -3.73699,1.53504 -7.56557,2.83999 -11.45689,3.91324 -0.72378,0.19365 -1.76596,0.47719 -2.61904,0.67846 -6.3722,1.57311 -12.90176,2.47313 -19.45446,2.74361 -0.71456,0.0232 -1.76794,0.0631 -2.61443,0.0691 -4.76581,0.0788 -9.68111,-0.20943 -14.31926,-0.8108 -1.50887,-0.19784 -2.92058,-0.41202 -4.47047,-0.68107 -1.65057,-0.29561 -3.25284,-0.61785 -4.94483,-1.0023 -1.8687,-0.42814 -3.80729,-0.93066 -5.53809,-1.44628 -3.06154,-0.8858 -6.23765,-1.99741 -9.09504,-3.14833 -9.1954,-3.69909 -17.844888,-8.77763 -25.585433,-15.01285 -0.697185,-0.57282 -1.63674,-1.33934 -2.407764,-2.00828 -11.736334,-10.06824 -21.13326,-22.89703 -27.253565,-37.17637 -0.437744,-1.04796 -0.984653,-2.34816 -1.42291,-3.51302 -6.75013,-17.50243 -8.477261,-36.92329 -5.043168,-55.37885 0.19693,-1.07795 0.429797,-2.21796 0.690586,-3.39695 3.184216,-14.50846 9.645856,-28.247987 18.664267,-39.974419 0.46894,-0.600911 1.134214,-1.466471 1.702716,-2.152514 3.393845,-4.193485 7.127341,-8.103877 11.136479,-11.698746 0.503309,-0.44162 1.26127,-1.116993 1.877042,-1.631919 7.543493,-6.42958 16.02423,-11.729772 25.0925,-15.660218 0.45715,-0.185585 1.31681,-0.559771 1.78101,-0.749819 3.737,-1.53504 7.56558,-2.839989 11.45688,-3.91323 0.72379,-0.193659 1.76598,-0.477198 2.61904,-0.678472 7.70183,-1.902744 15.62959,-2.817349 23.55516,-2.82926 z"
     style="stroke-width:1.06367;fill:#9aa7b0;fill-opacity:1" />
  <g
     aria-label="G"
     id="text13267"
     style="font-size:172.404px;-inkscape-font-specification:sans-serif;stroke-width:4.31011;fill:#40b6e0;fill-opacity:1;stroke:#40b6e0;stroke-opacity:1"
     transform="matrix(1.0790413,0,0,1.0763746,-15.390747,-9.897371)">
    <path
       d="m 201.69956,201.87996 q -10.27016,4.71417 -22.4765,8.2498 -12.12215,3.45145 -23.48668,3.45145 -14.6476,0 -26.85394,-4.04072 -12.20634,-4.04072 -20.79287,-12.12216 -8.670705,-8.16562 -13.384878,-20.37196 -4.714172,-12.29052 -4.714172,-28.70594 0,-30.05285 17.50978,-47.39426 17.59397,-17.425604 48.23608,-17.425604 10.69107,0 21.80305,2.609631 11.19616,2.525449 24.07595,8.670709 v 19.782684 h -1.51527 q -2.60963,-2.02036 -7.57635,-5.30344 -4.96671,-3.28309 -9.76507,-5.47181 -5.80853,-2.60963 -13.21652,-4.293262 -7.3238,-1.767814 -16.66796,-1.767814 -21.04541,0 -33.33593,13.553246 -12.20634,13.46906 -12.20634,36.53483 0,24.3285 12.79561,37.88174 12.79561,13.46906 34.8512,13.46906 8.08144,0 16.07869,-1.59945 8.08144,-1.59945 14.14252,-4.1249 v -30.7263 h -33.58848 v -14.6476 h 50.08808 z"
       id="path7274"
       style="fill:#40b6e0;fill-opacity:1;stroke:#40b6e0;stroke-opacity:1" />
  </g>
  <path
     style="color:#000000;fill:#40b6e0;stroke-width:0.579606;-inkscape-stroke:none"
     d="m 275.73053,136.34079 -0.26377,24.84949 48.57711,0.51621 0.2649,-24.84835 z"
     id="path14294" />
  <path
     style="color:#000000;fill:#40b6e0;stroke-width:0.579606;-inkscape-stroke:none"
     d="m -23.984709,136.73789 -0.26377,24.84949 48.57711,0.51621 0.2649,-24.84835 z"
     id="path14294-0" />
</svg>
