<?xml version="1.0" encoding="UTF-8" standalone="no"?>
<svg
   width="512px"
   height="512px"
   viewBox="0 0 512 512"
   version="1.1"
   id="svg827"
   sodipodi:docname="ycircuit-gate-nand.svg"
   inkscape:version="1.1.1 (c3084ef, 2021-09-22)"
   xmlns:inkscape="http://www.inkscape.org/namespaces/inkscape"
   xmlns:sodipodi="http://sodipodi.sourceforge.net/DTD/sodipodi-0.dtd"
   xmlns="http://www.w3.org/2000/svg"
   xmlns:svg="http://www.w3.org/2000/svg">
  <defs
     id="defs831" />
  <sodipodi:namedview
     id="namedview829"
     pagecolor="#ffffff"
     bordercolor="#666666"
     borderopacity="1.0"
     inkscape:pageshadow="2"
     inkscape:pageopacity="0.0"
     inkscape:pagecheckerboard="0"
     showgrid="false"
     inkscape:zoom="0.84234452"
     inkscape:cx="325.87616"
     inkscape:cy="312.22379"
     inkscape:window-width="1440"
     inkscape:window-height="872"
     inkscape:window-x="0"
     inkscape:window-y="28"
     inkscape:window-maximized="1"
     inkscape:current-layer="svg827" />
  <path
     d="m 1.4897649,310.25146 v 41.58049 H 127.36909 c 4.03531,-13.62916 7.73435,-27.48933 11.09711,-41.58049 z"
     id="path1435"
     style="fill:#40b6e0;fill-opacity:1;stroke:none;stroke-width:1.60916;stroke-opacity:1" />
  <path
     d="m 457.10836,237.11638 c 0.84002,6.06802 1.40003,12.34531 1.40003,18.83183 0,6.48653 -0.56001,12.7638 -1.40003,18.83184 h 56.00105 v -37.66367 z"
     id="path1433"
     style="fill:#40b6e0;fill-opacity:1;stroke-width:1.71157" />
  <path
     d="m 0.69345492,159.83196 v 41.58048 H 138.4662 c -3.38231,-14.09116 -7.10285,-27.95132 -11.16162,-41.58048 z"
     id="path1429"
     style="fill:#40b6e0;fill-opacity:1;stroke:none;stroke-width:1.61382;stroke-opacity:1" />
  <path
     d="m 96.935235,107.36296 v 302 H 247.93523 c 148,0 148,-302 0,-302 z"
     id="path825"
     style="fill:#9aa7b0;fill-opacity:1" />
  <path
     d="m 404.91295,197.47707 c -34.01231,-0.0495 -61.15597,26.58053 -61.2063,60.04821 -0.0503,33.46769 27.01306,60.17673 61.02535,60.22626 34.01228,0.0495 61.15596,-26.58053 61.20631,-60.0482 0.0503,-33.4677 -27.01308,-60.17673 -61.02536,-60.22627 z"
     id="path1312"
     style="fill:#f36522;fill-opacity:0.8;stroke:none;stroke-width:62.5497;stroke-miterlimit:4;stroke-dasharray:none;stroke-opacity:0.8" />
</svg>
