<?xml version="1.0" encoding="UTF-8" standalone="no"?>
<svg
   version="1.1"
   viewBox="0 0 298 298"
   enable-background="new 0 0 298 298"
   id="svg1043"
   sodipodi:docname="ycircuit-current-source.svg"
   inkscape:version="1.1.1 (c3084ef, 2021-09-22)"
   xmlns:inkscape="http://www.inkscape.org/namespaces/inkscape"
   xmlns:sodipodi="http://sodipodi.sourceforge.net/DTD/sodipodi-0.dtd"
   xmlns="http://www.w3.org/2000/svg"
   xmlns:svg="http://www.w3.org/2000/svg">
  <defs
     id="defs1047" />
  <sodipodi:namedview
     id="namedview1045"
     pagecolor="#ffffff"
     bordercolor="#666666"
     borderopacity="1.0"
     inkscape:pageshadow="2"
     inkscape:pageopacity="0.0"
     inkscape:pagecheckerboard="0"
     showgrid="false"
     inkscape:zoom="1.7986577"
     inkscape:cx="183.74814"
     inkscape:cy="163.45523"
     inkscape:window-width="1440"
     inkscape:window-height="872"
     inkscape:window-x="0"
     inkscape:window-y="28"
     inkscape:window-maximized="0"
     inkscape:current-layer="g1041" />
  <g
     id="g1041">
    <path
       id="path1037"
       style="fill:#9aa7b0;fill-opacity:1"
       d="m 147.92188,30.173828 c -5.80571,0.05909 -11.60459,0.558902 -17.3379,1.472656 -0.55582,0.0921 -1.45219,0.246654 -2.13867,0.363282 -18.48641,3.31073 -36.173912,11.047782 -51.076069,22.489037 -5.112341,3.897226 -9.893444,8.224153 -14.316507,12.887916 -0.444789,0.491607 -1.123704,1.203934 -1.652532,1.78749 -2.066839,2.278716 -4.044949,4.636711 -5.937311,7.062119 -0.35812,0.479455 -0.928845,1.220434 -1.368509,1.800196 -6.985118,9.325009 -12.660068,19.825415 -16.557273,30.701756 -3.322935,9.16501 -5.44823,18.74578 -6.463714,28.43772 -0.462908,0.1727 -1.210125,0.0247 -1.782379,0.074 -11.097006,0 -22.1940108,0 -33.291016,0 0,8 0,16 0,24 11.7005208,0 23.401042,0 35.101562,0 0.847028,7.59478 2.312945,15.12713 4.577541,22.43019 5.355236,17.51144 14.815063,33.74983 27.438085,47.01903 0.44289,0.46115 1.107022,1.15363 1.64364,1.69779 15.824271,16.03579 36.234722,27.56038 58.240872,32.4884 10.2919,2.33999 20.8963,3.26662 31.43971,2.82943 0.56268,-0.0341 1.46503,-0.077 2.15795,-0.1145 1.2242,-0.076 2.7627,-0.18931 4.11118,-0.3222 19.72337,-1.82752 38.92532,-8.79316 55.27729,-19.96317 8.20394,-5.57404 15.70634,-12.17576 22.29342,-19.59036 0.41111,-0.46928 1.03228,-1.18063 1.52119,-1.74858 15.03052,-17.62717 24.80118,-39.71623 27.5063,-62.73763 0.0823,-0.66276 0.16392,-1.32561 0.24595,-1.9884 11.48177,0 22.96354,0 34.44531,0 0,-8 0,-16 0,-24 -11.46354,0 -22.92708,0 -34.39062,0 -0.56012,-5.02328 -1.32372,-10.02776 -2.47852,-14.95117 -0.16147,-0.66571 -0.38858,-1.63729 -0.58946,-2.41918 -1.43561,-5.67217 -3.30659,-11.23131 -5.55702,-16.6316 -0.21917,-0.50071 -0.64649,-1.49459 -0.86524,-2.01172 C 250.67829,84.281568 239.1891,69.136225 224.89666,57.369303 210.02129,45.071849 192.13263,36.408473 173.20165,32.58582 164.89311,30.880735 156.40207,30.087319 147.92188,30.173828 Z m 1.39062,23.992188 c 14.23907,-0.0073 28.47517,3.2202 41.2761,9.468541 17.20225,8.32058 31.78524,21.950864 41.19902,38.584583 7.19922,12.61509 11.44518,26.90585 12.22182,41.41435 1.02031,17.67898 -3.01306,35.63415 -11.63249,51.11456 -10.26815,18.60601 -26.92401,33.62583 -46.56433,41.77582 -15.32947,6.45418 -32.38206,8.66803 -48.86363,6.49594 C 116.56547,240.41368 97.20135,230.81557 82.634181,216.34502 68.30049,202.17816 58.586337,183.36022 55.600968,163.40945 52.598603,143.96 55.78893,123.57347 64.799713,106.05968 74.525853,86.932837 90.904954,71.264092 110.50069,62.497686 c 12.05972,-5.453531 25.2762,-8.301304 38.51047,-8.327955 0.10044,-9.98e-4 0.20089,-0.0033 0.30134,-0.0037 z" />
    <g
       aria-label="I"
       transform="matrix(1.5887745,0,0,0.83757591,-24.956054,-24.084711)"
       id="text8653"
       style="font-size:194.877px;stroke-width:4.87192;fill:#40b6e0;fill-opacity:1">
      <path
         d="M 137.16566,278.33835 H 81.214649 V 263.87482 H 99.769832 V 151.1164 H 81.214649 v -14.46353 h 55.951011 v 14.46353 h -18.55518 v 112.75842 h 18.55518 z"
         id="path10356"
         style="fill:#40b6e0;fill-opacity:1" />
    </g>
    <path
       style="color:#000000;fill:#40b6e0;stroke-width:1.03273;-inkscape-stroke:none"
       d="m -2.4142766,137.55829 -0.438505,24.93755 33.9554206,0.51828 0.43642,-24.9356 z"
       id="path12865" />
    <path
       style="color:#000000;fill:#40b6e0;stroke-width:0.985816;-inkscape-stroke:none"
       d="m 269.37891,137.14179 v 22.77612 h 33.32239 v -22.77612 z"
       id="path12862" />
  </g>
</svg>
